G04 #@! TF.FileFunction,Soldermask,Top*
%FSLAX46Y46*%
G04 Gerber Fmt 4.6, Leading zero omitted, Abs format (unit mm)*
G04 Created by KiCad (PCBNEW (2015-10-14 BZR 6269)-product) date Thursday, October 22, 2015 'PMt' 03:29:46 PM*
%MOMM*%
G01*
G04 APERTURE LIST*
%ADD10C,0.100000*%
%ADD11C,1.501140*%
%ADD12R,1.500000X1.250000*%
%ADD13R,1.250000X1.500000*%
%ADD14R,1.597660X1.800860*%
%ADD15R,1.800860X2.700020*%
%ADD16R,2.032000X1.727200*%
%ADD17O,2.032000X1.727200*%
%ADD18R,2.540000X2.540000*%
%ADD19C,2.540000*%
%ADD20R,1.500000X1.300000*%
%ADD21R,1.550000X1.300000*%
%ADD22R,1.500000X0.600000*%
%ADD23R,1.143000X2.286000*%
%ADD24R,10.800080X6.997700*%
%ADD25O,2.300000X1.600000*%
G04 APERTURE END LIST*
D10*
D11*
X152400000Y-67945000D03*
X152400000Y-62865000D03*
X149225000Y-98425000D03*
X146685000Y-98425000D03*
D12*
X154940000Y-97790000D03*
X152440000Y-97790000D03*
D13*
X139700000Y-134620000D03*
X139700000Y-137120000D03*
D14*
X155239720Y-105410000D03*
X152400000Y-105410000D03*
X155239720Y-113665000D03*
X152400000Y-113665000D03*
X155239720Y-121920000D03*
X152400000Y-121920000D03*
D15*
X139065000Y-98425000D03*
X143865600Y-98425000D03*
D16*
X177800000Y-62230000D03*
D17*
X177800000Y-64770000D03*
X177800000Y-67310000D03*
X177800000Y-69850000D03*
X177800000Y-72390000D03*
X177800000Y-74930000D03*
X177800000Y-77470000D03*
X177800000Y-80010000D03*
D16*
X180340000Y-62230000D03*
D17*
X180340000Y-64770000D03*
X180340000Y-67310000D03*
X180340000Y-69850000D03*
X180340000Y-72390000D03*
X180340000Y-74930000D03*
X180340000Y-77470000D03*
X180340000Y-80010000D03*
D16*
X182880000Y-62230000D03*
D17*
X182880000Y-64770000D03*
X182880000Y-67310000D03*
X182880000Y-69850000D03*
X182880000Y-72390000D03*
X182880000Y-74930000D03*
X182880000Y-77470000D03*
X182880000Y-80010000D03*
D16*
X177800000Y-86360000D03*
D17*
X177800000Y-88900000D03*
X177800000Y-91440000D03*
X177800000Y-93980000D03*
X177800000Y-96520000D03*
X177800000Y-99060000D03*
X177800000Y-101600000D03*
X177800000Y-104140000D03*
D16*
X180340000Y-86360000D03*
D17*
X180340000Y-88900000D03*
X180340000Y-91440000D03*
X180340000Y-93980000D03*
X180340000Y-96520000D03*
X180340000Y-99060000D03*
X180340000Y-101600000D03*
X180340000Y-104140000D03*
D16*
X182880000Y-86360000D03*
D17*
X182880000Y-88900000D03*
X182880000Y-91440000D03*
X182880000Y-93980000D03*
X182880000Y-96520000D03*
X182880000Y-99060000D03*
X182880000Y-101600000D03*
X182880000Y-104140000D03*
D16*
X177800000Y-110490000D03*
D17*
X177800000Y-113030000D03*
X177800000Y-115570000D03*
X177800000Y-118110000D03*
X177800000Y-120650000D03*
X177800000Y-123190000D03*
X177800000Y-125730000D03*
X177800000Y-128270000D03*
D16*
X180340000Y-110490000D03*
D17*
X180340000Y-113030000D03*
X180340000Y-115570000D03*
X180340000Y-118110000D03*
X180340000Y-120650000D03*
X180340000Y-123190000D03*
X180340000Y-125730000D03*
X180340000Y-128270000D03*
D16*
X182880000Y-110490000D03*
D17*
X182880000Y-113030000D03*
X182880000Y-115570000D03*
X182880000Y-118110000D03*
X182880000Y-120650000D03*
X182880000Y-123190000D03*
X182880000Y-125730000D03*
X182880000Y-128270000D03*
D16*
X177800000Y-134620000D03*
D17*
X177800000Y-137160000D03*
X177800000Y-139700000D03*
X177800000Y-142240000D03*
X177800000Y-144780000D03*
X177800000Y-147320000D03*
X177800000Y-149860000D03*
X177800000Y-152400000D03*
D16*
X180340000Y-134620000D03*
D17*
X180340000Y-137160000D03*
X180340000Y-139700000D03*
X180340000Y-142240000D03*
X180340000Y-144780000D03*
X180340000Y-147320000D03*
X180340000Y-149860000D03*
X180340000Y-152400000D03*
D16*
X182880000Y-134620000D03*
D17*
X182880000Y-137160000D03*
X182880000Y-139700000D03*
X182880000Y-142240000D03*
X182880000Y-144780000D03*
X182880000Y-147320000D03*
X182880000Y-149860000D03*
X182880000Y-152400000D03*
D18*
X140970000Y-70485000D03*
D19*
X140970000Y-75565000D03*
D18*
X140970000Y-82550000D03*
D19*
X140970000Y-87630000D03*
X140970000Y-92710000D03*
D16*
X143510000Y-132080000D03*
D17*
X143510000Y-134620000D03*
X143510000Y-137160000D03*
X143510000Y-139700000D03*
X143510000Y-142240000D03*
D20*
X170020000Y-62230000D03*
X172720000Y-62230000D03*
X170020000Y-64770000D03*
X172720000Y-64770000D03*
X170020000Y-67310000D03*
X172720000Y-67310000D03*
X170020000Y-69850000D03*
X172720000Y-69850000D03*
X170020000Y-72390000D03*
X172720000Y-72390000D03*
X170020000Y-74930000D03*
X172720000Y-74930000D03*
X170020000Y-77470000D03*
X172720000Y-77470000D03*
X170020000Y-80010000D03*
X172720000Y-80010000D03*
X170020000Y-86360000D03*
X172720000Y-86360000D03*
X170020000Y-88900000D03*
X172720000Y-88900000D03*
X170180000Y-91440000D03*
X172880000Y-91440000D03*
X170180000Y-93980000D03*
X172880000Y-93980000D03*
X170100000Y-96520000D03*
X172800000Y-96520000D03*
X170100000Y-99060000D03*
X172800000Y-99060000D03*
X170100000Y-101600000D03*
X172800000Y-101600000D03*
X170100000Y-104140000D03*
X172800000Y-104140000D03*
X152400000Y-102870000D03*
X155100000Y-102870000D03*
X155100000Y-107950000D03*
X152400000Y-107950000D03*
X152400000Y-111125000D03*
X155100000Y-111125000D03*
X155100000Y-116205000D03*
X152400000Y-116205000D03*
X152400000Y-119380000D03*
X155100000Y-119380000D03*
X155100000Y-124460000D03*
X152400000Y-124460000D03*
X162085000Y-147955000D03*
X159385000Y-147955000D03*
X162085000Y-150495000D03*
X159385000Y-150495000D03*
X170180000Y-110490000D03*
X172880000Y-110490000D03*
X170180000Y-113030000D03*
X172880000Y-113030000D03*
X170180000Y-115570000D03*
X172880000Y-115570000D03*
X170100000Y-118110000D03*
X172800000Y-118110000D03*
X170180000Y-120650000D03*
X172880000Y-120650000D03*
X170180000Y-123190000D03*
X172880000Y-123190000D03*
X170100000Y-125730000D03*
X172800000Y-125730000D03*
X170180000Y-128270000D03*
X172880000Y-128270000D03*
X170180000Y-134620000D03*
X172880000Y-134620000D03*
X170180000Y-137160000D03*
X172880000Y-137160000D03*
X170180000Y-139700000D03*
X172880000Y-139700000D03*
X170180000Y-142240000D03*
X172880000Y-142240000D03*
X170180000Y-144780000D03*
X172880000Y-144780000D03*
X170180000Y-147320000D03*
X172880000Y-147320000D03*
X170180000Y-149860000D03*
X172880000Y-149860000D03*
X170180000Y-152400000D03*
X172880000Y-152400000D03*
X163670000Y-82550000D03*
X166370000Y-82550000D03*
D21*
X140335000Y-107370000D03*
X140335000Y-102870000D03*
X148285000Y-102870000D03*
X148285000Y-107370000D03*
X140335000Y-115625000D03*
X140335000Y-111125000D03*
X148285000Y-111125000D03*
X148285000Y-115625000D03*
X140335000Y-123880000D03*
X140335000Y-119380000D03*
X148285000Y-119380000D03*
X148285000Y-123880000D03*
D22*
X160970000Y-63500000D03*
X160970000Y-64770000D03*
X160970000Y-66040000D03*
X160970000Y-67310000D03*
X160970000Y-68580000D03*
X160970000Y-69850000D03*
X160970000Y-71120000D03*
X160970000Y-72390000D03*
X166370000Y-72390000D03*
X166370000Y-71120000D03*
X166370000Y-69850000D03*
X166370000Y-68580000D03*
X166370000Y-67310000D03*
X166370000Y-66040000D03*
X166370000Y-64770000D03*
X166370000Y-63500000D03*
X160970000Y-87630000D03*
X160970000Y-88900000D03*
X160970000Y-90170000D03*
X160970000Y-91440000D03*
X160970000Y-92710000D03*
X160970000Y-93980000D03*
X160970000Y-95250000D03*
X160970000Y-96520000D03*
X166370000Y-96520000D03*
X166370000Y-95250000D03*
X166370000Y-93980000D03*
X166370000Y-92710000D03*
X166370000Y-91440000D03*
X166370000Y-90170000D03*
X166370000Y-88900000D03*
X166370000Y-87630000D03*
X160970000Y-111760000D03*
X160970000Y-113030000D03*
X160970000Y-114300000D03*
X160970000Y-115570000D03*
X160970000Y-116840000D03*
X160970000Y-118110000D03*
X160970000Y-119380000D03*
X160970000Y-120650000D03*
X166370000Y-120650000D03*
X166370000Y-119380000D03*
X166370000Y-118110000D03*
X166370000Y-116840000D03*
X166370000Y-115570000D03*
X166370000Y-114300000D03*
X166370000Y-113030000D03*
X166370000Y-111760000D03*
X160970000Y-135890000D03*
X160970000Y-137160000D03*
X160970000Y-138430000D03*
X160970000Y-139700000D03*
X160970000Y-140970000D03*
X160970000Y-142240000D03*
X160970000Y-143510000D03*
X160970000Y-144780000D03*
X166370000Y-144780000D03*
X166370000Y-143510000D03*
X166370000Y-142240000D03*
X166370000Y-140970000D03*
X166370000Y-139700000D03*
X166370000Y-138430000D03*
X166370000Y-137160000D03*
X166370000Y-135890000D03*
D23*
X152019000Y-94107000D03*
D24*
X152019000Y-83312000D03*
D23*
X154559000Y-94107000D03*
X149479000Y-94107000D03*
D25*
X147955000Y-128905000D03*
X147955000Y-131445000D03*
X147955000Y-133985000D03*
X147955000Y-136525000D03*
X147955000Y-139065000D03*
X147955000Y-141605000D03*
X147955000Y-144145000D03*
X147955000Y-146685000D03*
X147955000Y-149225000D03*
X155575000Y-149225000D03*
X155575000Y-146685000D03*
X155575000Y-144145000D03*
X155575000Y-141605000D03*
X155575000Y-139065000D03*
X155575000Y-136525000D03*
X155575000Y-133985000D03*
X155575000Y-131445000D03*
X155575000Y-128905000D03*
D12*
X166370000Y-133350000D03*
X163870000Y-133350000D03*
X166370000Y-85090000D03*
X163870000Y-85090000D03*
M02*
