G04 #@! TF.FileFunction,Legend,Top*
%FSLAX46Y46*%
G04 Gerber Fmt 4.6, Leading zero omitted, Abs format (unit mm)*
G04 Created by KiCad (PCBNEW (2015-10-14 BZR 6269)-product) date Thursday, October 22, 2015 'PMt' 03:29:46 PM*
%MOMM*%
G01*
G04 APERTURE LIST*
%ADD10C,0.100000*%
%ADD11C,0.300000*%
%ADD12C,0.150000*%
%ADD13C,1.501140*%
%ADD14R,1.500000X1.250000*%
%ADD15R,1.250000X1.500000*%
%ADD16R,1.597660X1.800860*%
%ADD17R,1.800860X2.700020*%
%ADD18R,2.032000X1.727200*%
%ADD19O,2.032000X1.727200*%
%ADD20R,2.540000X2.540000*%
%ADD21C,2.540000*%
%ADD22R,1.500000X1.300000*%
%ADD23R,1.550000X1.300000*%
%ADD24R,1.500000X0.600000*%
%ADD25R,1.143000X2.286000*%
%ADD26R,10.800080X6.997700*%
%ADD27O,2.300000X1.600000*%
G04 APERTURE END LIST*
D10*
D11*
X137116429Y-119463572D02*
X138616429Y-119463572D01*
X138616429Y-119820715D01*
X138545000Y-120035000D01*
X138402143Y-120177858D01*
X138259286Y-120249286D01*
X137973571Y-120320715D01*
X137759286Y-120320715D01*
X137473571Y-120249286D01*
X137330714Y-120177858D01*
X137187857Y-120035000D01*
X137116429Y-119820715D01*
X137116429Y-119463572D01*
X137902143Y-120963572D02*
X137902143Y-121463572D01*
X137116429Y-121677858D02*
X137116429Y-120963572D01*
X138616429Y-120963572D01*
X138616429Y-121677858D01*
X137259286Y-123177858D02*
X137187857Y-123106429D01*
X137116429Y-122892143D01*
X137116429Y-122749286D01*
X137187857Y-122535001D01*
X137330714Y-122392143D01*
X137473571Y-122320715D01*
X137759286Y-122249286D01*
X137973571Y-122249286D01*
X138259286Y-122320715D01*
X138402143Y-122392143D01*
X138545000Y-122535001D01*
X138616429Y-122749286D01*
X138616429Y-122892143D01*
X138545000Y-123106429D01*
X138473571Y-123177858D01*
X137116429Y-112129286D02*
X138616429Y-112129286D01*
X137116429Y-112843572D02*
X138616429Y-112843572D01*
X137116429Y-113700715D01*
X138616429Y-113700715D01*
X137259286Y-115272144D02*
X137187857Y-115200715D01*
X137116429Y-114986429D01*
X137116429Y-114843572D01*
X137187857Y-114629287D01*
X137330714Y-114486429D01*
X137473571Y-114415001D01*
X137759286Y-114343572D01*
X137973571Y-114343572D01*
X138259286Y-114415001D01*
X138402143Y-114486429D01*
X138545000Y-114629287D01*
X138616429Y-114843572D01*
X138616429Y-114986429D01*
X138545000Y-115200715D01*
X138473571Y-115272144D01*
X137187857Y-103060714D02*
X137116429Y-103275000D01*
X137116429Y-103632143D01*
X137187857Y-103775000D01*
X137259286Y-103846429D01*
X137402143Y-103917857D01*
X137545000Y-103917857D01*
X137687857Y-103846429D01*
X137759286Y-103775000D01*
X137830714Y-103632143D01*
X137902143Y-103346429D01*
X137973571Y-103203571D01*
X138045000Y-103132143D01*
X138187857Y-103060714D01*
X138330714Y-103060714D01*
X138473571Y-103132143D01*
X138545000Y-103203571D01*
X138616429Y-103346429D01*
X138616429Y-103703571D01*
X138545000Y-103917857D01*
X137902143Y-104560714D02*
X137902143Y-105060714D01*
X137116429Y-105275000D02*
X137116429Y-104560714D01*
X138616429Y-104560714D01*
X138616429Y-105275000D01*
X137116429Y-106632143D02*
X137116429Y-105917857D01*
X138616429Y-105917857D01*
X145971430Y-153713571D02*
X145971430Y-152213571D01*
X146542858Y-152213571D01*
X146685716Y-152285000D01*
X146757144Y-152356429D01*
X146828573Y-152499286D01*
X146828573Y-152713571D01*
X146757144Y-152856429D01*
X146685716Y-152927857D01*
X146542858Y-152999286D01*
X145971430Y-152999286D01*
X147471430Y-153713571D02*
X147471430Y-152213571D01*
X149042859Y-153570714D02*
X148971430Y-153642143D01*
X148757144Y-153713571D01*
X148614287Y-153713571D01*
X148400002Y-153642143D01*
X148257144Y-153499286D01*
X148185716Y-153356429D01*
X148114287Y-153070714D01*
X148114287Y-152856429D01*
X148185716Y-152570714D01*
X148257144Y-152427857D01*
X148400002Y-152285000D01*
X148614287Y-152213571D01*
X148757144Y-152213571D01*
X148971430Y-152285000D01*
X149042859Y-152356429D01*
X150471430Y-153713571D02*
X149614287Y-153713571D01*
X150042859Y-153713571D02*
X150042859Y-152213571D01*
X149900002Y-152427857D01*
X149757144Y-152570714D01*
X149614287Y-152642143D01*
X151757144Y-152213571D02*
X151471430Y-152213571D01*
X151328573Y-152285000D01*
X151257144Y-152356429D01*
X151114287Y-152570714D01*
X151042858Y-152856429D01*
X151042858Y-153427857D01*
X151114287Y-153570714D01*
X151185715Y-153642143D01*
X151328573Y-153713571D01*
X151614287Y-153713571D01*
X151757144Y-153642143D01*
X151828573Y-153570714D01*
X151900001Y-153427857D01*
X151900001Y-153070714D01*
X151828573Y-152927857D01*
X151757144Y-152856429D01*
X151614287Y-152785000D01*
X151328573Y-152785000D01*
X151185715Y-152856429D01*
X151114287Y-152927857D01*
X151042858Y-153070714D01*
X153042858Y-152927857D02*
X152542858Y-152927857D01*
X152542858Y-153713571D02*
X152542858Y-152213571D01*
X153257144Y-152213571D01*
X154614286Y-153713571D02*
X153757143Y-153713571D01*
X154185715Y-153713571D02*
X154185715Y-152213571D01*
X154042858Y-152427857D01*
X153900000Y-152570714D01*
X153757143Y-152642143D01*
X155471429Y-152856429D02*
X155328571Y-152785000D01*
X155257143Y-152713571D01*
X155185714Y-152570714D01*
X155185714Y-152499286D01*
X155257143Y-152356429D01*
X155328571Y-152285000D01*
X155471429Y-152213571D01*
X155757143Y-152213571D01*
X155900000Y-152285000D01*
X155971429Y-152356429D01*
X156042857Y-152499286D01*
X156042857Y-152570714D01*
X155971429Y-152713571D01*
X155900000Y-152785000D01*
X155757143Y-152856429D01*
X155471429Y-152856429D01*
X155328571Y-152927857D01*
X155257143Y-152999286D01*
X155185714Y-153142143D01*
X155185714Y-153427857D01*
X155257143Y-153570714D01*
X155328571Y-153642143D01*
X155471429Y-153713571D01*
X155757143Y-153713571D01*
X155900000Y-153642143D01*
X155971429Y-153570714D01*
X156042857Y-153427857D01*
X156042857Y-153142143D01*
X155971429Y-152999286D01*
X155900000Y-152927857D01*
X155757143Y-152856429D01*
X157328571Y-152713571D02*
X157328571Y-153713571D01*
X156971428Y-152142143D02*
X156614285Y-153213571D01*
X157542857Y-153213571D01*
X157971428Y-152213571D02*
X158971428Y-152213571D01*
X158328571Y-153713571D01*
X145574286Y-71727143D02*
X145788572Y-71798571D01*
X146145715Y-71798571D01*
X146288572Y-71727143D01*
X146360001Y-71655714D01*
X146431429Y-71512857D01*
X146431429Y-71370000D01*
X146360001Y-71227143D01*
X146288572Y-71155714D01*
X146145715Y-71084286D01*
X145860001Y-71012857D01*
X145717143Y-70941429D01*
X145645715Y-70870000D01*
X145574286Y-70727143D01*
X145574286Y-70584286D01*
X145645715Y-70441429D01*
X145717143Y-70370000D01*
X145860001Y-70298571D01*
X146217143Y-70298571D01*
X146431429Y-70370000D01*
X147645714Y-71727143D02*
X147502857Y-71798571D01*
X147217143Y-71798571D01*
X147074286Y-71727143D01*
X147002857Y-71584286D01*
X147002857Y-71012857D01*
X147074286Y-70870000D01*
X147217143Y-70798571D01*
X147502857Y-70798571D01*
X147645714Y-70870000D01*
X147717143Y-71012857D01*
X147717143Y-71155714D01*
X147002857Y-71298571D01*
X148360000Y-71798571D02*
X148360000Y-70798571D01*
X148360000Y-71084286D02*
X148431428Y-70941429D01*
X148502857Y-70870000D01*
X148645714Y-70798571D01*
X148788571Y-70798571D01*
X149145714Y-70798571D02*
X149502857Y-71798571D01*
X149859999Y-70798571D01*
X150645714Y-71798571D02*
X150502856Y-71727143D01*
X150431428Y-71655714D01*
X150359999Y-71512857D01*
X150359999Y-71084286D01*
X150431428Y-70941429D01*
X150502856Y-70870000D01*
X150645714Y-70798571D01*
X150859999Y-70798571D01*
X151002856Y-70870000D01*
X151074285Y-70941429D01*
X151145714Y-71084286D01*
X151145714Y-71512857D01*
X151074285Y-71655714D01*
X151002856Y-71727143D01*
X150859999Y-71798571D01*
X150645714Y-71798571D01*
X152931428Y-71227143D02*
X154074285Y-71227143D01*
X153502856Y-71798571D02*
X153502856Y-70655714D01*
X147447143Y-74815000D02*
X147304286Y-74743571D01*
X147090000Y-74743571D01*
X146875715Y-74815000D01*
X146732857Y-74957857D01*
X146661429Y-75100714D01*
X146590000Y-75386429D01*
X146590000Y-75600714D01*
X146661429Y-75886429D01*
X146732857Y-76029286D01*
X146875715Y-76172143D01*
X147090000Y-76243571D01*
X147232857Y-76243571D01*
X147447143Y-76172143D01*
X147518572Y-76100714D01*
X147518572Y-75600714D01*
X147232857Y-75600714D01*
X148161429Y-76243571D02*
X148161429Y-74743571D01*
X149018572Y-76243571D01*
X149018572Y-74743571D01*
X149732858Y-76243571D02*
X149732858Y-74743571D01*
X150090001Y-74743571D01*
X150304286Y-74815000D01*
X150447144Y-74957857D01*
X150518572Y-75100714D01*
X150590001Y-75386429D01*
X150590001Y-75600714D01*
X150518572Y-75886429D01*
X150447144Y-76029286D01*
X150304286Y-76172143D01*
X150090001Y-76243571D01*
X149732858Y-76243571D01*
D12*
X155448000Y-62865000D02*
X154432000Y-62865000D01*
X154940000Y-62357000D02*
X154940000Y-63373000D01*
X157480000Y-65405000D02*
G75*
G03X157480000Y-65405000I-5080000J0D01*
G01*
X147955000Y-96901000D02*
X146888200Y-96901000D01*
X147447000Y-96393000D02*
X147447000Y-97434400D01*
X150495000Y-98425000D02*
G75*
G03X150495000Y-98425000I-2540000J0D01*
G01*
X153190000Y-98640000D02*
X154190000Y-98640000D01*
X154190000Y-96940000D02*
X153190000Y-96940000D01*
X140550000Y-136370000D02*
X140550000Y-135370000D01*
X138850000Y-135370000D02*
X138850000Y-136370000D01*
X151669860Y-106460000D02*
X155269860Y-106460000D01*
X151669860Y-104360000D02*
X155269860Y-104360000D01*
X153719860Y-105110000D02*
X153719860Y-105710000D01*
X153719860Y-105710000D02*
X153419860Y-105410000D01*
X153419860Y-105410000D02*
X153619860Y-105210000D01*
X153619860Y-105210000D02*
X153619860Y-105460000D01*
X153619860Y-105460000D02*
X153569860Y-105410000D01*
X153319860Y-104910000D02*
X153319860Y-105910000D01*
X153819860Y-105410000D02*
X154319860Y-105410000D01*
X153319860Y-105410000D02*
X153819860Y-104910000D01*
X153819860Y-104910000D02*
X153819860Y-105910000D01*
X153819860Y-105910000D02*
X153319860Y-105410000D01*
X151669860Y-114715000D02*
X155269860Y-114715000D01*
X151669860Y-112615000D02*
X155269860Y-112615000D01*
X153719860Y-113365000D02*
X153719860Y-113965000D01*
X153719860Y-113965000D02*
X153419860Y-113665000D01*
X153419860Y-113665000D02*
X153619860Y-113465000D01*
X153619860Y-113465000D02*
X153619860Y-113715000D01*
X153619860Y-113715000D02*
X153569860Y-113665000D01*
X153319860Y-113165000D02*
X153319860Y-114165000D01*
X153819860Y-113665000D02*
X154319860Y-113665000D01*
X153319860Y-113665000D02*
X153819860Y-113165000D01*
X153819860Y-113165000D02*
X153819860Y-114165000D01*
X153819860Y-114165000D02*
X153319860Y-113665000D01*
X151669860Y-122970000D02*
X155269860Y-122970000D01*
X151669860Y-120870000D02*
X155269860Y-120870000D01*
X153719860Y-121620000D02*
X153719860Y-122220000D01*
X153719860Y-122220000D02*
X153419860Y-121920000D01*
X153419860Y-121920000D02*
X153619860Y-121720000D01*
X153619860Y-121720000D02*
X153619860Y-121970000D01*
X153619860Y-121970000D02*
X153569860Y-121920000D01*
X153319860Y-121420000D02*
X153319860Y-122420000D01*
X153819860Y-121920000D02*
X154319860Y-121920000D01*
X153319860Y-121920000D02*
X153819860Y-121420000D01*
X153819860Y-121420000D02*
X153819860Y-122420000D01*
X153819860Y-122420000D02*
X153319860Y-121920000D01*
X138165300Y-96825000D02*
X138165300Y-100025000D01*
X144965420Y-96824800D02*
X144965420Y-100025200D01*
X137965300Y-96825000D02*
X137965300Y-100025000D01*
X142661640Y-100030280D02*
X144947640Y-100030280D01*
X144947640Y-96819720D02*
X142661640Y-96819720D01*
X140265300Y-96825000D02*
X137965300Y-96825000D01*
X137965300Y-100025000D02*
X140265300Y-100025000D01*
X179070000Y-63500000D02*
X179070000Y-81280000D01*
X179070000Y-81280000D02*
X176530000Y-81280000D01*
X176530000Y-81280000D02*
X176530000Y-63500000D01*
X179350000Y-60680000D02*
X179350000Y-62230000D01*
X179070000Y-63500000D02*
X176530000Y-63500000D01*
X176250000Y-62230000D02*
X176250000Y-60680000D01*
X176250000Y-60680000D02*
X179350000Y-60680000D01*
X181610000Y-63500000D02*
X181610000Y-81280000D01*
X181610000Y-81280000D02*
X179070000Y-81280000D01*
X179070000Y-81280000D02*
X179070000Y-63500000D01*
X181890000Y-60680000D02*
X181890000Y-62230000D01*
X181610000Y-63500000D02*
X179070000Y-63500000D01*
X178790000Y-62230000D02*
X178790000Y-60680000D01*
X178790000Y-60680000D02*
X181890000Y-60680000D01*
X184150000Y-63500000D02*
X184150000Y-81280000D01*
X184150000Y-81280000D02*
X181610000Y-81280000D01*
X181610000Y-81280000D02*
X181610000Y-63500000D01*
X184430000Y-60680000D02*
X184430000Y-62230000D01*
X184150000Y-63500000D02*
X181610000Y-63500000D01*
X181330000Y-62230000D02*
X181330000Y-60680000D01*
X181330000Y-60680000D02*
X184430000Y-60680000D01*
X179070000Y-87630000D02*
X179070000Y-105410000D01*
X179070000Y-105410000D02*
X176530000Y-105410000D01*
X176530000Y-105410000D02*
X176530000Y-87630000D01*
X179350000Y-84810000D02*
X179350000Y-86360000D01*
X179070000Y-87630000D02*
X176530000Y-87630000D01*
X176250000Y-86360000D02*
X176250000Y-84810000D01*
X176250000Y-84810000D02*
X179350000Y-84810000D01*
X181610000Y-87630000D02*
X181610000Y-105410000D01*
X181610000Y-105410000D02*
X179070000Y-105410000D01*
X179070000Y-105410000D02*
X179070000Y-87630000D01*
X181890000Y-84810000D02*
X181890000Y-86360000D01*
X181610000Y-87630000D02*
X179070000Y-87630000D01*
X178790000Y-86360000D02*
X178790000Y-84810000D01*
X178790000Y-84810000D02*
X181890000Y-84810000D01*
X184150000Y-87630000D02*
X184150000Y-105410000D01*
X184150000Y-105410000D02*
X181610000Y-105410000D01*
X181610000Y-105410000D02*
X181610000Y-87630000D01*
X184430000Y-84810000D02*
X184430000Y-86360000D01*
X184150000Y-87630000D02*
X181610000Y-87630000D01*
X181330000Y-86360000D02*
X181330000Y-84810000D01*
X181330000Y-84810000D02*
X184430000Y-84810000D01*
X179070000Y-111760000D02*
X179070000Y-129540000D01*
X179070000Y-129540000D02*
X176530000Y-129540000D01*
X176530000Y-129540000D02*
X176530000Y-111760000D01*
X179350000Y-108940000D02*
X179350000Y-110490000D01*
X179070000Y-111760000D02*
X176530000Y-111760000D01*
X176250000Y-110490000D02*
X176250000Y-108940000D01*
X176250000Y-108940000D02*
X179350000Y-108940000D01*
X181610000Y-111760000D02*
X181610000Y-129540000D01*
X181610000Y-129540000D02*
X179070000Y-129540000D01*
X179070000Y-129540000D02*
X179070000Y-111760000D01*
X181890000Y-108940000D02*
X181890000Y-110490000D01*
X181610000Y-111760000D02*
X179070000Y-111760000D01*
X178790000Y-110490000D02*
X178790000Y-108940000D01*
X178790000Y-108940000D02*
X181890000Y-108940000D01*
X184150000Y-111760000D02*
X184150000Y-129540000D01*
X184150000Y-129540000D02*
X181610000Y-129540000D01*
X181610000Y-129540000D02*
X181610000Y-111760000D01*
X184430000Y-108940000D02*
X184430000Y-110490000D01*
X184150000Y-111760000D02*
X181610000Y-111760000D01*
X181330000Y-110490000D02*
X181330000Y-108940000D01*
X181330000Y-108940000D02*
X184430000Y-108940000D01*
X179070000Y-135890000D02*
X179070000Y-153670000D01*
X179070000Y-153670000D02*
X176530000Y-153670000D01*
X176530000Y-153670000D02*
X176530000Y-135890000D01*
X179350000Y-133070000D02*
X179350000Y-134620000D01*
X179070000Y-135890000D02*
X176530000Y-135890000D01*
X176250000Y-134620000D02*
X176250000Y-133070000D01*
X176250000Y-133070000D02*
X179350000Y-133070000D01*
X181610000Y-135890000D02*
X181610000Y-153670000D01*
X181610000Y-153670000D02*
X179070000Y-153670000D01*
X179070000Y-153670000D02*
X179070000Y-135890000D01*
X181890000Y-133070000D02*
X181890000Y-134620000D01*
X181610000Y-135890000D02*
X179070000Y-135890000D01*
X178790000Y-134620000D02*
X178790000Y-133070000D01*
X178790000Y-133070000D02*
X181890000Y-133070000D01*
X184150000Y-135890000D02*
X184150000Y-153670000D01*
X184150000Y-153670000D02*
X181610000Y-153670000D01*
X181610000Y-153670000D02*
X181610000Y-135890000D01*
X184430000Y-133070000D02*
X184430000Y-134620000D01*
X184150000Y-135890000D02*
X181610000Y-135890000D01*
X181330000Y-134620000D02*
X181330000Y-133070000D01*
X181330000Y-133070000D02*
X184430000Y-133070000D01*
X138430000Y-78105000D02*
X138430000Y-67945000D01*
X137160000Y-78105000D02*
X144780000Y-78105000D01*
X144780000Y-78105000D02*
X144780000Y-67945000D01*
X144780000Y-67945000D02*
X137160000Y-67945000D01*
X137160000Y-67945000D02*
X137160000Y-78105000D01*
X137160000Y-80010000D02*
X144780000Y-80010000D01*
X137160000Y-95250000D02*
X144780000Y-95250000D01*
X138430000Y-80010000D02*
X138430000Y-95250000D01*
X144780000Y-80010000D02*
X144780000Y-95250000D01*
X137160000Y-80010000D02*
X137160000Y-95250000D01*
X141960000Y-132080000D02*
X141960000Y-130530000D01*
X141960000Y-130530000D02*
X145060000Y-130530000D01*
X145060000Y-130530000D02*
X145060000Y-132080000D01*
X144780000Y-133350000D02*
X144780000Y-143510000D01*
X144780000Y-143510000D02*
X142240000Y-143510000D01*
X142240000Y-143510000D02*
X142240000Y-133350000D01*
X144780000Y-133350000D02*
X142240000Y-133350000D01*
X171970000Y-63105000D02*
X170770000Y-63105000D01*
X170770000Y-61355000D02*
X171970000Y-61355000D01*
X171970000Y-65645000D02*
X170770000Y-65645000D01*
X170770000Y-63895000D02*
X171970000Y-63895000D01*
X171970000Y-68185000D02*
X170770000Y-68185000D01*
X170770000Y-66435000D02*
X171970000Y-66435000D01*
X171970000Y-70725000D02*
X170770000Y-70725000D01*
X170770000Y-68975000D02*
X171970000Y-68975000D01*
X171970000Y-73265000D02*
X170770000Y-73265000D01*
X170770000Y-71515000D02*
X171970000Y-71515000D01*
X171970000Y-75805000D02*
X170770000Y-75805000D01*
X170770000Y-74055000D02*
X171970000Y-74055000D01*
X171970000Y-78345000D02*
X170770000Y-78345000D01*
X170770000Y-76595000D02*
X171970000Y-76595000D01*
X171970000Y-80885000D02*
X170770000Y-80885000D01*
X170770000Y-79135000D02*
X171970000Y-79135000D01*
X171970000Y-87235000D02*
X170770000Y-87235000D01*
X170770000Y-85485000D02*
X171970000Y-85485000D01*
X171970000Y-89775000D02*
X170770000Y-89775000D01*
X170770000Y-88025000D02*
X171970000Y-88025000D01*
X172130000Y-92315000D02*
X170930000Y-92315000D01*
X170930000Y-90565000D02*
X172130000Y-90565000D01*
X172130000Y-94855000D02*
X170930000Y-94855000D01*
X170930000Y-93105000D02*
X172130000Y-93105000D01*
X172050000Y-97395000D02*
X170850000Y-97395000D01*
X170850000Y-95645000D02*
X172050000Y-95645000D01*
X172050000Y-99935000D02*
X170850000Y-99935000D01*
X170850000Y-98185000D02*
X172050000Y-98185000D01*
X172050000Y-102475000D02*
X170850000Y-102475000D01*
X170850000Y-100725000D02*
X172050000Y-100725000D01*
X172050000Y-105015000D02*
X170850000Y-105015000D01*
X170850000Y-103265000D02*
X172050000Y-103265000D01*
X154350000Y-103745000D02*
X153150000Y-103745000D01*
X153150000Y-101995000D02*
X154350000Y-101995000D01*
X153150000Y-107075000D02*
X154350000Y-107075000D01*
X154350000Y-108825000D02*
X153150000Y-108825000D01*
X154350000Y-112000000D02*
X153150000Y-112000000D01*
X153150000Y-110250000D02*
X154350000Y-110250000D01*
X153150000Y-115330000D02*
X154350000Y-115330000D01*
X154350000Y-117080000D02*
X153150000Y-117080000D01*
X154350000Y-120255000D02*
X153150000Y-120255000D01*
X153150000Y-118505000D02*
X154350000Y-118505000D01*
X153150000Y-123585000D02*
X154350000Y-123585000D01*
X154350000Y-125335000D02*
X153150000Y-125335000D01*
X160135000Y-147080000D02*
X161335000Y-147080000D01*
X161335000Y-148830000D02*
X160135000Y-148830000D01*
X160135000Y-149620000D02*
X161335000Y-149620000D01*
X161335000Y-151370000D02*
X160135000Y-151370000D01*
X172130000Y-111365000D02*
X170930000Y-111365000D01*
X170930000Y-109615000D02*
X172130000Y-109615000D01*
X172130000Y-113905000D02*
X170930000Y-113905000D01*
X170930000Y-112155000D02*
X172130000Y-112155000D01*
X172130000Y-116445000D02*
X170930000Y-116445000D01*
X170930000Y-114695000D02*
X172130000Y-114695000D01*
X172050000Y-118985000D02*
X170850000Y-118985000D01*
X170850000Y-117235000D02*
X172050000Y-117235000D01*
X172130000Y-121525000D02*
X170930000Y-121525000D01*
X170930000Y-119775000D02*
X172130000Y-119775000D01*
X172130000Y-124065000D02*
X170930000Y-124065000D01*
X170930000Y-122315000D02*
X172130000Y-122315000D01*
X172050000Y-126605000D02*
X170850000Y-126605000D01*
X170850000Y-124855000D02*
X172050000Y-124855000D01*
X172130000Y-129145000D02*
X170930000Y-129145000D01*
X170930000Y-127395000D02*
X172130000Y-127395000D01*
X172130000Y-135495000D02*
X170930000Y-135495000D01*
X170930000Y-133745000D02*
X172130000Y-133745000D01*
X172130000Y-138035000D02*
X170930000Y-138035000D01*
X170930000Y-136285000D02*
X172130000Y-136285000D01*
X172130000Y-140575000D02*
X170930000Y-140575000D01*
X170930000Y-138825000D02*
X172130000Y-138825000D01*
X172130000Y-143115000D02*
X170930000Y-143115000D01*
X170930000Y-141365000D02*
X172130000Y-141365000D01*
X172130000Y-145655000D02*
X170930000Y-145655000D01*
X170930000Y-143905000D02*
X172130000Y-143905000D01*
X172130000Y-148195000D02*
X170930000Y-148195000D01*
X170930000Y-146445000D02*
X172130000Y-146445000D01*
X172130000Y-150735000D02*
X170930000Y-150735000D01*
X170930000Y-148985000D02*
X172130000Y-148985000D01*
X172130000Y-153275000D02*
X170930000Y-153275000D01*
X170930000Y-151525000D02*
X172130000Y-151525000D01*
X165620000Y-83425000D02*
X164420000Y-83425000D01*
X164420000Y-81675000D02*
X165620000Y-81675000D01*
X146060714Y-105120000D02*
G75*
G03X146060714Y-105120000I-1750714J0D01*
G01*
X147535000Y-101895000D02*
X147535000Y-102020000D01*
X147535000Y-108345000D02*
X147535000Y-108220000D01*
X141085000Y-108345000D02*
X141085000Y-108220000D01*
X141085000Y-102020000D02*
X141085000Y-101895000D01*
X147535000Y-103720000D02*
X147535000Y-106520000D01*
X141085000Y-101895000D02*
X147535000Y-101895000D01*
X141085000Y-103720000D02*
X141085000Y-106520000D01*
X141085000Y-108345000D02*
X147535000Y-108345000D01*
X146060714Y-113375000D02*
G75*
G03X146060714Y-113375000I-1750714J0D01*
G01*
X147535000Y-110150000D02*
X147535000Y-110275000D01*
X147535000Y-116600000D02*
X147535000Y-116475000D01*
X141085000Y-116600000D02*
X141085000Y-116475000D01*
X141085000Y-110275000D02*
X141085000Y-110150000D01*
X147535000Y-111975000D02*
X147535000Y-114775000D01*
X141085000Y-110150000D02*
X147535000Y-110150000D01*
X141085000Y-111975000D02*
X141085000Y-114775000D01*
X141085000Y-116600000D02*
X147535000Y-116600000D01*
X146060714Y-121630000D02*
G75*
G03X146060714Y-121630000I-1750714J0D01*
G01*
X147535000Y-118405000D02*
X147535000Y-118530000D01*
X147535000Y-124855000D02*
X147535000Y-124730000D01*
X141085000Y-124855000D02*
X141085000Y-124730000D01*
X141085000Y-118530000D02*
X141085000Y-118405000D01*
X147535000Y-120230000D02*
X147535000Y-123030000D01*
X141085000Y-118405000D02*
X147535000Y-118405000D01*
X141085000Y-120230000D02*
X141085000Y-123030000D01*
X141085000Y-124855000D02*
X147535000Y-124855000D01*
X161595000Y-62870000D02*
X161595000Y-62975000D01*
X165745000Y-62870000D02*
X165745000Y-62975000D01*
X165745000Y-73020000D02*
X165745000Y-72915000D01*
X161595000Y-73020000D02*
X161595000Y-72915000D01*
X161595000Y-62870000D02*
X165745000Y-62870000D01*
X161595000Y-73020000D02*
X165745000Y-73020000D01*
X161595000Y-62975000D02*
X160220000Y-62975000D01*
X161595000Y-87000000D02*
X161595000Y-87105000D01*
X165745000Y-87000000D02*
X165745000Y-87105000D01*
X165745000Y-97150000D02*
X165745000Y-97045000D01*
X161595000Y-97150000D02*
X161595000Y-97045000D01*
X161595000Y-87000000D02*
X165745000Y-87000000D01*
X161595000Y-97150000D02*
X165745000Y-97150000D01*
X161595000Y-87105000D02*
X160220000Y-87105000D01*
X161595000Y-111130000D02*
X161595000Y-111235000D01*
X165745000Y-111130000D02*
X165745000Y-111235000D01*
X165745000Y-121280000D02*
X165745000Y-121175000D01*
X161595000Y-121280000D02*
X161595000Y-121175000D01*
X161595000Y-111130000D02*
X165745000Y-111130000D01*
X161595000Y-121280000D02*
X165745000Y-121280000D01*
X161595000Y-111235000D02*
X160220000Y-111235000D01*
X161595000Y-135260000D02*
X161595000Y-135365000D01*
X165745000Y-135260000D02*
X165745000Y-135365000D01*
X165745000Y-145410000D02*
X165745000Y-145305000D01*
X161595000Y-145410000D02*
X161595000Y-145305000D01*
X161595000Y-135260000D02*
X165745000Y-135260000D01*
X161595000Y-145410000D02*
X165745000Y-145410000D01*
X161595000Y-135365000D02*
X160220000Y-135365000D01*
X155441000Y-91694000D02*
X157734000Y-91694000D01*
X148597000Y-91706700D02*
X148597000Y-95250000D01*
X146304000Y-91694000D02*
X146304000Y-79813000D01*
X157734000Y-79813000D02*
X157734000Y-91694000D01*
X146304000Y-91694000D02*
X148597000Y-91694000D01*
X148090000Y-126610000D02*
X148090000Y-127880000D01*
X155440000Y-126610000D02*
X155440000Y-127880000D01*
X155440000Y-151520000D02*
X155440000Y-150250000D01*
X148090000Y-151520000D02*
X148090000Y-150250000D01*
X148090000Y-126610000D02*
X155440000Y-126610000D01*
X148090000Y-151520000D02*
X155440000Y-151520000D01*
X148090000Y-127880000D02*
X146805000Y-127880000D01*
X164620000Y-134200000D02*
X165620000Y-134200000D01*
X165620000Y-132500000D02*
X164620000Y-132500000D01*
X164620000Y-85940000D02*
X165620000Y-85940000D01*
X165620000Y-84240000D02*
X164620000Y-84240000D01*
X150963334Y-65762143D02*
X150915715Y-65809762D01*
X150772858Y-65857381D01*
X150677620Y-65857381D01*
X150534762Y-65809762D01*
X150439524Y-65714524D01*
X150391905Y-65619286D01*
X150344286Y-65428810D01*
X150344286Y-65285952D01*
X150391905Y-65095476D01*
X150439524Y-65000238D01*
X150534762Y-64905000D01*
X150677620Y-64857381D01*
X150772858Y-64857381D01*
X150915715Y-64905000D01*
X150963334Y-64952619D01*
X151915715Y-65857381D02*
X151344286Y-65857381D01*
X151630000Y-65857381D02*
X151630000Y-64857381D01*
X151534762Y-65000238D01*
X151439524Y-65095476D01*
X151344286Y-65143095D01*
X147788334Y-100687143D02*
X147740715Y-100734762D01*
X147597858Y-100782381D01*
X147502620Y-100782381D01*
X147359762Y-100734762D01*
X147264524Y-100639524D01*
X147216905Y-100544286D01*
X147169286Y-100353810D01*
X147169286Y-100210952D01*
X147216905Y-100020476D01*
X147264524Y-99925238D01*
X147359762Y-99830000D01*
X147502620Y-99782381D01*
X147597858Y-99782381D01*
X147740715Y-99830000D01*
X147788334Y-99877619D01*
X148169286Y-99877619D02*
X148216905Y-99830000D01*
X148312143Y-99782381D01*
X148550239Y-99782381D01*
X148645477Y-99830000D01*
X148693096Y-99877619D01*
X148740715Y-99972857D01*
X148740715Y-100068095D01*
X148693096Y-100210952D01*
X148121667Y-100782381D01*
X148740715Y-100782381D01*
X156741905Y-105862381D02*
X156741905Y-104862381D01*
X156980000Y-104862381D01*
X157122858Y-104910000D01*
X157218096Y-105005238D01*
X157265715Y-105100476D01*
X157313334Y-105290952D01*
X157313334Y-105433810D01*
X157265715Y-105624286D01*
X157218096Y-105719524D01*
X157122858Y-105814762D01*
X156980000Y-105862381D01*
X156741905Y-105862381D01*
X158265715Y-105862381D02*
X157694286Y-105862381D01*
X157980000Y-105862381D02*
X157980000Y-104862381D01*
X157884762Y-105005238D01*
X157789524Y-105100476D01*
X157694286Y-105148095D01*
X156741905Y-114117381D02*
X156741905Y-113117381D01*
X156980000Y-113117381D01*
X157122858Y-113165000D01*
X157218096Y-113260238D01*
X157265715Y-113355476D01*
X157313334Y-113545952D01*
X157313334Y-113688810D01*
X157265715Y-113879286D01*
X157218096Y-113974524D01*
X157122858Y-114069762D01*
X156980000Y-114117381D01*
X156741905Y-114117381D01*
X157694286Y-113212619D02*
X157741905Y-113165000D01*
X157837143Y-113117381D01*
X158075239Y-113117381D01*
X158170477Y-113165000D01*
X158218096Y-113212619D01*
X158265715Y-113307857D01*
X158265715Y-113403095D01*
X158218096Y-113545952D01*
X157646667Y-114117381D01*
X158265715Y-114117381D01*
X156741905Y-122372381D02*
X156741905Y-121372381D01*
X156980000Y-121372381D01*
X157122858Y-121420000D01*
X157218096Y-121515238D01*
X157265715Y-121610476D01*
X157313334Y-121800952D01*
X157313334Y-121943810D01*
X157265715Y-122134286D01*
X157218096Y-122229524D01*
X157122858Y-122324762D01*
X156980000Y-122372381D01*
X156741905Y-122372381D01*
X157646667Y-121372381D02*
X158265715Y-121372381D01*
X157932381Y-121753333D01*
X158075239Y-121753333D01*
X158170477Y-121800952D01*
X158218096Y-121848571D01*
X158265715Y-121943810D01*
X158265715Y-122181905D01*
X158218096Y-122277143D01*
X158170477Y-122324762D01*
X158075239Y-122372381D01*
X157789524Y-122372381D01*
X157694286Y-122324762D01*
X157646667Y-122277143D01*
X140727205Y-98177381D02*
X140727205Y-97177381D01*
X140965300Y-97177381D01*
X141108158Y-97225000D01*
X141203396Y-97320238D01*
X141251015Y-97415476D01*
X141298634Y-97605952D01*
X141298634Y-97748810D01*
X141251015Y-97939286D01*
X141203396Y-98034524D01*
X141108158Y-98129762D01*
X140965300Y-98177381D01*
X140727205Y-98177381D01*
X142155777Y-97510714D02*
X142155777Y-98177381D01*
X141917681Y-97129762D02*
X141679586Y-97844048D01*
X142298634Y-97844048D01*
X176157143Y-60142381D02*
X176157143Y-59142381D01*
X176538096Y-59142381D01*
X176633334Y-59190000D01*
X176680953Y-59237619D01*
X176728572Y-59332857D01*
X176728572Y-59475714D01*
X176680953Y-59570952D01*
X176633334Y-59618571D01*
X176538096Y-59666190D01*
X176157143Y-59666190D01*
X177680953Y-60142381D02*
X177109524Y-60142381D01*
X177395238Y-60142381D02*
X177395238Y-59142381D01*
X177300000Y-59285238D01*
X177204762Y-59380476D01*
X177109524Y-59428095D01*
X178061905Y-59856667D02*
X178538096Y-59856667D01*
X177966667Y-60142381D02*
X178300000Y-59142381D01*
X178633334Y-60142381D01*
X179490477Y-60142381D02*
X178919048Y-60142381D01*
X179204762Y-60142381D02*
X179204762Y-59142381D01*
X179109524Y-59285238D01*
X179014286Y-59380476D01*
X178919048Y-59428095D01*
X176157143Y-84272381D02*
X176157143Y-83272381D01*
X176538096Y-83272381D01*
X176633334Y-83320000D01*
X176680953Y-83367619D01*
X176728572Y-83462857D01*
X176728572Y-83605714D01*
X176680953Y-83700952D01*
X176633334Y-83748571D01*
X176538096Y-83796190D01*
X176157143Y-83796190D01*
X177109524Y-83367619D02*
X177157143Y-83320000D01*
X177252381Y-83272381D01*
X177490477Y-83272381D01*
X177585715Y-83320000D01*
X177633334Y-83367619D01*
X177680953Y-83462857D01*
X177680953Y-83558095D01*
X177633334Y-83700952D01*
X177061905Y-84272381D01*
X177680953Y-84272381D01*
X178061905Y-83986667D02*
X178538096Y-83986667D01*
X177966667Y-84272381D02*
X178300000Y-83272381D01*
X178633334Y-84272381D01*
X179490477Y-84272381D02*
X178919048Y-84272381D01*
X179204762Y-84272381D02*
X179204762Y-83272381D01*
X179109524Y-83415238D01*
X179014286Y-83510476D01*
X178919048Y-83558095D01*
X176157143Y-108402381D02*
X176157143Y-107402381D01*
X176538096Y-107402381D01*
X176633334Y-107450000D01*
X176680953Y-107497619D01*
X176728572Y-107592857D01*
X176728572Y-107735714D01*
X176680953Y-107830952D01*
X176633334Y-107878571D01*
X176538096Y-107926190D01*
X176157143Y-107926190D01*
X177061905Y-107402381D02*
X177680953Y-107402381D01*
X177347619Y-107783333D01*
X177490477Y-107783333D01*
X177585715Y-107830952D01*
X177633334Y-107878571D01*
X177680953Y-107973810D01*
X177680953Y-108211905D01*
X177633334Y-108307143D01*
X177585715Y-108354762D01*
X177490477Y-108402381D01*
X177204762Y-108402381D01*
X177109524Y-108354762D01*
X177061905Y-108307143D01*
X178061905Y-108116667D02*
X178538096Y-108116667D01*
X177966667Y-108402381D02*
X178300000Y-107402381D01*
X178633334Y-108402381D01*
X179490477Y-108402381D02*
X178919048Y-108402381D01*
X179204762Y-108402381D02*
X179204762Y-107402381D01*
X179109524Y-107545238D01*
X179014286Y-107640476D01*
X178919048Y-107688095D01*
X176157143Y-132532381D02*
X176157143Y-131532381D01*
X176538096Y-131532381D01*
X176633334Y-131580000D01*
X176680953Y-131627619D01*
X176728572Y-131722857D01*
X176728572Y-131865714D01*
X176680953Y-131960952D01*
X176633334Y-132008571D01*
X176538096Y-132056190D01*
X176157143Y-132056190D01*
X177585715Y-131865714D02*
X177585715Y-132532381D01*
X177347619Y-131484762D02*
X177109524Y-132199048D01*
X177728572Y-132199048D01*
X178061905Y-132246667D02*
X178538096Y-132246667D01*
X177966667Y-132532381D02*
X178300000Y-131532381D01*
X178633334Y-132532381D01*
X179490477Y-132532381D02*
X178919048Y-132532381D01*
X179204762Y-132532381D02*
X179204762Y-131532381D01*
X179109524Y-131675238D01*
X179014286Y-131770476D01*
X178919048Y-131818095D01*
X144676905Y-67762381D02*
X144676905Y-66762381D01*
X145057858Y-66762381D01*
X145153096Y-66810000D01*
X145200715Y-66857619D01*
X145248334Y-66952857D01*
X145248334Y-67095714D01*
X145200715Y-67190952D01*
X145153096Y-67238571D01*
X145057858Y-67286190D01*
X144676905Y-67286190D01*
X146153096Y-66762381D02*
X145676905Y-66762381D01*
X145629286Y-67238571D01*
X145676905Y-67190952D01*
X145772143Y-67143333D01*
X146010239Y-67143333D01*
X146105477Y-67190952D01*
X146153096Y-67238571D01*
X146200715Y-67333810D01*
X146200715Y-67571905D01*
X146153096Y-67667143D01*
X146105477Y-67714762D01*
X146010239Y-67762381D01*
X145772143Y-67762381D01*
X145676905Y-67714762D01*
X145629286Y-67667143D01*
X144676905Y-79827381D02*
X144676905Y-78827381D01*
X145057858Y-78827381D01*
X145153096Y-78875000D01*
X145200715Y-78922619D01*
X145248334Y-79017857D01*
X145248334Y-79160714D01*
X145200715Y-79255952D01*
X145153096Y-79303571D01*
X145057858Y-79351190D01*
X144676905Y-79351190D01*
X146105477Y-78827381D02*
X145915000Y-78827381D01*
X145819762Y-78875000D01*
X145772143Y-78922619D01*
X145676905Y-79065476D01*
X145629286Y-79255952D01*
X145629286Y-79636905D01*
X145676905Y-79732143D01*
X145724524Y-79779762D01*
X145819762Y-79827381D01*
X146010239Y-79827381D01*
X146105477Y-79779762D01*
X146153096Y-79732143D01*
X146200715Y-79636905D01*
X146200715Y-79398810D01*
X146153096Y-79303571D01*
X146105477Y-79255952D01*
X146010239Y-79208333D01*
X145819762Y-79208333D01*
X145724524Y-79255952D01*
X145676905Y-79303571D01*
X145629286Y-79398810D01*
X142771905Y-129357381D02*
X142771905Y-128357381D01*
X143152858Y-128357381D01*
X143248096Y-128405000D01*
X143295715Y-128452619D01*
X143343334Y-128547857D01*
X143343334Y-128690714D01*
X143295715Y-128785952D01*
X143248096Y-128833571D01*
X143152858Y-128881190D01*
X142771905Y-128881190D01*
X143676667Y-128357381D02*
X144343334Y-128357381D01*
X143914762Y-129357381D01*
X171283334Y-60777381D02*
X170950000Y-60301190D01*
X170711905Y-60777381D02*
X170711905Y-59777381D01*
X171092858Y-59777381D01*
X171188096Y-59825000D01*
X171235715Y-59872619D01*
X171283334Y-59967857D01*
X171283334Y-60110714D01*
X171235715Y-60205952D01*
X171188096Y-60253571D01*
X171092858Y-60301190D01*
X170711905Y-60301190D01*
X172235715Y-60777381D02*
X171664286Y-60777381D01*
X171950000Y-60777381D02*
X171950000Y-59777381D01*
X171854762Y-59920238D01*
X171759524Y-60015476D01*
X171664286Y-60063095D01*
X171203334Y-84712381D02*
X170870000Y-84236190D01*
X170631905Y-84712381D02*
X170631905Y-83712381D01*
X171012858Y-83712381D01*
X171108096Y-83760000D01*
X171155715Y-83807619D01*
X171203334Y-83902857D01*
X171203334Y-84045714D01*
X171155715Y-84140952D01*
X171108096Y-84188571D01*
X171012858Y-84236190D01*
X170631905Y-84236190D01*
X171679524Y-84712381D02*
X171870000Y-84712381D01*
X171965239Y-84664762D01*
X172012858Y-84617143D01*
X172108096Y-84474286D01*
X172155715Y-84283810D01*
X172155715Y-83902857D01*
X172108096Y-83807619D01*
X172060477Y-83760000D01*
X171965239Y-83712381D01*
X171774762Y-83712381D01*
X171679524Y-83760000D01*
X171631905Y-83807619D01*
X171584286Y-83902857D01*
X171584286Y-84140952D01*
X171631905Y-84236190D01*
X171679524Y-84283810D01*
X171774762Y-84331429D01*
X171965239Y-84331429D01*
X172060477Y-84283810D01*
X172108096Y-84236190D01*
X172155715Y-84140952D01*
X157472143Y-103322381D02*
X157138809Y-102846190D01*
X156900714Y-103322381D02*
X156900714Y-102322381D01*
X157281667Y-102322381D01*
X157376905Y-102370000D01*
X157424524Y-102417619D01*
X157472143Y-102512857D01*
X157472143Y-102655714D01*
X157424524Y-102750952D01*
X157376905Y-102798571D01*
X157281667Y-102846190D01*
X156900714Y-102846190D01*
X158424524Y-103322381D02*
X157853095Y-103322381D01*
X158138809Y-103322381D02*
X158138809Y-102322381D01*
X158043571Y-102465238D01*
X157948333Y-102560476D01*
X157853095Y-102608095D01*
X158757857Y-102322381D02*
X159424524Y-102322381D01*
X158995952Y-103322381D01*
X157472143Y-108402381D02*
X157138809Y-107926190D01*
X156900714Y-108402381D02*
X156900714Y-107402381D01*
X157281667Y-107402381D01*
X157376905Y-107450000D01*
X157424524Y-107497619D01*
X157472143Y-107592857D01*
X157472143Y-107735714D01*
X157424524Y-107830952D01*
X157376905Y-107878571D01*
X157281667Y-107926190D01*
X156900714Y-107926190D01*
X158424524Y-108402381D02*
X157853095Y-108402381D01*
X158138809Y-108402381D02*
X158138809Y-107402381D01*
X158043571Y-107545238D01*
X157948333Y-107640476D01*
X157853095Y-107688095D01*
X158995952Y-107830952D02*
X158900714Y-107783333D01*
X158853095Y-107735714D01*
X158805476Y-107640476D01*
X158805476Y-107592857D01*
X158853095Y-107497619D01*
X158900714Y-107450000D01*
X158995952Y-107402381D01*
X159186429Y-107402381D01*
X159281667Y-107450000D01*
X159329286Y-107497619D01*
X159376905Y-107592857D01*
X159376905Y-107640476D01*
X159329286Y-107735714D01*
X159281667Y-107783333D01*
X159186429Y-107830952D01*
X158995952Y-107830952D01*
X158900714Y-107878571D01*
X158853095Y-107926190D01*
X158805476Y-108021429D01*
X158805476Y-108211905D01*
X158853095Y-108307143D01*
X158900714Y-108354762D01*
X158995952Y-108402381D01*
X159186429Y-108402381D01*
X159281667Y-108354762D01*
X159329286Y-108307143D01*
X159376905Y-108211905D01*
X159376905Y-108021429D01*
X159329286Y-107926190D01*
X159281667Y-107878571D01*
X159186429Y-107830952D01*
X157472143Y-111577381D02*
X157138809Y-111101190D01*
X156900714Y-111577381D02*
X156900714Y-110577381D01*
X157281667Y-110577381D01*
X157376905Y-110625000D01*
X157424524Y-110672619D01*
X157472143Y-110767857D01*
X157472143Y-110910714D01*
X157424524Y-111005952D01*
X157376905Y-111053571D01*
X157281667Y-111101190D01*
X156900714Y-111101190D01*
X158424524Y-111577381D02*
X157853095Y-111577381D01*
X158138809Y-111577381D02*
X158138809Y-110577381D01*
X158043571Y-110720238D01*
X157948333Y-110815476D01*
X157853095Y-110863095D01*
X158900714Y-111577381D02*
X159091190Y-111577381D01*
X159186429Y-111529762D01*
X159234048Y-111482143D01*
X159329286Y-111339286D01*
X159376905Y-111148810D01*
X159376905Y-110767857D01*
X159329286Y-110672619D01*
X159281667Y-110625000D01*
X159186429Y-110577381D01*
X158995952Y-110577381D01*
X158900714Y-110625000D01*
X158853095Y-110672619D01*
X158805476Y-110767857D01*
X158805476Y-111005952D01*
X158853095Y-111101190D01*
X158900714Y-111148810D01*
X158995952Y-111196429D01*
X159186429Y-111196429D01*
X159281667Y-111148810D01*
X159329286Y-111101190D01*
X159376905Y-111005952D01*
X157472143Y-116657381D02*
X157138809Y-116181190D01*
X156900714Y-116657381D02*
X156900714Y-115657381D01*
X157281667Y-115657381D01*
X157376905Y-115705000D01*
X157424524Y-115752619D01*
X157472143Y-115847857D01*
X157472143Y-115990714D01*
X157424524Y-116085952D01*
X157376905Y-116133571D01*
X157281667Y-116181190D01*
X156900714Y-116181190D01*
X157853095Y-115752619D02*
X157900714Y-115705000D01*
X157995952Y-115657381D01*
X158234048Y-115657381D01*
X158329286Y-115705000D01*
X158376905Y-115752619D01*
X158424524Y-115847857D01*
X158424524Y-115943095D01*
X158376905Y-116085952D01*
X157805476Y-116657381D01*
X158424524Y-116657381D01*
X159043571Y-115657381D02*
X159138810Y-115657381D01*
X159234048Y-115705000D01*
X159281667Y-115752619D01*
X159329286Y-115847857D01*
X159376905Y-116038333D01*
X159376905Y-116276429D01*
X159329286Y-116466905D01*
X159281667Y-116562143D01*
X159234048Y-116609762D01*
X159138810Y-116657381D01*
X159043571Y-116657381D01*
X158948333Y-116609762D01*
X158900714Y-116562143D01*
X158853095Y-116466905D01*
X158805476Y-116276429D01*
X158805476Y-116038333D01*
X158853095Y-115847857D01*
X158900714Y-115752619D01*
X158948333Y-115705000D01*
X159043571Y-115657381D01*
X156837143Y-119832381D02*
X156503809Y-119356190D01*
X156265714Y-119832381D02*
X156265714Y-118832381D01*
X156646667Y-118832381D01*
X156741905Y-118880000D01*
X156789524Y-118927619D01*
X156837143Y-119022857D01*
X156837143Y-119165714D01*
X156789524Y-119260952D01*
X156741905Y-119308571D01*
X156646667Y-119356190D01*
X156265714Y-119356190D01*
X157218095Y-118927619D02*
X157265714Y-118880000D01*
X157360952Y-118832381D01*
X157599048Y-118832381D01*
X157694286Y-118880000D01*
X157741905Y-118927619D01*
X157789524Y-119022857D01*
X157789524Y-119118095D01*
X157741905Y-119260952D01*
X157170476Y-119832381D01*
X157789524Y-119832381D01*
X158741905Y-119832381D02*
X158170476Y-119832381D01*
X158456190Y-119832381D02*
X158456190Y-118832381D01*
X158360952Y-118975238D01*
X158265714Y-119070476D01*
X158170476Y-119118095D01*
X157472143Y-124912381D02*
X157138809Y-124436190D01*
X156900714Y-124912381D02*
X156900714Y-123912381D01*
X157281667Y-123912381D01*
X157376905Y-123960000D01*
X157424524Y-124007619D01*
X157472143Y-124102857D01*
X157472143Y-124245714D01*
X157424524Y-124340952D01*
X157376905Y-124388571D01*
X157281667Y-124436190D01*
X156900714Y-124436190D01*
X157853095Y-124007619D02*
X157900714Y-123960000D01*
X157995952Y-123912381D01*
X158234048Y-123912381D01*
X158329286Y-123960000D01*
X158376905Y-124007619D01*
X158424524Y-124102857D01*
X158424524Y-124198095D01*
X158376905Y-124340952D01*
X157805476Y-124912381D01*
X158424524Y-124912381D01*
X158805476Y-124007619D02*
X158853095Y-123960000D01*
X158948333Y-123912381D01*
X159186429Y-123912381D01*
X159281667Y-123960000D01*
X159329286Y-124007619D01*
X159376905Y-124102857D01*
X159376905Y-124198095D01*
X159329286Y-124340952D01*
X158757857Y-124912381D01*
X159376905Y-124912381D01*
X163822143Y-148407381D02*
X163488809Y-147931190D01*
X163250714Y-148407381D02*
X163250714Y-147407381D01*
X163631667Y-147407381D01*
X163726905Y-147455000D01*
X163774524Y-147502619D01*
X163822143Y-147597857D01*
X163822143Y-147740714D01*
X163774524Y-147835952D01*
X163726905Y-147883571D01*
X163631667Y-147931190D01*
X163250714Y-147931190D01*
X164203095Y-147502619D02*
X164250714Y-147455000D01*
X164345952Y-147407381D01*
X164584048Y-147407381D01*
X164679286Y-147455000D01*
X164726905Y-147502619D01*
X164774524Y-147597857D01*
X164774524Y-147693095D01*
X164726905Y-147835952D01*
X164155476Y-148407381D01*
X164774524Y-148407381D01*
X165107857Y-147407381D02*
X165726905Y-147407381D01*
X165393571Y-147788333D01*
X165536429Y-147788333D01*
X165631667Y-147835952D01*
X165679286Y-147883571D01*
X165726905Y-147978810D01*
X165726905Y-148216905D01*
X165679286Y-148312143D01*
X165631667Y-148359762D01*
X165536429Y-148407381D01*
X165250714Y-148407381D01*
X165155476Y-148359762D01*
X165107857Y-148312143D01*
X163822143Y-150947381D02*
X163488809Y-150471190D01*
X163250714Y-150947381D02*
X163250714Y-149947381D01*
X163631667Y-149947381D01*
X163726905Y-149995000D01*
X163774524Y-150042619D01*
X163822143Y-150137857D01*
X163822143Y-150280714D01*
X163774524Y-150375952D01*
X163726905Y-150423571D01*
X163631667Y-150471190D01*
X163250714Y-150471190D01*
X164203095Y-150042619D02*
X164250714Y-149995000D01*
X164345952Y-149947381D01*
X164584048Y-149947381D01*
X164679286Y-149995000D01*
X164726905Y-150042619D01*
X164774524Y-150137857D01*
X164774524Y-150233095D01*
X164726905Y-150375952D01*
X164155476Y-150947381D01*
X164774524Y-150947381D01*
X165631667Y-150280714D02*
X165631667Y-150947381D01*
X165393571Y-149899762D02*
X165155476Y-150614048D01*
X165774524Y-150614048D01*
X170887143Y-108842381D02*
X170553809Y-108366190D01*
X170315714Y-108842381D02*
X170315714Y-107842381D01*
X170696667Y-107842381D01*
X170791905Y-107890000D01*
X170839524Y-107937619D01*
X170887143Y-108032857D01*
X170887143Y-108175714D01*
X170839524Y-108270952D01*
X170791905Y-108318571D01*
X170696667Y-108366190D01*
X170315714Y-108366190D01*
X171268095Y-107937619D02*
X171315714Y-107890000D01*
X171410952Y-107842381D01*
X171649048Y-107842381D01*
X171744286Y-107890000D01*
X171791905Y-107937619D01*
X171839524Y-108032857D01*
X171839524Y-108128095D01*
X171791905Y-108270952D01*
X171220476Y-108842381D01*
X171839524Y-108842381D01*
X172744286Y-107842381D02*
X172268095Y-107842381D01*
X172220476Y-108318571D01*
X172268095Y-108270952D01*
X172363333Y-108223333D01*
X172601429Y-108223333D01*
X172696667Y-108270952D01*
X172744286Y-108318571D01*
X172791905Y-108413810D01*
X172791905Y-108651905D01*
X172744286Y-108747143D01*
X172696667Y-108794762D01*
X172601429Y-108842381D01*
X172363333Y-108842381D01*
X172268095Y-108794762D01*
X172220476Y-108747143D01*
X170887143Y-132972381D02*
X170553809Y-132496190D01*
X170315714Y-132972381D02*
X170315714Y-131972381D01*
X170696667Y-131972381D01*
X170791905Y-132020000D01*
X170839524Y-132067619D01*
X170887143Y-132162857D01*
X170887143Y-132305714D01*
X170839524Y-132400952D01*
X170791905Y-132448571D01*
X170696667Y-132496190D01*
X170315714Y-132496190D01*
X171220476Y-131972381D02*
X171839524Y-131972381D01*
X171506190Y-132353333D01*
X171649048Y-132353333D01*
X171744286Y-132400952D01*
X171791905Y-132448571D01*
X171839524Y-132543810D01*
X171839524Y-132781905D01*
X171791905Y-132877143D01*
X171744286Y-132924762D01*
X171649048Y-132972381D01*
X171363333Y-132972381D01*
X171268095Y-132924762D01*
X171220476Y-132877143D01*
X172172857Y-131972381D02*
X172791905Y-131972381D01*
X172458571Y-132353333D01*
X172601429Y-132353333D01*
X172696667Y-132400952D01*
X172744286Y-132448571D01*
X172791905Y-132543810D01*
X172791905Y-132781905D01*
X172744286Y-132877143D01*
X172696667Y-132924762D01*
X172601429Y-132972381D01*
X172315714Y-132972381D01*
X172220476Y-132924762D01*
X172172857Y-132877143D01*
X166997143Y-147772381D02*
X166663809Y-147296190D01*
X166425714Y-147772381D02*
X166425714Y-146772381D01*
X166806667Y-146772381D01*
X166901905Y-146820000D01*
X166949524Y-146867619D01*
X166997143Y-146962857D01*
X166997143Y-147105714D01*
X166949524Y-147200952D01*
X166901905Y-147248571D01*
X166806667Y-147296190D01*
X166425714Y-147296190D01*
X167330476Y-146772381D02*
X167949524Y-146772381D01*
X167616190Y-147153333D01*
X167759048Y-147153333D01*
X167854286Y-147200952D01*
X167901905Y-147248571D01*
X167949524Y-147343810D01*
X167949524Y-147581905D01*
X167901905Y-147677143D01*
X167854286Y-147724762D01*
X167759048Y-147772381D01*
X167473333Y-147772381D01*
X167378095Y-147724762D01*
X167330476Y-147677143D01*
X168520952Y-147200952D02*
X168425714Y-147153333D01*
X168378095Y-147105714D01*
X168330476Y-147010476D01*
X168330476Y-146962857D01*
X168378095Y-146867619D01*
X168425714Y-146820000D01*
X168520952Y-146772381D01*
X168711429Y-146772381D01*
X168806667Y-146820000D01*
X168854286Y-146867619D01*
X168901905Y-146962857D01*
X168901905Y-147010476D01*
X168854286Y-147105714D01*
X168806667Y-147153333D01*
X168711429Y-147200952D01*
X168520952Y-147200952D01*
X168425714Y-147248571D01*
X168378095Y-147296190D01*
X168330476Y-147391429D01*
X168330476Y-147581905D01*
X168378095Y-147677143D01*
X168425714Y-147724762D01*
X168520952Y-147772381D01*
X168711429Y-147772381D01*
X168806667Y-147724762D01*
X168854286Y-147677143D01*
X168901905Y-147581905D01*
X168901905Y-147391429D01*
X168854286Y-147296190D01*
X168806667Y-147248571D01*
X168711429Y-147200952D01*
X166997143Y-150312381D02*
X166663809Y-149836190D01*
X166425714Y-150312381D02*
X166425714Y-149312381D01*
X166806667Y-149312381D01*
X166901905Y-149360000D01*
X166949524Y-149407619D01*
X166997143Y-149502857D01*
X166997143Y-149645714D01*
X166949524Y-149740952D01*
X166901905Y-149788571D01*
X166806667Y-149836190D01*
X166425714Y-149836190D01*
X167330476Y-149312381D02*
X167949524Y-149312381D01*
X167616190Y-149693333D01*
X167759048Y-149693333D01*
X167854286Y-149740952D01*
X167901905Y-149788571D01*
X167949524Y-149883810D01*
X167949524Y-150121905D01*
X167901905Y-150217143D01*
X167854286Y-150264762D01*
X167759048Y-150312381D01*
X167473333Y-150312381D01*
X167378095Y-150264762D01*
X167330476Y-150217143D01*
X168425714Y-150312381D02*
X168616190Y-150312381D01*
X168711429Y-150264762D01*
X168759048Y-150217143D01*
X168854286Y-150074286D01*
X168901905Y-149883810D01*
X168901905Y-149502857D01*
X168854286Y-149407619D01*
X168806667Y-149360000D01*
X168711429Y-149312381D01*
X168520952Y-149312381D01*
X168425714Y-149360000D01*
X168378095Y-149407619D01*
X168330476Y-149502857D01*
X168330476Y-149740952D01*
X168378095Y-149836190D01*
X168425714Y-149883810D01*
X168520952Y-149931429D01*
X168711429Y-149931429D01*
X168806667Y-149883810D01*
X168854286Y-149836190D01*
X168901905Y-149740952D01*
X166997143Y-152852381D02*
X166663809Y-152376190D01*
X166425714Y-152852381D02*
X166425714Y-151852381D01*
X166806667Y-151852381D01*
X166901905Y-151900000D01*
X166949524Y-151947619D01*
X166997143Y-152042857D01*
X166997143Y-152185714D01*
X166949524Y-152280952D01*
X166901905Y-152328571D01*
X166806667Y-152376190D01*
X166425714Y-152376190D01*
X167854286Y-152185714D02*
X167854286Y-152852381D01*
X167616190Y-151804762D02*
X167378095Y-152519048D01*
X167997143Y-152519048D01*
X168568571Y-151852381D02*
X168663810Y-151852381D01*
X168759048Y-151900000D01*
X168806667Y-151947619D01*
X168854286Y-152042857D01*
X168901905Y-152233333D01*
X168901905Y-152471429D01*
X168854286Y-152661905D01*
X168806667Y-152757143D01*
X168759048Y-152804762D01*
X168663810Y-152852381D01*
X168568571Y-152852381D01*
X168473333Y-152804762D01*
X168425714Y-152757143D01*
X168378095Y-152661905D01*
X168330476Y-152471429D01*
X168330476Y-152233333D01*
X168378095Y-152042857D01*
X168425714Y-151947619D01*
X168473333Y-151900000D01*
X168568571Y-151852381D01*
X160647143Y-83002381D02*
X160313809Y-82526190D01*
X160075714Y-83002381D02*
X160075714Y-82002381D01*
X160456667Y-82002381D01*
X160551905Y-82050000D01*
X160599524Y-82097619D01*
X160647143Y-82192857D01*
X160647143Y-82335714D01*
X160599524Y-82430952D01*
X160551905Y-82478571D01*
X160456667Y-82526190D01*
X160075714Y-82526190D01*
X161504286Y-82335714D02*
X161504286Y-83002381D01*
X161266190Y-81954762D02*
X161028095Y-82669048D01*
X161647143Y-82669048D01*
X162551905Y-83002381D02*
X161980476Y-83002381D01*
X162266190Y-83002381D02*
X162266190Y-82002381D01*
X162170952Y-82145238D01*
X162075714Y-82240476D01*
X161980476Y-82288095D01*
X142976667Y-104724762D02*
X143119524Y-104772381D01*
X143357620Y-104772381D01*
X143452858Y-104724762D01*
X143500477Y-104677143D01*
X143548096Y-104581905D01*
X143548096Y-104486667D01*
X143500477Y-104391429D01*
X143452858Y-104343810D01*
X143357620Y-104296190D01*
X143167143Y-104248571D01*
X143071905Y-104200952D01*
X143024286Y-104153333D01*
X142976667Y-104058095D01*
X142976667Y-103962857D01*
X143024286Y-103867619D01*
X143071905Y-103820000D01*
X143167143Y-103772381D01*
X143405239Y-103772381D01*
X143548096Y-103820000D01*
X143881429Y-103772381D02*
X144119524Y-104772381D01*
X144310001Y-104058095D01*
X144500477Y-104772381D01*
X144738572Y-103772381D01*
X145643334Y-104772381D02*
X145071905Y-104772381D01*
X145357619Y-104772381D02*
X145357619Y-103772381D01*
X145262381Y-103915238D01*
X145167143Y-104010476D01*
X145071905Y-104058095D01*
X142976667Y-112979762D02*
X143119524Y-113027381D01*
X143357620Y-113027381D01*
X143452858Y-112979762D01*
X143500477Y-112932143D01*
X143548096Y-112836905D01*
X143548096Y-112741667D01*
X143500477Y-112646429D01*
X143452858Y-112598810D01*
X143357620Y-112551190D01*
X143167143Y-112503571D01*
X143071905Y-112455952D01*
X143024286Y-112408333D01*
X142976667Y-112313095D01*
X142976667Y-112217857D01*
X143024286Y-112122619D01*
X143071905Y-112075000D01*
X143167143Y-112027381D01*
X143405239Y-112027381D01*
X143548096Y-112075000D01*
X143881429Y-112027381D02*
X144119524Y-113027381D01*
X144310001Y-112313095D01*
X144500477Y-113027381D01*
X144738572Y-112027381D01*
X145071905Y-112122619D02*
X145119524Y-112075000D01*
X145214762Y-112027381D01*
X145452858Y-112027381D01*
X145548096Y-112075000D01*
X145595715Y-112122619D01*
X145643334Y-112217857D01*
X145643334Y-112313095D01*
X145595715Y-112455952D01*
X145024286Y-113027381D01*
X145643334Y-113027381D01*
X142976667Y-121234762D02*
X143119524Y-121282381D01*
X143357620Y-121282381D01*
X143452858Y-121234762D01*
X143500477Y-121187143D01*
X143548096Y-121091905D01*
X143548096Y-120996667D01*
X143500477Y-120901429D01*
X143452858Y-120853810D01*
X143357620Y-120806190D01*
X143167143Y-120758571D01*
X143071905Y-120710952D01*
X143024286Y-120663333D01*
X142976667Y-120568095D01*
X142976667Y-120472857D01*
X143024286Y-120377619D01*
X143071905Y-120330000D01*
X143167143Y-120282381D01*
X143405239Y-120282381D01*
X143548096Y-120330000D01*
X143881429Y-120282381D02*
X144119524Y-121282381D01*
X144310001Y-120568095D01*
X144500477Y-121282381D01*
X144738572Y-120282381D01*
X145024286Y-120282381D02*
X145643334Y-120282381D01*
X145310000Y-120663333D01*
X145452858Y-120663333D01*
X145548096Y-120710952D01*
X145595715Y-120758571D01*
X145643334Y-120853810D01*
X145643334Y-121091905D01*
X145595715Y-121187143D01*
X145548096Y-121234762D01*
X145452858Y-121282381D01*
X145167143Y-121282381D01*
X145071905Y-121234762D01*
X145024286Y-121187143D01*
X160528095Y-61397381D02*
X160528095Y-62206905D01*
X160575714Y-62302143D01*
X160623333Y-62349762D01*
X160718571Y-62397381D01*
X160909048Y-62397381D01*
X161004286Y-62349762D01*
X161051905Y-62302143D01*
X161099524Y-62206905D01*
X161099524Y-61397381D01*
X161528095Y-61492619D02*
X161575714Y-61445000D01*
X161670952Y-61397381D01*
X161909048Y-61397381D01*
X162004286Y-61445000D01*
X162051905Y-61492619D01*
X162099524Y-61587857D01*
X162099524Y-61683095D01*
X162051905Y-61825952D01*
X161480476Y-62397381D01*
X162099524Y-62397381D01*
X159258095Y-85527381D02*
X159258095Y-86336905D01*
X159305714Y-86432143D01*
X159353333Y-86479762D01*
X159448571Y-86527381D01*
X159639048Y-86527381D01*
X159734286Y-86479762D01*
X159781905Y-86432143D01*
X159829524Y-86336905D01*
X159829524Y-85527381D01*
X160210476Y-85527381D02*
X160829524Y-85527381D01*
X160496190Y-85908333D01*
X160639048Y-85908333D01*
X160734286Y-85955952D01*
X160781905Y-86003571D01*
X160829524Y-86098810D01*
X160829524Y-86336905D01*
X160781905Y-86432143D01*
X160734286Y-86479762D01*
X160639048Y-86527381D01*
X160353333Y-86527381D01*
X160258095Y-86479762D01*
X160210476Y-86432143D01*
X162908095Y-109657381D02*
X162908095Y-110466905D01*
X162955714Y-110562143D01*
X163003333Y-110609762D01*
X163098571Y-110657381D01*
X163289048Y-110657381D01*
X163384286Y-110609762D01*
X163431905Y-110562143D01*
X163479524Y-110466905D01*
X163479524Y-109657381D01*
X164384286Y-109990714D02*
X164384286Y-110657381D01*
X164146190Y-109609762D02*
X163908095Y-110324048D01*
X164527143Y-110324048D01*
X159258095Y-133787381D02*
X159258095Y-134596905D01*
X159305714Y-134692143D01*
X159353333Y-134739762D01*
X159448571Y-134787381D01*
X159639048Y-134787381D01*
X159734286Y-134739762D01*
X159781905Y-134692143D01*
X159829524Y-134596905D01*
X159829524Y-133787381D01*
X160781905Y-133787381D02*
X160305714Y-133787381D01*
X160258095Y-134263571D01*
X160305714Y-134215952D01*
X160400952Y-134168333D01*
X160639048Y-134168333D01*
X160734286Y-134215952D01*
X160781905Y-134263571D01*
X160829524Y-134358810D01*
X160829524Y-134596905D01*
X160781905Y-134692143D01*
X160734286Y-134739762D01*
X160639048Y-134787381D01*
X160400952Y-134787381D01*
X160305714Y-134739762D01*
X160258095Y-134692143D01*
X150709476Y-87590381D02*
X151042809Y-88590381D01*
X151376143Y-87590381D01*
X152280905Y-88590381D02*
X151947571Y-88114190D01*
X151709476Y-88590381D02*
X151709476Y-87590381D01*
X152090429Y-87590381D01*
X152185667Y-87638000D01*
X152233286Y-87685619D01*
X152280905Y-87780857D01*
X152280905Y-87923714D01*
X152233286Y-88018952D01*
X152185667Y-88066571D01*
X152090429Y-88114190D01*
X151709476Y-88114190D01*
X153233286Y-88590381D02*
X152661857Y-88590381D01*
X152947571Y-88590381D02*
X152947571Y-87590381D01*
X152852333Y-87733238D01*
X152757095Y-87828476D01*
X152661857Y-87876095D01*
X147193095Y-124547381D02*
X147193095Y-125356905D01*
X147240714Y-125452143D01*
X147288333Y-125499762D01*
X147383571Y-125547381D01*
X147574048Y-125547381D01*
X147669286Y-125499762D01*
X147716905Y-125452143D01*
X147764524Y-125356905D01*
X147764524Y-124547381D01*
X148764524Y-125547381D02*
X148193095Y-125547381D01*
X148478809Y-125547381D02*
X148478809Y-124547381D01*
X148383571Y-124690238D01*
X148288333Y-124785476D01*
X148193095Y-124833095D01*
%LPC*%
D13*
X152400000Y-67945000D03*
X152400000Y-62865000D03*
X149225000Y-98425000D03*
X146685000Y-98425000D03*
D14*
X154940000Y-97790000D03*
X152440000Y-97790000D03*
D15*
X139700000Y-134620000D03*
X139700000Y-137120000D03*
D16*
X155239720Y-105410000D03*
X152400000Y-105410000D03*
X155239720Y-113665000D03*
X152400000Y-113665000D03*
X155239720Y-121920000D03*
X152400000Y-121920000D03*
D17*
X139065000Y-98425000D03*
X143865600Y-98425000D03*
D18*
X177800000Y-62230000D03*
D19*
X177800000Y-64770000D03*
X177800000Y-67310000D03*
X177800000Y-69850000D03*
X177800000Y-72390000D03*
X177800000Y-74930000D03*
X177800000Y-77470000D03*
X177800000Y-80010000D03*
D18*
X180340000Y-62230000D03*
D19*
X180340000Y-64770000D03*
X180340000Y-67310000D03*
X180340000Y-69850000D03*
X180340000Y-72390000D03*
X180340000Y-74930000D03*
X180340000Y-77470000D03*
X180340000Y-80010000D03*
D18*
X182880000Y-62230000D03*
D19*
X182880000Y-64770000D03*
X182880000Y-67310000D03*
X182880000Y-69850000D03*
X182880000Y-72390000D03*
X182880000Y-74930000D03*
X182880000Y-77470000D03*
X182880000Y-80010000D03*
D18*
X177800000Y-86360000D03*
D19*
X177800000Y-88900000D03*
X177800000Y-91440000D03*
X177800000Y-93980000D03*
X177800000Y-96520000D03*
X177800000Y-99060000D03*
X177800000Y-101600000D03*
X177800000Y-104140000D03*
D18*
X180340000Y-86360000D03*
D19*
X180340000Y-88900000D03*
X180340000Y-91440000D03*
X180340000Y-93980000D03*
X180340000Y-96520000D03*
X180340000Y-99060000D03*
X180340000Y-101600000D03*
X180340000Y-104140000D03*
D18*
X182880000Y-86360000D03*
D19*
X182880000Y-88900000D03*
X182880000Y-91440000D03*
X182880000Y-93980000D03*
X182880000Y-96520000D03*
X182880000Y-99060000D03*
X182880000Y-101600000D03*
X182880000Y-104140000D03*
D18*
X177800000Y-110490000D03*
D19*
X177800000Y-113030000D03*
X177800000Y-115570000D03*
X177800000Y-118110000D03*
X177800000Y-120650000D03*
X177800000Y-123190000D03*
X177800000Y-125730000D03*
X177800000Y-128270000D03*
D18*
X180340000Y-110490000D03*
D19*
X180340000Y-113030000D03*
X180340000Y-115570000D03*
X180340000Y-118110000D03*
X180340000Y-120650000D03*
X180340000Y-123190000D03*
X180340000Y-125730000D03*
X180340000Y-128270000D03*
D18*
X182880000Y-110490000D03*
D19*
X182880000Y-113030000D03*
X182880000Y-115570000D03*
X182880000Y-118110000D03*
X182880000Y-120650000D03*
X182880000Y-123190000D03*
X182880000Y-125730000D03*
X182880000Y-128270000D03*
D18*
X177800000Y-134620000D03*
D19*
X177800000Y-137160000D03*
X177800000Y-139700000D03*
X177800000Y-142240000D03*
X177800000Y-144780000D03*
X177800000Y-147320000D03*
X177800000Y-149860000D03*
X177800000Y-152400000D03*
D18*
X180340000Y-134620000D03*
D19*
X180340000Y-137160000D03*
X180340000Y-139700000D03*
X180340000Y-142240000D03*
X180340000Y-144780000D03*
X180340000Y-147320000D03*
X180340000Y-149860000D03*
X180340000Y-152400000D03*
D18*
X182880000Y-134620000D03*
D19*
X182880000Y-137160000D03*
X182880000Y-139700000D03*
X182880000Y-142240000D03*
X182880000Y-144780000D03*
X182880000Y-147320000D03*
X182880000Y-149860000D03*
X182880000Y-152400000D03*
D20*
X140970000Y-70485000D03*
D21*
X140970000Y-75565000D03*
D20*
X140970000Y-82550000D03*
D21*
X140970000Y-87630000D03*
X140970000Y-92710000D03*
D18*
X143510000Y-132080000D03*
D19*
X143510000Y-134620000D03*
X143510000Y-137160000D03*
X143510000Y-139700000D03*
X143510000Y-142240000D03*
D22*
X170020000Y-62230000D03*
X172720000Y-62230000D03*
X170020000Y-64770000D03*
X172720000Y-64770000D03*
X170020000Y-67310000D03*
X172720000Y-67310000D03*
X170020000Y-69850000D03*
X172720000Y-69850000D03*
X170020000Y-72390000D03*
X172720000Y-72390000D03*
X170020000Y-74930000D03*
X172720000Y-74930000D03*
X170020000Y-77470000D03*
X172720000Y-77470000D03*
X170020000Y-80010000D03*
X172720000Y-80010000D03*
X170020000Y-86360000D03*
X172720000Y-86360000D03*
X170020000Y-88900000D03*
X172720000Y-88900000D03*
X170180000Y-91440000D03*
X172880000Y-91440000D03*
X170180000Y-93980000D03*
X172880000Y-93980000D03*
X170100000Y-96520000D03*
X172800000Y-96520000D03*
X170100000Y-99060000D03*
X172800000Y-99060000D03*
X170100000Y-101600000D03*
X172800000Y-101600000D03*
X170100000Y-104140000D03*
X172800000Y-104140000D03*
X152400000Y-102870000D03*
X155100000Y-102870000D03*
X155100000Y-107950000D03*
X152400000Y-107950000D03*
X152400000Y-111125000D03*
X155100000Y-111125000D03*
X155100000Y-116205000D03*
X152400000Y-116205000D03*
X152400000Y-119380000D03*
X155100000Y-119380000D03*
X155100000Y-124460000D03*
X152400000Y-124460000D03*
X162085000Y-147955000D03*
X159385000Y-147955000D03*
X162085000Y-150495000D03*
X159385000Y-150495000D03*
X170180000Y-110490000D03*
X172880000Y-110490000D03*
X170180000Y-113030000D03*
X172880000Y-113030000D03*
X170180000Y-115570000D03*
X172880000Y-115570000D03*
X170100000Y-118110000D03*
X172800000Y-118110000D03*
X170180000Y-120650000D03*
X172880000Y-120650000D03*
X170180000Y-123190000D03*
X172880000Y-123190000D03*
X170100000Y-125730000D03*
X172800000Y-125730000D03*
X170180000Y-128270000D03*
X172880000Y-128270000D03*
X170180000Y-134620000D03*
X172880000Y-134620000D03*
X170180000Y-137160000D03*
X172880000Y-137160000D03*
X170180000Y-139700000D03*
X172880000Y-139700000D03*
X170180000Y-142240000D03*
X172880000Y-142240000D03*
X170180000Y-144780000D03*
X172880000Y-144780000D03*
X170180000Y-147320000D03*
X172880000Y-147320000D03*
X170180000Y-149860000D03*
X172880000Y-149860000D03*
X170180000Y-152400000D03*
X172880000Y-152400000D03*
X163670000Y-82550000D03*
X166370000Y-82550000D03*
D23*
X140335000Y-107370000D03*
X140335000Y-102870000D03*
X148285000Y-102870000D03*
X148285000Y-107370000D03*
X140335000Y-115625000D03*
X140335000Y-111125000D03*
X148285000Y-111125000D03*
X148285000Y-115625000D03*
X140335000Y-123880000D03*
X140335000Y-119380000D03*
X148285000Y-119380000D03*
X148285000Y-123880000D03*
D24*
X160970000Y-63500000D03*
X160970000Y-64770000D03*
X160970000Y-66040000D03*
X160970000Y-67310000D03*
X160970000Y-68580000D03*
X160970000Y-69850000D03*
X160970000Y-71120000D03*
X160970000Y-72390000D03*
X166370000Y-72390000D03*
X166370000Y-71120000D03*
X166370000Y-69850000D03*
X166370000Y-68580000D03*
X166370000Y-67310000D03*
X166370000Y-66040000D03*
X166370000Y-64770000D03*
X166370000Y-63500000D03*
X160970000Y-87630000D03*
X160970000Y-88900000D03*
X160970000Y-90170000D03*
X160970000Y-91440000D03*
X160970000Y-92710000D03*
X160970000Y-93980000D03*
X160970000Y-95250000D03*
X160970000Y-96520000D03*
X166370000Y-96520000D03*
X166370000Y-95250000D03*
X166370000Y-93980000D03*
X166370000Y-92710000D03*
X166370000Y-91440000D03*
X166370000Y-90170000D03*
X166370000Y-88900000D03*
X166370000Y-87630000D03*
X160970000Y-111760000D03*
X160970000Y-113030000D03*
X160970000Y-114300000D03*
X160970000Y-115570000D03*
X160970000Y-116840000D03*
X160970000Y-118110000D03*
X160970000Y-119380000D03*
X160970000Y-120650000D03*
X166370000Y-120650000D03*
X166370000Y-119380000D03*
X166370000Y-118110000D03*
X166370000Y-116840000D03*
X166370000Y-115570000D03*
X166370000Y-114300000D03*
X166370000Y-113030000D03*
X166370000Y-111760000D03*
X160970000Y-135890000D03*
X160970000Y-137160000D03*
X160970000Y-138430000D03*
X160970000Y-139700000D03*
X160970000Y-140970000D03*
X160970000Y-142240000D03*
X160970000Y-143510000D03*
X160970000Y-144780000D03*
X166370000Y-144780000D03*
X166370000Y-143510000D03*
X166370000Y-142240000D03*
X166370000Y-140970000D03*
X166370000Y-139700000D03*
X166370000Y-138430000D03*
X166370000Y-137160000D03*
X166370000Y-135890000D03*
D25*
X152019000Y-94107000D03*
D26*
X152019000Y-83312000D03*
D25*
X154559000Y-94107000D03*
X149479000Y-94107000D03*
D27*
X147955000Y-128905000D03*
X147955000Y-131445000D03*
X147955000Y-133985000D03*
X147955000Y-136525000D03*
X147955000Y-139065000D03*
X147955000Y-141605000D03*
X147955000Y-144145000D03*
X147955000Y-146685000D03*
X147955000Y-149225000D03*
X155575000Y-149225000D03*
X155575000Y-146685000D03*
X155575000Y-144145000D03*
X155575000Y-141605000D03*
X155575000Y-139065000D03*
X155575000Y-136525000D03*
X155575000Y-133985000D03*
X155575000Y-131445000D03*
X155575000Y-128905000D03*
D14*
X166370000Y-133350000D03*
X163870000Y-133350000D03*
X166370000Y-85090000D03*
X163870000Y-85090000D03*
M02*
