G04 #@! TF.FileFunction,Copper,L1,Top,Signal*
%FSLAX46Y46*%
G04 Gerber Fmt 4.6, Leading zero omitted, Abs format (unit mm)*
G04 Created by KiCad (PCBNEW (2015-10-14 BZR 6269)-product) date Thursday, October 22, 2015 'PMt' 03:29:46 PM*
%MOMM*%
G01*
G04 APERTURE LIST*
%ADD10C,0.100000*%
%ADD11C,0.150000*%
%ADD12C,1.501140*%
%ADD13R,1.500000X1.250000*%
%ADD14R,1.250000X1.500000*%
%ADD15R,1.597660X1.800860*%
%ADD16R,1.800860X2.700020*%
%ADD17R,2.032000X1.727200*%
%ADD18O,2.032000X1.727200*%
%ADD19R,2.540000X2.540000*%
%ADD20C,2.540000*%
%ADD21R,1.500000X1.300000*%
%ADD22R,1.550000X1.300000*%
%ADD23R,1.500000X0.600000*%
%ADD24R,1.143000X2.286000*%
%ADD25R,10.800080X6.997700*%
%ADD26O,2.300000X1.600000*%
%ADD27C,0.889000*%
%ADD28C,0.635000*%
%ADD29C,1.270000*%
%ADD30C,2.032000*%
%ADD31C,0.304800*%
%ADD32C,0.254000*%
G04 APERTURE END LIST*
D10*
D11*
X146888200Y-96901000D02*
X147955000Y-96901000D01*
X147447000Y-96393000D02*
X147447000Y-97434400D01*
D12*
X152400000Y-67945000D03*
X152400000Y-62865000D03*
X149225000Y-98425000D03*
X146685000Y-98425000D03*
D13*
X154940000Y-97790000D03*
X152440000Y-97790000D03*
D14*
X139700000Y-134620000D03*
X139700000Y-137120000D03*
D15*
X155239720Y-105410000D03*
X152400000Y-105410000D03*
X155239720Y-113665000D03*
X152400000Y-113665000D03*
X155239720Y-121920000D03*
X152400000Y-121920000D03*
D16*
X139065000Y-98425000D03*
X143865600Y-98425000D03*
D17*
X177800000Y-62230000D03*
D18*
X177800000Y-64770000D03*
X177800000Y-67310000D03*
X177800000Y-69850000D03*
X177800000Y-72390000D03*
X177800000Y-74930000D03*
X177800000Y-77470000D03*
X177800000Y-80010000D03*
D17*
X180340000Y-62230000D03*
D18*
X180340000Y-64770000D03*
X180340000Y-67310000D03*
X180340000Y-69850000D03*
X180340000Y-72390000D03*
X180340000Y-74930000D03*
X180340000Y-77470000D03*
X180340000Y-80010000D03*
D17*
X182880000Y-62230000D03*
D18*
X182880000Y-64770000D03*
X182880000Y-67310000D03*
X182880000Y-69850000D03*
X182880000Y-72390000D03*
X182880000Y-74930000D03*
X182880000Y-77470000D03*
X182880000Y-80010000D03*
D17*
X177800000Y-86360000D03*
D18*
X177800000Y-88900000D03*
X177800000Y-91440000D03*
X177800000Y-93980000D03*
X177800000Y-96520000D03*
X177800000Y-99060000D03*
X177800000Y-101600000D03*
X177800000Y-104140000D03*
D17*
X180340000Y-86360000D03*
D18*
X180340000Y-88900000D03*
X180340000Y-91440000D03*
X180340000Y-93980000D03*
X180340000Y-96520000D03*
X180340000Y-99060000D03*
X180340000Y-101600000D03*
X180340000Y-104140000D03*
D17*
X182880000Y-86360000D03*
D18*
X182880000Y-88900000D03*
X182880000Y-91440000D03*
X182880000Y-93980000D03*
X182880000Y-96520000D03*
X182880000Y-99060000D03*
X182880000Y-101600000D03*
X182880000Y-104140000D03*
D17*
X177800000Y-110490000D03*
D18*
X177800000Y-113030000D03*
X177800000Y-115570000D03*
X177800000Y-118110000D03*
X177800000Y-120650000D03*
X177800000Y-123190000D03*
X177800000Y-125730000D03*
X177800000Y-128270000D03*
D17*
X180340000Y-110490000D03*
D18*
X180340000Y-113030000D03*
X180340000Y-115570000D03*
X180340000Y-118110000D03*
X180340000Y-120650000D03*
X180340000Y-123190000D03*
X180340000Y-125730000D03*
X180340000Y-128270000D03*
D17*
X182880000Y-110490000D03*
D18*
X182880000Y-113030000D03*
X182880000Y-115570000D03*
X182880000Y-118110000D03*
X182880000Y-120650000D03*
X182880000Y-123190000D03*
X182880000Y-125730000D03*
X182880000Y-128270000D03*
D17*
X177800000Y-134620000D03*
D18*
X177800000Y-137160000D03*
X177800000Y-139700000D03*
X177800000Y-142240000D03*
X177800000Y-144780000D03*
X177800000Y-147320000D03*
X177800000Y-149860000D03*
X177800000Y-152400000D03*
D17*
X180340000Y-134620000D03*
D18*
X180340000Y-137160000D03*
X180340000Y-139700000D03*
X180340000Y-142240000D03*
X180340000Y-144780000D03*
X180340000Y-147320000D03*
X180340000Y-149860000D03*
X180340000Y-152400000D03*
D17*
X182880000Y-134620000D03*
D18*
X182880000Y-137160000D03*
X182880000Y-139700000D03*
X182880000Y-142240000D03*
X182880000Y-144780000D03*
X182880000Y-147320000D03*
X182880000Y-149860000D03*
X182880000Y-152400000D03*
D19*
X140970000Y-70485000D03*
D20*
X140970000Y-75565000D03*
D19*
X140970000Y-82550000D03*
D20*
X140970000Y-87630000D03*
X140970000Y-92710000D03*
D17*
X143510000Y-132080000D03*
D18*
X143510000Y-134620000D03*
X143510000Y-137160000D03*
X143510000Y-139700000D03*
X143510000Y-142240000D03*
D21*
X170020000Y-62230000D03*
X172720000Y-62230000D03*
X170020000Y-64770000D03*
X172720000Y-64770000D03*
X170020000Y-67310000D03*
X172720000Y-67310000D03*
X170020000Y-69850000D03*
X172720000Y-69850000D03*
X170020000Y-72390000D03*
X172720000Y-72390000D03*
X170020000Y-74930000D03*
X172720000Y-74930000D03*
X170020000Y-77470000D03*
X172720000Y-77470000D03*
X170020000Y-80010000D03*
X172720000Y-80010000D03*
X170020000Y-86360000D03*
X172720000Y-86360000D03*
X170020000Y-88900000D03*
X172720000Y-88900000D03*
X170180000Y-91440000D03*
X172880000Y-91440000D03*
X170180000Y-93980000D03*
X172880000Y-93980000D03*
X170100000Y-96520000D03*
X172800000Y-96520000D03*
X170100000Y-99060000D03*
X172800000Y-99060000D03*
X170100000Y-101600000D03*
X172800000Y-101600000D03*
X170100000Y-104140000D03*
X172800000Y-104140000D03*
X152400000Y-102870000D03*
X155100000Y-102870000D03*
X155100000Y-107950000D03*
X152400000Y-107950000D03*
X152400000Y-111125000D03*
X155100000Y-111125000D03*
X155100000Y-116205000D03*
X152400000Y-116205000D03*
X152400000Y-119380000D03*
X155100000Y-119380000D03*
X155100000Y-124460000D03*
X152400000Y-124460000D03*
X162085000Y-147955000D03*
X159385000Y-147955000D03*
X162085000Y-150495000D03*
X159385000Y-150495000D03*
X170180000Y-110490000D03*
X172880000Y-110490000D03*
X170180000Y-113030000D03*
X172880000Y-113030000D03*
X170180000Y-115570000D03*
X172880000Y-115570000D03*
X170100000Y-118110000D03*
X172800000Y-118110000D03*
X170180000Y-120650000D03*
X172880000Y-120650000D03*
X170180000Y-123190000D03*
X172880000Y-123190000D03*
X170100000Y-125730000D03*
X172800000Y-125730000D03*
X170180000Y-128270000D03*
X172880000Y-128270000D03*
X170180000Y-134620000D03*
X172880000Y-134620000D03*
X170180000Y-137160000D03*
X172880000Y-137160000D03*
X170180000Y-139700000D03*
X172880000Y-139700000D03*
X170180000Y-142240000D03*
X172880000Y-142240000D03*
X170180000Y-144780000D03*
X172880000Y-144780000D03*
X170180000Y-147320000D03*
X172880000Y-147320000D03*
X170180000Y-149860000D03*
X172880000Y-149860000D03*
X170180000Y-152400000D03*
X172880000Y-152400000D03*
X163670000Y-82550000D03*
X166370000Y-82550000D03*
D22*
X140335000Y-107370000D03*
X140335000Y-102870000D03*
X148285000Y-102870000D03*
X148285000Y-107370000D03*
X140335000Y-115625000D03*
X140335000Y-111125000D03*
X148285000Y-111125000D03*
X148285000Y-115625000D03*
X140335000Y-123880000D03*
X140335000Y-119380000D03*
X148285000Y-119380000D03*
X148285000Y-123880000D03*
D23*
X160970000Y-63500000D03*
X160970000Y-64770000D03*
X160970000Y-66040000D03*
X160970000Y-67310000D03*
X160970000Y-68580000D03*
X160970000Y-69850000D03*
X160970000Y-71120000D03*
X160970000Y-72390000D03*
X166370000Y-72390000D03*
X166370000Y-71120000D03*
X166370000Y-69850000D03*
X166370000Y-68580000D03*
X166370000Y-67310000D03*
X166370000Y-66040000D03*
X166370000Y-64770000D03*
X166370000Y-63500000D03*
X160970000Y-87630000D03*
X160970000Y-88900000D03*
X160970000Y-90170000D03*
X160970000Y-91440000D03*
X160970000Y-92710000D03*
X160970000Y-93980000D03*
X160970000Y-95250000D03*
X160970000Y-96520000D03*
X166370000Y-96520000D03*
X166370000Y-95250000D03*
X166370000Y-93980000D03*
X166370000Y-92710000D03*
X166370000Y-91440000D03*
X166370000Y-90170000D03*
X166370000Y-88900000D03*
X166370000Y-87630000D03*
X160970000Y-111760000D03*
X160970000Y-113030000D03*
X160970000Y-114300000D03*
X160970000Y-115570000D03*
X160970000Y-116840000D03*
X160970000Y-118110000D03*
X160970000Y-119380000D03*
X160970000Y-120650000D03*
X166370000Y-120650000D03*
X166370000Y-119380000D03*
X166370000Y-118110000D03*
X166370000Y-116840000D03*
X166370000Y-115570000D03*
X166370000Y-114300000D03*
X166370000Y-113030000D03*
X166370000Y-111760000D03*
X160970000Y-135890000D03*
X160970000Y-137160000D03*
X160970000Y-138430000D03*
X160970000Y-139700000D03*
X160970000Y-140970000D03*
X160970000Y-142240000D03*
X160970000Y-143510000D03*
X160970000Y-144780000D03*
X166370000Y-144780000D03*
X166370000Y-143510000D03*
X166370000Y-142240000D03*
X166370000Y-140970000D03*
X166370000Y-139700000D03*
X166370000Y-138430000D03*
X166370000Y-137160000D03*
X166370000Y-135890000D03*
D24*
X152019000Y-94107000D03*
D25*
X152019000Y-83312000D03*
D24*
X154559000Y-94107000D03*
X149479000Y-94107000D03*
D26*
X147955000Y-128905000D03*
X147955000Y-131445000D03*
X147955000Y-133985000D03*
X147955000Y-136525000D03*
X147955000Y-139065000D03*
X147955000Y-141605000D03*
X147955000Y-144145000D03*
X147955000Y-146685000D03*
X147955000Y-149225000D03*
X155575000Y-149225000D03*
X155575000Y-146685000D03*
X155575000Y-144145000D03*
X155575000Y-141605000D03*
X155575000Y-139065000D03*
X155575000Y-136525000D03*
X155575000Y-133985000D03*
X155575000Y-131445000D03*
X155575000Y-128905000D03*
D13*
X166370000Y-133350000D03*
X163870000Y-133350000D03*
X166370000Y-85090000D03*
X163870000Y-85090000D03*
D27*
X163195000Y-144780000D03*
X164465000Y-139700000D03*
X164465000Y-132080000D03*
X164465000Y-121920000D03*
X164465000Y-115570000D03*
X163830000Y-97155000D03*
X164465000Y-91440000D03*
X164975617Y-84452609D03*
X164465000Y-67310000D03*
X164465000Y-72390000D03*
X166370000Y-102099299D03*
X166370000Y-132080000D03*
X166370000Y-62865000D03*
X166370000Y-86360000D03*
X165385000Y-109840000D03*
X153035000Y-107950000D03*
X149860000Y-116840000D03*
X147955000Y-125095000D03*
X138430000Y-142240000D03*
X139700000Y-143510000D03*
X159546920Y-82550000D03*
X159546920Y-92710000D03*
X159385000Y-68580000D03*
X159385000Y-116840000D03*
X161858358Y-111760000D03*
X161925000Y-63500000D03*
X161925000Y-87630000D03*
X161925000Y-135890000D03*
X162363169Y-113030000D03*
X162560000Y-137160000D03*
X162721910Y-88900000D03*
X162721910Y-64770000D03*
X162867980Y-114300000D03*
X163518820Y-66040000D03*
X163518820Y-90170000D03*
X163195000Y-138430000D03*
X158750000Y-69850000D03*
X159565031Y-95139530D03*
D28*
X139700000Y-137120000D02*
X138440000Y-137120000D01*
X138440000Y-137120000D02*
X137795000Y-136475000D01*
X137795000Y-136475000D02*
X137795000Y-118250000D01*
D29*
X182880000Y-128270000D02*
X182880000Y-134620000D01*
X182880000Y-104140000D02*
X182880000Y-110490000D01*
X182880000Y-80010000D02*
X182880000Y-86360000D01*
D28*
X156845000Y-92075000D02*
X155098714Y-90328714D01*
X155098714Y-90328714D02*
X152019000Y-90328714D01*
X156845000Y-93780000D02*
X156845000Y-92075000D01*
X159585000Y-96520000D02*
X156845000Y-93780000D01*
X160970000Y-96520000D02*
X159585000Y-96520000D01*
D29*
X152019000Y-94107000D02*
X152019000Y-90328714D01*
X152019000Y-90328714D02*
X152019000Y-83312000D01*
D28*
X140970000Y-92710000D02*
X143351286Y-90328714D01*
X143351286Y-90328714D02*
X152019000Y-90328714D01*
D29*
X152019000Y-83312000D02*
X150117810Y-83312000D01*
X150117810Y-83312000D02*
X142370810Y-75565000D01*
X142370810Y-75565000D02*
X140970000Y-75565000D01*
X152019000Y-94107000D02*
X152019000Y-95631000D01*
X152019000Y-95631000D02*
X149225000Y-98425000D01*
D28*
X152440000Y-97790000D02*
X149860000Y-97790000D01*
X149860000Y-97790000D02*
X149225000Y-98425000D01*
X148285000Y-102870000D02*
X148285000Y-99365000D01*
X148285000Y-99365000D02*
X149225000Y-98425000D01*
X137795000Y-102870000D02*
X140335000Y-102870000D01*
X137795000Y-111125000D02*
X137795000Y-102870000D01*
X138925000Y-111125000D02*
X137795000Y-111125000D01*
X140335000Y-119380000D02*
X138925000Y-119380000D01*
X137795000Y-118250000D02*
X137795000Y-112255000D01*
X138925000Y-119380000D02*
X137795000Y-118250000D01*
X137795000Y-112255000D02*
X138925000Y-111125000D01*
X138925000Y-111125000D02*
X140335000Y-111125000D01*
X147955000Y-139065000D02*
X145415000Y-139065000D01*
X145415000Y-139065000D02*
X143510000Y-137160000D01*
X163195000Y-144780000D02*
X160970000Y-144780000D01*
X164465000Y-139700000D02*
X160970000Y-139700000D01*
X164465000Y-132080000D02*
X164465000Y-132755000D01*
X164465000Y-132755000D02*
X163870000Y-133350000D01*
X164465000Y-121920000D02*
X162240000Y-121920000D01*
X162240000Y-121920000D02*
X160970000Y-120650000D01*
X164465000Y-115570000D02*
X160970000Y-115570000D01*
X163830000Y-97155000D02*
X161605000Y-97155000D01*
X161605000Y-97155000D02*
X160970000Y-96520000D01*
X164465000Y-91440000D02*
X160970000Y-91440000D01*
X164975617Y-84452609D02*
X164507391Y-84452609D01*
X164507391Y-84452609D02*
X163870000Y-85090000D01*
X164465000Y-67310000D02*
X160970000Y-67310000D01*
X160970000Y-72390000D02*
X164465000Y-72390000D01*
X143510000Y-137160000D02*
X139740000Y-137160000D01*
X139740000Y-137160000D02*
X139700000Y-137120000D01*
X148285000Y-119380000D02*
X140335000Y-119380000D01*
X148285000Y-111125000D02*
X140335000Y-111125000D01*
X140335000Y-102870000D02*
X148285000Y-102870000D01*
D29*
X182880000Y-149860000D02*
X182880000Y-152400000D01*
X182880000Y-147320000D02*
X182880000Y-149860000D01*
X182880000Y-144780000D02*
X182880000Y-147320000D01*
X182880000Y-142240000D02*
X182880000Y-144780000D01*
X182880000Y-139700000D02*
X182880000Y-142240000D01*
X182880000Y-137160000D02*
X182880000Y-139700000D01*
X182880000Y-134620000D02*
X182880000Y-137160000D01*
X182880000Y-125730000D02*
X182880000Y-128270000D01*
X182880000Y-123190000D02*
X182880000Y-125730000D01*
X182880000Y-120650000D02*
X182880000Y-123190000D01*
X182880000Y-118110000D02*
X182880000Y-120650000D01*
X182880000Y-115570000D02*
X182880000Y-118110000D01*
X182880000Y-113030000D02*
X182880000Y-115570000D01*
X182880000Y-110490000D02*
X182880000Y-113030000D01*
X182880000Y-101600000D02*
X182880000Y-104140000D01*
X182880000Y-99060000D02*
X182880000Y-101600000D01*
X182880000Y-96520000D02*
X182880000Y-99060000D01*
X182880000Y-93980000D02*
X182880000Y-96520000D01*
X182880000Y-91440000D02*
X182880000Y-93980000D01*
X182880000Y-88900000D02*
X182880000Y-91440000D01*
X182880000Y-86360000D02*
X182880000Y-88900000D01*
X182880000Y-77470000D02*
X182880000Y-80010000D01*
X182880000Y-74930000D02*
X182880000Y-77470000D01*
X182880000Y-72390000D02*
X182880000Y-74930000D01*
X182880000Y-69850000D02*
X182880000Y-72390000D01*
X182880000Y-67310000D02*
X182880000Y-69850000D01*
X182880000Y-64770000D02*
X182880000Y-67310000D01*
X182880000Y-62230000D02*
X182880000Y-64770000D01*
X180340000Y-128270000D02*
X180340000Y-134620000D01*
X180340000Y-104140000D02*
X180340000Y-110490000D01*
X180340000Y-80010000D02*
X180340000Y-86360000D01*
D30*
X180340000Y-62230000D02*
X180340000Y-60096400D01*
X155575000Y-59690000D02*
X152400000Y-62865000D01*
X179933600Y-59690000D02*
X155575000Y-59690000D01*
X180340000Y-60096400D02*
X179933600Y-59690000D01*
D29*
X139065000Y-98425000D02*
X139065000Y-95804990D01*
X139065000Y-95804990D02*
X137795000Y-94534990D01*
X137795000Y-94534990D02*
X137795000Y-71120000D01*
X137795000Y-71120000D02*
X138430000Y-70485000D01*
X138430000Y-70485000D02*
X140970000Y-70485000D01*
X180340000Y-137160000D02*
X180340000Y-134620000D01*
X180340000Y-139700000D02*
X180340000Y-137160000D01*
X180340000Y-142240000D02*
X180340000Y-139700000D01*
X180340000Y-144780000D02*
X180340000Y-142240000D01*
X180340000Y-147320000D02*
X180340000Y-144780000D01*
X180340000Y-149860000D02*
X180340000Y-147320000D01*
X180340000Y-152400000D02*
X180340000Y-149860000D01*
X180340000Y-113030000D02*
X180340000Y-110490000D01*
X180340000Y-115570000D02*
X180340000Y-113030000D01*
X180340000Y-118110000D02*
X180340000Y-115570000D01*
X180340000Y-120650000D02*
X180340000Y-118110000D01*
X180340000Y-123190000D02*
X180340000Y-120650000D01*
X180340000Y-125730000D02*
X180340000Y-123190000D01*
X180340000Y-128270000D02*
X180340000Y-125730000D01*
X180340000Y-88900000D02*
X180340000Y-86360000D01*
X180340000Y-91440000D02*
X180340000Y-88900000D01*
X180340000Y-93980000D02*
X180340000Y-91440000D01*
X180340000Y-96520000D02*
X180340000Y-93980000D01*
X180340000Y-99060000D02*
X180340000Y-96520000D01*
X180340000Y-101600000D02*
X180340000Y-99060000D01*
X180340000Y-104140000D02*
X180340000Y-101600000D01*
X180340000Y-64770000D02*
X180340000Y-62230000D01*
X180340000Y-67310000D02*
X180340000Y-64770000D01*
X180340000Y-69850000D02*
X180340000Y-67310000D01*
X180340000Y-72390000D02*
X180340000Y-69850000D01*
X180340000Y-74930000D02*
X180340000Y-72390000D01*
X180340000Y-77470000D02*
X180340000Y-74930000D01*
X180340000Y-80010000D02*
X180340000Y-77470000D01*
X146685000Y-98425000D02*
X143865600Y-98425000D01*
X149479000Y-94107000D02*
X149479000Y-95631000D01*
X149479000Y-95631000D02*
X146685000Y-98425000D01*
D31*
X152400000Y-119380000D02*
X152400000Y-118425200D01*
X153551231Y-117273969D02*
X153551231Y-112176231D01*
X153551231Y-112176231D02*
X152500000Y-111125000D01*
X152400000Y-118425200D02*
X153551231Y-117273969D01*
X152500000Y-111125000D02*
X152400000Y-111125000D01*
D28*
X154458071Y-100811929D02*
X165082630Y-100811929D01*
X165082630Y-100811929D02*
X166370000Y-102099299D01*
X154458071Y-100811929D02*
X152400000Y-102870000D01*
X154940000Y-100330000D02*
X154458071Y-100811929D01*
D31*
X149977590Y-137912590D02*
X151130000Y-139065000D01*
X151130000Y-139065000D02*
X155575000Y-139065000D01*
X143510000Y-134620000D02*
X143662400Y-134620000D01*
X143662400Y-134620000D02*
X146954990Y-137912590D01*
X146954990Y-137912590D02*
X149977590Y-137912590D01*
D28*
X154940000Y-97790000D02*
X154940000Y-100330000D01*
X154940000Y-97790000D02*
X154940000Y-94488000D01*
X154940000Y-94488000D02*
X154559000Y-94107000D01*
X166370000Y-133350000D02*
X166370000Y-132080000D01*
X162085000Y-147955000D02*
X161985000Y-147955000D01*
X157360000Y-140500000D02*
X155925000Y-139065000D01*
X161985000Y-147955000D02*
X157360000Y-143330000D01*
X157360000Y-143330000D02*
X157360000Y-140500000D01*
X155925000Y-139065000D02*
X155575000Y-139065000D01*
X166370000Y-62865000D02*
X166370000Y-63500000D01*
X166370000Y-85090000D02*
X166370000Y-82550000D01*
X166370000Y-86360000D02*
X166370000Y-85090000D01*
X166370000Y-86360000D02*
X166370000Y-87630000D01*
X166370000Y-111760000D02*
X166370000Y-110825000D01*
X166370000Y-110825000D02*
X165385000Y-109840000D01*
X165385000Y-109840000D02*
X153785000Y-109840000D01*
X153785000Y-109840000D02*
X152500000Y-111125000D01*
X166370000Y-135890000D02*
X166370000Y-133350000D01*
X143510000Y-134620000D02*
X139700000Y-134620000D01*
X162085000Y-150495000D02*
X162085000Y-147955000D01*
X155239720Y-105410000D02*
X155239720Y-103009720D01*
X155239720Y-103009720D02*
X155100000Y-102870000D01*
X155100000Y-107950000D02*
X155100000Y-105549720D01*
X155100000Y-105549720D02*
X155239720Y-105410000D01*
D31*
X153035000Y-107950000D02*
X152400000Y-107950000D01*
D28*
X152400000Y-107950000D02*
X152400000Y-105410000D01*
X148285000Y-107370000D02*
X140335000Y-107370000D01*
X152400000Y-107950000D02*
X148865000Y-107950000D01*
X148865000Y-107950000D02*
X148285000Y-107370000D01*
X155239720Y-113665000D02*
X155239720Y-111264720D01*
X155239720Y-111264720D02*
X155100000Y-111125000D01*
X155100000Y-116205000D02*
X155100000Y-113804720D01*
X155100000Y-113804720D02*
X155239720Y-113665000D01*
X150078950Y-116205000D02*
X148865000Y-116205000D01*
X152400000Y-116205000D02*
X150078950Y-116205000D01*
D31*
X150078950Y-116205000D02*
X150078950Y-116621050D01*
X150078950Y-116621050D02*
X149860000Y-116840000D01*
D28*
X152400000Y-116205000D02*
X152400000Y-113665000D01*
X148865000Y-116205000D02*
X148285000Y-115625000D01*
X148285000Y-115625000D02*
X140335000Y-115625000D01*
X155239720Y-121920000D02*
X155239720Y-119519720D01*
X155239720Y-119519720D02*
X155100000Y-119380000D01*
X155100000Y-124460000D02*
X155100000Y-122059720D01*
X155100000Y-122059720D02*
X155239720Y-121920000D01*
D31*
X148285000Y-123880000D02*
X148285000Y-124765000D01*
X148285000Y-124765000D02*
X147955000Y-125095000D01*
D28*
X152400000Y-124460000D02*
X152400000Y-121920000D01*
X152400000Y-124460000D02*
X148865000Y-124460000D01*
X148865000Y-124460000D02*
X148285000Y-123880000D01*
X148285000Y-123880000D02*
X140335000Y-123880000D01*
X177800000Y-62230000D02*
X172720000Y-62230000D01*
X177800000Y-64770000D02*
X172720000Y-64770000D01*
X177800000Y-67310000D02*
X172720000Y-67310000D01*
X177800000Y-69850000D02*
X172720000Y-69850000D01*
X177800000Y-72390000D02*
X172720000Y-72390000D01*
X177800000Y-74930000D02*
X172720000Y-74930000D01*
X177800000Y-77470000D02*
X172720000Y-77470000D01*
X177800000Y-80010000D02*
X172720000Y-80010000D01*
X177800000Y-86360000D02*
X172720000Y-86360000D01*
X177800000Y-88900000D02*
X172720000Y-88900000D01*
X177800000Y-91440000D02*
X172880000Y-91440000D01*
X177800000Y-93980000D02*
X172880000Y-93980000D01*
X177800000Y-96520000D02*
X172800000Y-96520000D01*
X177800000Y-99060000D02*
X172800000Y-99060000D01*
X177800000Y-101600000D02*
X172800000Y-101600000D01*
X177800000Y-104140000D02*
X172800000Y-104140000D01*
X177800000Y-110490000D02*
X172880000Y-110490000D01*
X177800000Y-113030000D02*
X172880000Y-113030000D01*
X177800000Y-115570000D02*
X172880000Y-115570000D01*
X177800000Y-118110000D02*
X172800000Y-118110000D01*
X177800000Y-120650000D02*
X172880000Y-120650000D01*
X177800000Y-123190000D02*
X172880000Y-123190000D01*
X177800000Y-125730000D02*
X172800000Y-125730000D01*
X177800000Y-128270000D02*
X172880000Y-128270000D01*
X177800000Y-134620000D02*
X172880000Y-134620000D01*
X177800000Y-137160000D02*
X172880000Y-137160000D01*
X177800000Y-139700000D02*
X172880000Y-139700000D01*
X177800000Y-142240000D02*
X172880000Y-142240000D01*
X177800000Y-144780000D02*
X172880000Y-144780000D01*
X177800000Y-147320000D02*
X172880000Y-147320000D01*
X177800000Y-149860000D02*
X172880000Y-149860000D01*
X177800000Y-152400000D02*
X172880000Y-152400000D01*
D31*
X138430000Y-142240000D02*
X141637903Y-142240000D01*
X141637903Y-142240000D02*
X143542903Y-144145000D01*
X143542903Y-144145000D02*
X146500200Y-144145000D01*
X146500200Y-144145000D02*
X147955000Y-144145000D01*
X154747657Y-147837410D02*
X151055247Y-144145000D01*
X154901320Y-147837410D02*
X154747657Y-147837410D01*
X155018910Y-147955000D02*
X154901320Y-147837410D01*
X151055247Y-144145000D02*
X149409800Y-144145000D01*
X149409800Y-144145000D02*
X147955000Y-144145000D01*
X159385000Y-147955000D02*
X155018910Y-147955000D01*
X139700000Y-143510000D02*
X144262590Y-148072590D01*
X144262590Y-148072590D02*
X154268927Y-148072590D01*
X154268927Y-148072590D02*
X154538558Y-148342221D01*
X154538558Y-148342221D02*
X154692221Y-148342221D01*
X154692221Y-148342221D02*
X155575000Y-149225000D01*
D28*
X159385000Y-150495000D02*
X156845000Y-150495000D01*
X156845000Y-150495000D02*
X155575000Y-149225000D01*
D31*
X147955000Y-136525000D02*
X143510000Y-132080000D01*
X143510000Y-139700000D02*
X144830800Y-139700000D01*
X144830800Y-139700000D02*
X145583390Y-140452590D01*
X145583390Y-140452590D02*
X152967790Y-140452590D01*
X152967790Y-140452590D02*
X154120200Y-141605000D01*
X154120200Y-141605000D02*
X155575000Y-141605000D01*
X143510000Y-142240000D02*
X144830800Y-142240000D01*
X145583390Y-142992590D02*
X152967790Y-142992590D01*
X144830800Y-142240000D02*
X145583390Y-142992590D01*
X152967790Y-142992590D02*
X154120200Y-144145000D01*
X154120200Y-144145000D02*
X155575000Y-144145000D01*
X166820000Y-64770000D02*
X166370000Y-64770000D01*
X170020000Y-62230000D02*
X169360000Y-62230000D01*
X169360000Y-62230000D02*
X166820000Y-64770000D01*
X170020000Y-64770000D02*
X168965200Y-64770000D01*
X168965200Y-64770000D02*
X167695200Y-66040000D01*
X167695200Y-66040000D02*
X167424800Y-66040000D01*
X167424800Y-66040000D02*
X166370000Y-66040000D01*
X170020000Y-67310000D02*
X166370000Y-67310000D01*
X170020000Y-69850000D02*
X169920000Y-69850000D01*
X168650000Y-68580000D02*
X167424800Y-68580000D01*
X169920000Y-69850000D02*
X168650000Y-68580000D01*
X167424800Y-68580000D02*
X166370000Y-68580000D01*
X170020000Y-72390000D02*
X169360000Y-72390000D01*
X169360000Y-72390000D02*
X166820000Y-69850000D01*
X166820000Y-69850000D02*
X166370000Y-69850000D01*
X170020000Y-74930000D02*
X169920000Y-74930000D01*
X168965200Y-73975200D02*
X168965200Y-73265200D01*
X169920000Y-74930000D02*
X168965200Y-73975200D01*
X166820000Y-71120000D02*
X166370000Y-71120000D01*
X168965200Y-73265200D02*
X166820000Y-71120000D01*
X170020000Y-77470000D02*
X169920000Y-77470000D01*
X169920000Y-77470000D02*
X166370000Y-73920000D01*
X166370000Y-73920000D02*
X166370000Y-72994800D01*
X166370000Y-72994800D02*
X166370000Y-72390000D01*
X169920000Y-80010000D02*
X170020000Y-80010000D01*
X165261902Y-72007486D02*
X165261902Y-75351902D01*
X164374416Y-71120000D02*
X165261902Y-72007486D01*
X165261902Y-75351902D02*
X169920000Y-80010000D01*
X160970000Y-71120000D02*
X164374416Y-71120000D01*
X170020000Y-86360000D02*
X169360000Y-86360000D01*
X166820000Y-88900000D02*
X166370000Y-88900000D01*
X169360000Y-86360000D02*
X166820000Y-88900000D01*
X170020000Y-88900000D02*
X168965200Y-88900000D01*
X168965200Y-88900000D02*
X167695200Y-90170000D01*
X167695200Y-90170000D02*
X167424800Y-90170000D01*
X167424800Y-90170000D02*
X166370000Y-90170000D01*
X170180000Y-91440000D02*
X166370000Y-91440000D01*
X170180000Y-93980000D02*
X169125200Y-93980000D01*
X169125200Y-93980000D02*
X167855200Y-92710000D01*
X167855200Y-92710000D02*
X167424800Y-92710000D01*
X167424800Y-92710000D02*
X166370000Y-92710000D01*
X170100000Y-96520000D02*
X170000000Y-96520000D01*
X167460000Y-93980000D02*
X167424800Y-93980000D01*
X170000000Y-96520000D02*
X167460000Y-93980000D01*
X167424800Y-93980000D02*
X166370000Y-93980000D01*
X170100000Y-99060000D02*
X170000000Y-99060000D01*
X170000000Y-99060000D02*
X169045200Y-98105200D01*
X169045200Y-98105200D02*
X169045200Y-97475200D01*
X169045200Y-97475200D02*
X166820000Y-95250000D01*
X166820000Y-95250000D02*
X166370000Y-95250000D01*
X170100000Y-101600000D02*
X170000000Y-101600000D01*
X170000000Y-101600000D02*
X166370000Y-97970000D01*
X166370000Y-97970000D02*
X166370000Y-97124800D01*
X166370000Y-97124800D02*
X166370000Y-96520000D01*
X170000000Y-104140000D02*
X170100000Y-104140000D01*
X164626901Y-96772487D02*
X164626901Y-98766901D01*
X163104414Y-95250000D02*
X164626901Y-96772487D01*
X160970000Y-95250000D02*
X163104414Y-95250000D01*
X164626901Y-98766901D02*
X170000000Y-104140000D01*
X170180000Y-110490000D02*
X170080000Y-110490000D01*
X170080000Y-110490000D02*
X167540000Y-113030000D01*
X167424800Y-113030000D02*
X166370000Y-113030000D01*
X167540000Y-113030000D02*
X167424800Y-113030000D01*
X167424800Y-114300000D02*
X166370000Y-114300000D01*
X170180000Y-113030000D02*
X169125200Y-113030000D01*
X169125200Y-113030000D02*
X167855200Y-114300000D01*
X167855200Y-114300000D02*
X167424800Y-114300000D01*
X170180000Y-115570000D02*
X166370000Y-115570000D01*
X170100000Y-118110000D02*
X170000000Y-118110000D01*
X170000000Y-118110000D02*
X168730000Y-116840000D01*
X168730000Y-116840000D02*
X167424800Y-116840000D01*
X167424800Y-116840000D02*
X166370000Y-116840000D01*
X170180000Y-120650000D02*
X170080000Y-120650000D01*
X170080000Y-120650000D02*
X167540000Y-118110000D01*
X167540000Y-118110000D02*
X167424800Y-118110000D01*
X167424800Y-118110000D02*
X166370000Y-118110000D01*
X170180000Y-123190000D02*
X170080000Y-123190000D01*
X169125200Y-121685200D02*
X166820000Y-119380000D01*
X170080000Y-123190000D02*
X169125200Y-122235200D01*
X169125200Y-122235200D02*
X169125200Y-121685200D01*
X166820000Y-119380000D02*
X166370000Y-119380000D01*
X170100000Y-125730000D02*
X170000000Y-125730000D01*
X170000000Y-125730000D02*
X166370000Y-122100000D01*
X166370000Y-122100000D02*
X166370000Y-121254800D01*
X166370000Y-121254800D02*
X166370000Y-120650000D01*
X170080000Y-128270000D02*
X170180000Y-128270000D01*
X165261901Y-123451901D02*
X170080000Y-128270000D01*
X165261901Y-121537487D02*
X165261901Y-123451901D01*
X163104414Y-119380000D02*
X165261901Y-121537487D01*
X160970000Y-119380000D02*
X163104414Y-119380000D01*
X170180000Y-134620000D02*
X170080000Y-134620000D01*
X170080000Y-134620000D02*
X167540000Y-137160000D01*
X167540000Y-137160000D02*
X167424800Y-137160000D01*
X167424800Y-137160000D02*
X166370000Y-137160000D01*
X170180000Y-137160000D02*
X169125200Y-137160000D01*
X169125200Y-137160000D02*
X167855200Y-138430000D01*
X167855200Y-138430000D02*
X167424800Y-138430000D01*
X167424800Y-138430000D02*
X166370000Y-138430000D01*
X170180000Y-139700000D02*
X166370000Y-139700000D01*
X170180000Y-142240000D02*
X169125200Y-142240000D01*
X169125200Y-142240000D02*
X167855200Y-140970000D01*
X167855200Y-140970000D02*
X167424800Y-140970000D01*
X167424800Y-140970000D02*
X166370000Y-140970000D01*
X170180000Y-144780000D02*
X170080000Y-144780000D01*
X170080000Y-144780000D02*
X167540000Y-142240000D01*
X167540000Y-142240000D02*
X167424800Y-142240000D01*
X167424800Y-142240000D02*
X166370000Y-142240000D01*
X170180000Y-147320000D02*
X170080000Y-147320000D01*
X170080000Y-147320000D02*
X169125200Y-146365200D01*
X169125200Y-146365200D02*
X169125200Y-145815200D01*
X169125200Y-145815200D02*
X166820000Y-143510000D01*
X166820000Y-143510000D02*
X166370000Y-143510000D01*
X170180000Y-149860000D02*
X170080000Y-149860000D01*
X170080000Y-149860000D02*
X166370000Y-146150000D01*
X166370000Y-146150000D02*
X166370000Y-145384800D01*
X166370000Y-145384800D02*
X166370000Y-144780000D01*
X160970000Y-143510000D02*
X164465000Y-143510000D01*
X164465000Y-143510000D02*
X165100000Y-144145000D01*
X165100000Y-144145000D02*
X165100000Y-147190000D01*
X169125200Y-151445200D02*
X170080000Y-152400000D01*
X165100000Y-147190000D02*
X169125200Y-151215200D01*
X169125200Y-151215200D02*
X169125200Y-151445200D01*
X170080000Y-152400000D02*
X170180000Y-152400000D01*
X163670000Y-82550000D02*
X159546920Y-82550000D01*
X160970000Y-92710000D02*
X159546920Y-92710000D01*
X159385000Y-68580000D02*
X160970000Y-68580000D01*
X159385000Y-116840000D02*
X160970000Y-116840000D01*
X160970000Y-140970000D02*
X160370000Y-140970000D01*
X160370000Y-140970000D02*
X155925000Y-136525000D01*
X155925000Y-136525000D02*
X155575000Y-136525000D01*
X160970000Y-135890000D02*
X160970000Y-135285200D01*
X160970000Y-135285200D02*
X157129800Y-131445000D01*
X157129800Y-131445000D02*
X157029800Y-131445000D01*
X157029800Y-131445000D02*
X155575000Y-131445000D01*
X160970000Y-111760000D02*
X161858358Y-111760000D01*
X161925000Y-63500000D02*
X160970000Y-63500000D01*
X161925000Y-87630000D02*
X160970000Y-87630000D01*
X160970000Y-135890000D02*
X161925000Y-135890000D01*
X160970000Y-137160000D02*
X160520000Y-137160000D01*
X160520000Y-137160000D02*
X157077410Y-133717410D01*
X157077410Y-133717410D02*
X157077410Y-133507657D01*
X154747657Y-132597410D02*
X154072590Y-131922343D01*
X157077410Y-133507657D02*
X156167163Y-132597410D01*
X156167163Y-132597410D02*
X154747657Y-132597410D01*
X154072590Y-131922343D02*
X154072590Y-130057410D01*
X154072590Y-130057410D02*
X155225000Y-128905000D01*
X155225000Y-128905000D02*
X155575000Y-128905000D01*
X160970000Y-113030000D02*
X162363169Y-113030000D01*
X162560000Y-137160000D02*
X160970000Y-137160000D01*
X162721910Y-88900000D02*
X160970000Y-88900000D01*
X160970000Y-64770000D02*
X162721910Y-64770000D01*
X160970000Y-138430000D02*
X160520000Y-138430000D01*
X160520000Y-138430000D02*
X157227410Y-135137410D01*
X157227410Y-135137410D02*
X154537410Y-135137410D01*
X154537410Y-135137410D02*
X148305000Y-128905000D01*
X148305000Y-128905000D02*
X147955000Y-128905000D01*
X160970000Y-114300000D02*
X162867980Y-114300000D01*
X163518820Y-66040000D02*
X160970000Y-66040000D01*
X163518820Y-90170000D02*
X160970000Y-90170000D01*
X160970000Y-138430000D02*
X163195000Y-138430000D01*
X160970000Y-69850000D02*
X158750000Y-69850000D01*
X160520000Y-93980000D02*
X159565031Y-94934969D01*
X159565031Y-94934969D02*
X159565031Y-95139530D01*
X160970000Y-93980000D02*
X160520000Y-93980000D01*
X154594322Y-127000000D02*
X147880247Y-127000000D01*
X147880247Y-127000000D02*
X146452590Y-128427657D01*
X146452590Y-128427657D02*
X146452590Y-130292590D01*
X146452590Y-130292590D02*
X147605000Y-131445000D01*
X147605000Y-131445000D02*
X147955000Y-131445000D01*
X160970000Y-118110000D02*
X160520000Y-118110000D01*
X156390951Y-122239049D02*
X156390951Y-125203371D01*
X160520000Y-118110000D02*
X156390951Y-122239049D01*
X156390951Y-125203371D02*
X154594322Y-127000000D01*
X160970000Y-142240000D02*
X160520000Y-142240000D01*
X151997410Y-137677410D02*
X148305000Y-133985000D01*
X160520000Y-142240000D02*
X157077410Y-138797410D01*
X157077410Y-138797410D02*
X157077410Y-138587657D01*
X156167163Y-137677410D02*
X151997410Y-137677410D01*
X157077410Y-138587657D02*
X156167163Y-137677410D01*
X148305000Y-133985000D02*
X147955000Y-133985000D01*
D32*
G36*
X182118000Y-60977936D02*
X181864000Y-60977936D01*
X181722810Y-61004503D01*
X181593135Y-61087946D01*
X181506141Y-61215266D01*
X181475536Y-61366400D01*
X181475536Y-63093600D01*
X181502103Y-63234790D01*
X181585546Y-63364465D01*
X181712866Y-63451459D01*
X181864000Y-63482064D01*
X181864000Y-63860646D01*
X181820166Y-63889935D01*
X181550371Y-64293712D01*
X181455631Y-64770000D01*
X181550371Y-65246288D01*
X181820166Y-65650065D01*
X181864000Y-65679354D01*
X181864000Y-66400646D01*
X181820166Y-66429935D01*
X181550371Y-66833712D01*
X181455631Y-67310000D01*
X181550371Y-67786288D01*
X181820166Y-68190065D01*
X181864000Y-68219354D01*
X181864000Y-68940646D01*
X181820166Y-68969935D01*
X181550371Y-69373712D01*
X181455631Y-69850000D01*
X181550371Y-70326288D01*
X181820166Y-70730065D01*
X181864000Y-70759354D01*
X181864000Y-71480646D01*
X181820166Y-71509935D01*
X181550371Y-71913712D01*
X181455631Y-72390000D01*
X181550371Y-72866288D01*
X181820166Y-73270065D01*
X181864000Y-73299354D01*
X181864000Y-74020646D01*
X181820166Y-74049935D01*
X181550371Y-74453712D01*
X181455631Y-74930000D01*
X181550371Y-75406288D01*
X181820166Y-75810065D01*
X181864000Y-75839354D01*
X181864000Y-76560646D01*
X181820166Y-76589935D01*
X181550371Y-76993712D01*
X181455631Y-77470000D01*
X181550371Y-77946288D01*
X181820166Y-78350065D01*
X181864000Y-78379354D01*
X181864000Y-79100646D01*
X181820166Y-79129935D01*
X181550371Y-79533712D01*
X181455631Y-80010000D01*
X181550371Y-80486288D01*
X181820166Y-80890065D01*
X181864000Y-80919354D01*
X181864000Y-85107936D01*
X181722810Y-85134503D01*
X181593135Y-85217946D01*
X181506141Y-85345266D01*
X181475536Y-85496400D01*
X181475536Y-87223600D01*
X181502103Y-87364790D01*
X181585546Y-87494465D01*
X181712866Y-87581459D01*
X181864000Y-87612064D01*
X181864000Y-87990646D01*
X181820166Y-88019935D01*
X181550371Y-88423712D01*
X181455631Y-88900000D01*
X181550371Y-89376288D01*
X181820166Y-89780065D01*
X181864000Y-89809354D01*
X181864000Y-90530646D01*
X181820166Y-90559935D01*
X181550371Y-90963712D01*
X181455631Y-91440000D01*
X181550371Y-91916288D01*
X181820166Y-92320065D01*
X181864000Y-92349354D01*
X181864000Y-93070646D01*
X181820166Y-93099935D01*
X181550371Y-93503712D01*
X181455631Y-93980000D01*
X181550371Y-94456288D01*
X181820166Y-94860065D01*
X181864000Y-94889354D01*
X181864000Y-95610646D01*
X181820166Y-95639935D01*
X181550371Y-96043712D01*
X181455631Y-96520000D01*
X181550371Y-96996288D01*
X181820166Y-97400065D01*
X181864000Y-97429354D01*
X181864000Y-98150646D01*
X181820166Y-98179935D01*
X181550371Y-98583712D01*
X181455631Y-99060000D01*
X181550371Y-99536288D01*
X181820166Y-99940065D01*
X181864000Y-99969354D01*
X181864000Y-100690646D01*
X181820166Y-100719935D01*
X181550371Y-101123712D01*
X181455631Y-101600000D01*
X181550371Y-102076288D01*
X181820166Y-102480065D01*
X181864000Y-102509354D01*
X181864000Y-103230646D01*
X181820166Y-103259935D01*
X181550371Y-103663712D01*
X181455631Y-104140000D01*
X181550371Y-104616288D01*
X181820166Y-105020065D01*
X181864000Y-105049354D01*
X181864000Y-109237936D01*
X181722810Y-109264503D01*
X181593135Y-109347946D01*
X181506141Y-109475266D01*
X181475536Y-109626400D01*
X181475536Y-111353600D01*
X181502103Y-111494790D01*
X181585546Y-111624465D01*
X181712866Y-111711459D01*
X181864000Y-111742064D01*
X181864000Y-112120646D01*
X181820166Y-112149935D01*
X181550371Y-112553712D01*
X181455631Y-113030000D01*
X181550371Y-113506288D01*
X181820166Y-113910065D01*
X181864000Y-113939354D01*
X181864000Y-114660646D01*
X181820166Y-114689935D01*
X181550371Y-115093712D01*
X181455631Y-115570000D01*
X181550371Y-116046288D01*
X181820166Y-116450065D01*
X181864000Y-116479354D01*
X181864000Y-117200646D01*
X181820166Y-117229935D01*
X181550371Y-117633712D01*
X181455631Y-118110000D01*
X181550371Y-118586288D01*
X181820166Y-118990065D01*
X181864000Y-119019354D01*
X181864000Y-119740646D01*
X181820166Y-119769935D01*
X181550371Y-120173712D01*
X181455631Y-120650000D01*
X181550371Y-121126288D01*
X181820166Y-121530065D01*
X181864000Y-121559354D01*
X181864000Y-122280646D01*
X181820166Y-122309935D01*
X181550371Y-122713712D01*
X181455631Y-123190000D01*
X181550371Y-123666288D01*
X181820166Y-124070065D01*
X181864000Y-124099354D01*
X181864000Y-124820646D01*
X181820166Y-124849935D01*
X181550371Y-125253712D01*
X181455631Y-125730000D01*
X181550371Y-126206288D01*
X181820166Y-126610065D01*
X181864000Y-126639354D01*
X181864000Y-127360646D01*
X181820166Y-127389935D01*
X181550371Y-127793712D01*
X181455631Y-128270000D01*
X181550371Y-128746288D01*
X181820166Y-129150065D01*
X181864000Y-129179354D01*
X181864000Y-133367936D01*
X181722810Y-133394503D01*
X181593135Y-133477946D01*
X181506141Y-133605266D01*
X181475536Y-133756400D01*
X181475536Y-135483600D01*
X181502103Y-135624790D01*
X181585546Y-135754465D01*
X181712866Y-135841459D01*
X181864000Y-135872064D01*
X181864000Y-136250646D01*
X181820166Y-136279935D01*
X181550371Y-136683712D01*
X181455631Y-137160000D01*
X181550371Y-137636288D01*
X181820166Y-138040065D01*
X181864000Y-138069354D01*
X181864000Y-138790646D01*
X181820166Y-138819935D01*
X181550371Y-139223712D01*
X181455631Y-139700000D01*
X181550371Y-140176288D01*
X181820166Y-140580065D01*
X181864000Y-140609354D01*
X181864000Y-141330646D01*
X181820166Y-141359935D01*
X181550371Y-141763712D01*
X181455631Y-142240000D01*
X181550371Y-142716288D01*
X181820166Y-143120065D01*
X181864000Y-143149354D01*
X181864000Y-143870646D01*
X181820166Y-143899935D01*
X181550371Y-144303712D01*
X181455631Y-144780000D01*
X181550371Y-145256288D01*
X181820166Y-145660065D01*
X181864000Y-145689354D01*
X181864000Y-146410646D01*
X181820166Y-146439935D01*
X181550371Y-146843712D01*
X181455631Y-147320000D01*
X181550371Y-147796288D01*
X181820166Y-148200065D01*
X181864000Y-148229354D01*
X181864000Y-148950646D01*
X181820166Y-148979935D01*
X181550371Y-149383712D01*
X181455631Y-149860000D01*
X181550371Y-150336288D01*
X181820166Y-150740065D01*
X181864000Y-150769354D01*
X181864000Y-151490646D01*
X181820166Y-151519935D01*
X181550371Y-151923712D01*
X181455631Y-152400000D01*
X181550371Y-152876288D01*
X181820166Y-153280065D01*
X182118000Y-153479071D01*
X182118000Y-154178000D01*
X178562000Y-154178000D01*
X178562000Y-153479071D01*
X178859834Y-153280065D01*
X179129629Y-152876288D01*
X179224369Y-152400000D01*
X179129629Y-151923712D01*
X178859834Y-151519935D01*
X178562000Y-151320929D01*
X178562000Y-150939071D01*
X178859834Y-150740065D01*
X179129629Y-150336288D01*
X179224369Y-149860000D01*
X179129629Y-149383712D01*
X178859834Y-148979935D01*
X178562000Y-148780929D01*
X178562000Y-148399071D01*
X178859834Y-148200065D01*
X179129629Y-147796288D01*
X179224369Y-147320000D01*
X179129629Y-146843712D01*
X178859834Y-146439935D01*
X178562000Y-146240929D01*
X178562000Y-145859071D01*
X178859834Y-145660065D01*
X179129629Y-145256288D01*
X179224369Y-144780000D01*
X179129629Y-144303712D01*
X178859834Y-143899935D01*
X178562000Y-143700929D01*
X178562000Y-143319071D01*
X178859834Y-143120065D01*
X179129629Y-142716288D01*
X179224369Y-142240000D01*
X179129629Y-141763712D01*
X178859834Y-141359935D01*
X178562000Y-141160929D01*
X178562000Y-140779071D01*
X178859834Y-140580065D01*
X179129629Y-140176288D01*
X179224369Y-139700000D01*
X179129629Y-139223712D01*
X178859834Y-138819935D01*
X178562000Y-138620929D01*
X178562000Y-138239071D01*
X178859834Y-138040065D01*
X179129629Y-137636288D01*
X179224369Y-137160000D01*
X179129629Y-136683712D01*
X178859834Y-136279935D01*
X178562000Y-136080929D01*
X178562000Y-135872064D01*
X178816000Y-135872064D01*
X178957190Y-135845497D01*
X179086865Y-135762054D01*
X179173859Y-135634734D01*
X179204464Y-135483600D01*
X179204464Y-133756400D01*
X179177897Y-133615210D01*
X179094454Y-133485535D01*
X178967134Y-133398541D01*
X178816000Y-133367936D01*
X178562000Y-133367936D01*
X178562000Y-129349071D01*
X178859834Y-129150065D01*
X179129629Y-128746288D01*
X179224369Y-128270000D01*
X179129629Y-127793712D01*
X178859834Y-127389935D01*
X178562000Y-127190929D01*
X178562000Y-126809071D01*
X178859834Y-126610065D01*
X179129629Y-126206288D01*
X179224369Y-125730000D01*
X179129629Y-125253712D01*
X178859834Y-124849935D01*
X178562000Y-124650929D01*
X178562000Y-124269071D01*
X178859834Y-124070065D01*
X179129629Y-123666288D01*
X179224369Y-123190000D01*
X179129629Y-122713712D01*
X178859834Y-122309935D01*
X178562000Y-122110929D01*
X178562000Y-121729071D01*
X178859834Y-121530065D01*
X179129629Y-121126288D01*
X179224369Y-120650000D01*
X179129629Y-120173712D01*
X178859834Y-119769935D01*
X178562000Y-119570929D01*
X178562000Y-119189071D01*
X178859834Y-118990065D01*
X179129629Y-118586288D01*
X179224369Y-118110000D01*
X179129629Y-117633712D01*
X178859834Y-117229935D01*
X178562000Y-117030929D01*
X178562000Y-116649071D01*
X178859834Y-116450065D01*
X179129629Y-116046288D01*
X179224369Y-115570000D01*
X179129629Y-115093712D01*
X178859834Y-114689935D01*
X178562000Y-114490929D01*
X178562000Y-114109071D01*
X178859834Y-113910065D01*
X179129629Y-113506288D01*
X179224369Y-113030000D01*
X179129629Y-112553712D01*
X178859834Y-112149935D01*
X178562000Y-111950929D01*
X178562000Y-111742064D01*
X178816000Y-111742064D01*
X178957190Y-111715497D01*
X179086865Y-111632054D01*
X179173859Y-111504734D01*
X179204464Y-111353600D01*
X179204464Y-109626400D01*
X179177897Y-109485210D01*
X179094454Y-109355535D01*
X178967134Y-109268541D01*
X178816000Y-109237936D01*
X178562000Y-109237936D01*
X178562000Y-105219071D01*
X178859834Y-105020065D01*
X179129629Y-104616288D01*
X179224369Y-104140000D01*
X179129629Y-103663712D01*
X178859834Y-103259935D01*
X178562000Y-103060929D01*
X178562000Y-102679071D01*
X178859834Y-102480065D01*
X179129629Y-102076288D01*
X179224369Y-101600000D01*
X179129629Y-101123712D01*
X178859834Y-100719935D01*
X178562000Y-100520929D01*
X178562000Y-100139071D01*
X178859834Y-99940065D01*
X179129629Y-99536288D01*
X179224369Y-99060000D01*
X179129629Y-98583712D01*
X178859834Y-98179935D01*
X178562000Y-97980929D01*
X178562000Y-97599071D01*
X178859834Y-97400065D01*
X179129629Y-96996288D01*
X179224369Y-96520000D01*
X179129629Y-96043712D01*
X178859834Y-95639935D01*
X178562000Y-95440929D01*
X178562000Y-95059071D01*
X178859834Y-94860065D01*
X179129629Y-94456288D01*
X179224369Y-93980000D01*
X179129629Y-93503712D01*
X178859834Y-93099935D01*
X178562000Y-92900929D01*
X178562000Y-92519071D01*
X178859834Y-92320065D01*
X179129629Y-91916288D01*
X179224369Y-91440000D01*
X179129629Y-90963712D01*
X178859834Y-90559935D01*
X178562000Y-90360929D01*
X178562000Y-89979071D01*
X178859834Y-89780065D01*
X179129629Y-89376288D01*
X179224369Y-88900000D01*
X179129629Y-88423712D01*
X178859834Y-88019935D01*
X178562000Y-87820929D01*
X178562000Y-87612064D01*
X178816000Y-87612064D01*
X178957190Y-87585497D01*
X179086865Y-87502054D01*
X179173859Y-87374734D01*
X179204464Y-87223600D01*
X179204464Y-85496400D01*
X179177897Y-85355210D01*
X179094454Y-85225535D01*
X178967134Y-85138541D01*
X178816000Y-85107936D01*
X178562000Y-85107936D01*
X178562000Y-81089071D01*
X178859834Y-80890065D01*
X179129629Y-80486288D01*
X179224369Y-80010000D01*
X179129629Y-79533712D01*
X178859834Y-79129935D01*
X178562000Y-78930929D01*
X178562000Y-78549071D01*
X178859834Y-78350065D01*
X179129629Y-77946288D01*
X179224369Y-77470000D01*
X179129629Y-76993712D01*
X178859834Y-76589935D01*
X178562000Y-76390929D01*
X178562000Y-76009071D01*
X178859834Y-75810065D01*
X179129629Y-75406288D01*
X179224369Y-74930000D01*
X179129629Y-74453712D01*
X178859834Y-74049935D01*
X178562000Y-73850929D01*
X178562000Y-73469071D01*
X178859834Y-73270065D01*
X179129629Y-72866288D01*
X179224369Y-72390000D01*
X179129629Y-71913712D01*
X178859834Y-71509935D01*
X178562000Y-71310929D01*
X178562000Y-70929071D01*
X178859834Y-70730065D01*
X179129629Y-70326288D01*
X179224369Y-69850000D01*
X179129629Y-69373712D01*
X178859834Y-68969935D01*
X178562000Y-68770929D01*
X178562000Y-68389071D01*
X178859834Y-68190065D01*
X179129629Y-67786288D01*
X179224369Y-67310000D01*
X179129629Y-66833712D01*
X178859834Y-66429935D01*
X178562000Y-66230929D01*
X178562000Y-65849071D01*
X178859834Y-65650065D01*
X179129629Y-65246288D01*
X179224369Y-64770000D01*
X179129629Y-64293712D01*
X178859834Y-63889935D01*
X178562000Y-63690929D01*
X178562000Y-63482064D01*
X178816000Y-63482064D01*
X178957190Y-63455497D01*
X179086865Y-63372054D01*
X179173859Y-63244734D01*
X179204464Y-63093600D01*
X179204464Y-61366400D01*
X179177897Y-61225210D01*
X179094454Y-61095535D01*
X178967134Y-61008541D01*
X178816000Y-60977936D01*
X178562000Y-60977936D01*
X178562000Y-59182000D01*
X182118000Y-59182000D01*
X182118000Y-60977936D01*
X182118000Y-60977936D01*
G37*
X182118000Y-60977936D02*
X181864000Y-60977936D01*
X181722810Y-61004503D01*
X181593135Y-61087946D01*
X181506141Y-61215266D01*
X181475536Y-61366400D01*
X181475536Y-63093600D01*
X181502103Y-63234790D01*
X181585546Y-63364465D01*
X181712866Y-63451459D01*
X181864000Y-63482064D01*
X181864000Y-63860646D01*
X181820166Y-63889935D01*
X181550371Y-64293712D01*
X181455631Y-64770000D01*
X181550371Y-65246288D01*
X181820166Y-65650065D01*
X181864000Y-65679354D01*
X181864000Y-66400646D01*
X181820166Y-66429935D01*
X181550371Y-66833712D01*
X181455631Y-67310000D01*
X181550371Y-67786288D01*
X181820166Y-68190065D01*
X181864000Y-68219354D01*
X181864000Y-68940646D01*
X181820166Y-68969935D01*
X181550371Y-69373712D01*
X181455631Y-69850000D01*
X181550371Y-70326288D01*
X181820166Y-70730065D01*
X181864000Y-70759354D01*
X181864000Y-71480646D01*
X181820166Y-71509935D01*
X181550371Y-71913712D01*
X181455631Y-72390000D01*
X181550371Y-72866288D01*
X181820166Y-73270065D01*
X181864000Y-73299354D01*
X181864000Y-74020646D01*
X181820166Y-74049935D01*
X181550371Y-74453712D01*
X181455631Y-74930000D01*
X181550371Y-75406288D01*
X181820166Y-75810065D01*
X181864000Y-75839354D01*
X181864000Y-76560646D01*
X181820166Y-76589935D01*
X181550371Y-76993712D01*
X181455631Y-77470000D01*
X181550371Y-77946288D01*
X181820166Y-78350065D01*
X181864000Y-78379354D01*
X181864000Y-79100646D01*
X181820166Y-79129935D01*
X181550371Y-79533712D01*
X181455631Y-80010000D01*
X181550371Y-80486288D01*
X181820166Y-80890065D01*
X181864000Y-80919354D01*
X181864000Y-85107936D01*
X181722810Y-85134503D01*
X181593135Y-85217946D01*
X181506141Y-85345266D01*
X181475536Y-85496400D01*
X181475536Y-87223600D01*
X181502103Y-87364790D01*
X181585546Y-87494465D01*
X181712866Y-87581459D01*
X181864000Y-87612064D01*
X181864000Y-87990646D01*
X181820166Y-88019935D01*
X181550371Y-88423712D01*
X181455631Y-88900000D01*
X181550371Y-89376288D01*
X181820166Y-89780065D01*
X181864000Y-89809354D01*
X181864000Y-90530646D01*
X181820166Y-90559935D01*
X181550371Y-90963712D01*
X181455631Y-91440000D01*
X181550371Y-91916288D01*
X181820166Y-92320065D01*
X181864000Y-92349354D01*
X181864000Y-93070646D01*
X181820166Y-93099935D01*
X181550371Y-93503712D01*
X181455631Y-93980000D01*
X181550371Y-94456288D01*
X181820166Y-94860065D01*
X181864000Y-94889354D01*
X181864000Y-95610646D01*
X181820166Y-95639935D01*
X181550371Y-96043712D01*
X181455631Y-96520000D01*
X181550371Y-96996288D01*
X181820166Y-97400065D01*
X181864000Y-97429354D01*
X181864000Y-98150646D01*
X181820166Y-98179935D01*
X181550371Y-98583712D01*
X181455631Y-99060000D01*
X181550371Y-99536288D01*
X181820166Y-99940065D01*
X181864000Y-99969354D01*
X181864000Y-100690646D01*
X181820166Y-100719935D01*
X181550371Y-101123712D01*
X181455631Y-101600000D01*
X181550371Y-102076288D01*
X181820166Y-102480065D01*
X181864000Y-102509354D01*
X181864000Y-103230646D01*
X181820166Y-103259935D01*
X181550371Y-103663712D01*
X181455631Y-104140000D01*
X181550371Y-104616288D01*
X181820166Y-105020065D01*
X181864000Y-105049354D01*
X181864000Y-109237936D01*
X181722810Y-109264503D01*
X181593135Y-109347946D01*
X181506141Y-109475266D01*
X181475536Y-109626400D01*
X181475536Y-111353600D01*
X181502103Y-111494790D01*
X181585546Y-111624465D01*
X181712866Y-111711459D01*
X181864000Y-111742064D01*
X181864000Y-112120646D01*
X181820166Y-112149935D01*
X181550371Y-112553712D01*
X181455631Y-113030000D01*
X181550371Y-113506288D01*
X181820166Y-113910065D01*
X181864000Y-113939354D01*
X181864000Y-114660646D01*
X181820166Y-114689935D01*
X181550371Y-115093712D01*
X181455631Y-115570000D01*
X181550371Y-116046288D01*
X181820166Y-116450065D01*
X181864000Y-116479354D01*
X181864000Y-117200646D01*
X181820166Y-117229935D01*
X181550371Y-117633712D01*
X181455631Y-118110000D01*
X181550371Y-118586288D01*
X181820166Y-118990065D01*
X181864000Y-119019354D01*
X181864000Y-119740646D01*
X181820166Y-119769935D01*
X181550371Y-120173712D01*
X181455631Y-120650000D01*
X181550371Y-121126288D01*
X181820166Y-121530065D01*
X181864000Y-121559354D01*
X181864000Y-122280646D01*
X181820166Y-122309935D01*
X181550371Y-122713712D01*
X181455631Y-123190000D01*
X181550371Y-123666288D01*
X181820166Y-124070065D01*
X181864000Y-124099354D01*
X181864000Y-124820646D01*
X181820166Y-124849935D01*
X181550371Y-125253712D01*
X181455631Y-125730000D01*
X181550371Y-126206288D01*
X181820166Y-126610065D01*
X181864000Y-126639354D01*
X181864000Y-127360646D01*
X181820166Y-127389935D01*
X181550371Y-127793712D01*
X181455631Y-128270000D01*
X181550371Y-128746288D01*
X181820166Y-129150065D01*
X181864000Y-129179354D01*
X181864000Y-133367936D01*
X181722810Y-133394503D01*
X181593135Y-133477946D01*
X181506141Y-133605266D01*
X181475536Y-133756400D01*
X181475536Y-135483600D01*
X181502103Y-135624790D01*
X181585546Y-135754465D01*
X181712866Y-135841459D01*
X181864000Y-135872064D01*
X181864000Y-136250646D01*
X181820166Y-136279935D01*
X181550371Y-136683712D01*
X181455631Y-137160000D01*
X181550371Y-137636288D01*
X181820166Y-138040065D01*
X181864000Y-138069354D01*
X181864000Y-138790646D01*
X181820166Y-138819935D01*
X181550371Y-139223712D01*
X181455631Y-139700000D01*
X181550371Y-140176288D01*
X181820166Y-140580065D01*
X181864000Y-140609354D01*
X181864000Y-141330646D01*
X181820166Y-141359935D01*
X181550371Y-141763712D01*
X181455631Y-142240000D01*
X181550371Y-142716288D01*
X181820166Y-143120065D01*
X181864000Y-143149354D01*
X181864000Y-143870646D01*
X181820166Y-143899935D01*
X181550371Y-144303712D01*
X181455631Y-144780000D01*
X181550371Y-145256288D01*
X181820166Y-145660065D01*
X181864000Y-145689354D01*
X181864000Y-146410646D01*
X181820166Y-146439935D01*
X181550371Y-146843712D01*
X181455631Y-147320000D01*
X181550371Y-147796288D01*
X181820166Y-148200065D01*
X181864000Y-148229354D01*
X181864000Y-148950646D01*
X181820166Y-148979935D01*
X181550371Y-149383712D01*
X181455631Y-149860000D01*
X181550371Y-150336288D01*
X181820166Y-150740065D01*
X181864000Y-150769354D01*
X181864000Y-151490646D01*
X181820166Y-151519935D01*
X181550371Y-151923712D01*
X181455631Y-152400000D01*
X181550371Y-152876288D01*
X181820166Y-153280065D01*
X182118000Y-153479071D01*
X182118000Y-154178000D01*
X178562000Y-154178000D01*
X178562000Y-153479071D01*
X178859834Y-153280065D01*
X179129629Y-152876288D01*
X179224369Y-152400000D01*
X179129629Y-151923712D01*
X178859834Y-151519935D01*
X178562000Y-151320929D01*
X178562000Y-150939071D01*
X178859834Y-150740065D01*
X179129629Y-150336288D01*
X179224369Y-149860000D01*
X179129629Y-149383712D01*
X178859834Y-148979935D01*
X178562000Y-148780929D01*
X178562000Y-148399071D01*
X178859834Y-148200065D01*
X179129629Y-147796288D01*
X179224369Y-147320000D01*
X179129629Y-146843712D01*
X178859834Y-146439935D01*
X178562000Y-146240929D01*
X178562000Y-145859071D01*
X178859834Y-145660065D01*
X179129629Y-145256288D01*
X179224369Y-144780000D01*
X179129629Y-144303712D01*
X178859834Y-143899935D01*
X178562000Y-143700929D01*
X178562000Y-143319071D01*
X178859834Y-143120065D01*
X179129629Y-142716288D01*
X179224369Y-142240000D01*
X179129629Y-141763712D01*
X178859834Y-141359935D01*
X178562000Y-141160929D01*
X178562000Y-140779071D01*
X178859834Y-140580065D01*
X179129629Y-140176288D01*
X179224369Y-139700000D01*
X179129629Y-139223712D01*
X178859834Y-138819935D01*
X178562000Y-138620929D01*
X178562000Y-138239071D01*
X178859834Y-138040065D01*
X179129629Y-137636288D01*
X179224369Y-137160000D01*
X179129629Y-136683712D01*
X178859834Y-136279935D01*
X178562000Y-136080929D01*
X178562000Y-135872064D01*
X178816000Y-135872064D01*
X178957190Y-135845497D01*
X179086865Y-135762054D01*
X179173859Y-135634734D01*
X179204464Y-135483600D01*
X179204464Y-133756400D01*
X179177897Y-133615210D01*
X179094454Y-133485535D01*
X178967134Y-133398541D01*
X178816000Y-133367936D01*
X178562000Y-133367936D01*
X178562000Y-129349071D01*
X178859834Y-129150065D01*
X179129629Y-128746288D01*
X179224369Y-128270000D01*
X179129629Y-127793712D01*
X178859834Y-127389935D01*
X178562000Y-127190929D01*
X178562000Y-126809071D01*
X178859834Y-126610065D01*
X179129629Y-126206288D01*
X179224369Y-125730000D01*
X179129629Y-125253712D01*
X178859834Y-124849935D01*
X178562000Y-124650929D01*
X178562000Y-124269071D01*
X178859834Y-124070065D01*
X179129629Y-123666288D01*
X179224369Y-123190000D01*
X179129629Y-122713712D01*
X178859834Y-122309935D01*
X178562000Y-122110929D01*
X178562000Y-121729071D01*
X178859834Y-121530065D01*
X179129629Y-121126288D01*
X179224369Y-120650000D01*
X179129629Y-120173712D01*
X178859834Y-119769935D01*
X178562000Y-119570929D01*
X178562000Y-119189071D01*
X178859834Y-118990065D01*
X179129629Y-118586288D01*
X179224369Y-118110000D01*
X179129629Y-117633712D01*
X178859834Y-117229935D01*
X178562000Y-117030929D01*
X178562000Y-116649071D01*
X178859834Y-116450065D01*
X179129629Y-116046288D01*
X179224369Y-115570000D01*
X179129629Y-115093712D01*
X178859834Y-114689935D01*
X178562000Y-114490929D01*
X178562000Y-114109071D01*
X178859834Y-113910065D01*
X179129629Y-113506288D01*
X179224369Y-113030000D01*
X179129629Y-112553712D01*
X178859834Y-112149935D01*
X178562000Y-111950929D01*
X178562000Y-111742064D01*
X178816000Y-111742064D01*
X178957190Y-111715497D01*
X179086865Y-111632054D01*
X179173859Y-111504734D01*
X179204464Y-111353600D01*
X179204464Y-109626400D01*
X179177897Y-109485210D01*
X179094454Y-109355535D01*
X178967134Y-109268541D01*
X178816000Y-109237936D01*
X178562000Y-109237936D01*
X178562000Y-105219071D01*
X178859834Y-105020065D01*
X179129629Y-104616288D01*
X179224369Y-104140000D01*
X179129629Y-103663712D01*
X178859834Y-103259935D01*
X178562000Y-103060929D01*
X178562000Y-102679071D01*
X178859834Y-102480065D01*
X179129629Y-102076288D01*
X179224369Y-101600000D01*
X179129629Y-101123712D01*
X178859834Y-100719935D01*
X178562000Y-100520929D01*
X178562000Y-100139071D01*
X178859834Y-99940065D01*
X179129629Y-99536288D01*
X179224369Y-99060000D01*
X179129629Y-98583712D01*
X178859834Y-98179935D01*
X178562000Y-97980929D01*
X178562000Y-97599071D01*
X178859834Y-97400065D01*
X179129629Y-96996288D01*
X179224369Y-96520000D01*
X179129629Y-96043712D01*
X178859834Y-95639935D01*
X178562000Y-95440929D01*
X178562000Y-95059071D01*
X178859834Y-94860065D01*
X179129629Y-94456288D01*
X179224369Y-93980000D01*
X179129629Y-93503712D01*
X178859834Y-93099935D01*
X178562000Y-92900929D01*
X178562000Y-92519071D01*
X178859834Y-92320065D01*
X179129629Y-91916288D01*
X179224369Y-91440000D01*
X179129629Y-90963712D01*
X178859834Y-90559935D01*
X178562000Y-90360929D01*
X178562000Y-89979071D01*
X178859834Y-89780065D01*
X179129629Y-89376288D01*
X179224369Y-88900000D01*
X179129629Y-88423712D01*
X178859834Y-88019935D01*
X178562000Y-87820929D01*
X178562000Y-87612064D01*
X178816000Y-87612064D01*
X178957190Y-87585497D01*
X179086865Y-87502054D01*
X179173859Y-87374734D01*
X179204464Y-87223600D01*
X179204464Y-85496400D01*
X179177897Y-85355210D01*
X179094454Y-85225535D01*
X178967134Y-85138541D01*
X178816000Y-85107936D01*
X178562000Y-85107936D01*
X178562000Y-81089071D01*
X178859834Y-80890065D01*
X179129629Y-80486288D01*
X179224369Y-80010000D01*
X179129629Y-79533712D01*
X178859834Y-79129935D01*
X178562000Y-78930929D01*
X178562000Y-78549071D01*
X178859834Y-78350065D01*
X179129629Y-77946288D01*
X179224369Y-77470000D01*
X179129629Y-76993712D01*
X178859834Y-76589935D01*
X178562000Y-76390929D01*
X178562000Y-76009071D01*
X178859834Y-75810065D01*
X179129629Y-75406288D01*
X179224369Y-74930000D01*
X179129629Y-74453712D01*
X178859834Y-74049935D01*
X178562000Y-73850929D01*
X178562000Y-73469071D01*
X178859834Y-73270065D01*
X179129629Y-72866288D01*
X179224369Y-72390000D01*
X179129629Y-71913712D01*
X178859834Y-71509935D01*
X178562000Y-71310929D01*
X178562000Y-70929071D01*
X178859834Y-70730065D01*
X179129629Y-70326288D01*
X179224369Y-69850000D01*
X179129629Y-69373712D01*
X178859834Y-68969935D01*
X178562000Y-68770929D01*
X178562000Y-68389071D01*
X178859834Y-68190065D01*
X179129629Y-67786288D01*
X179224369Y-67310000D01*
X179129629Y-66833712D01*
X178859834Y-66429935D01*
X178562000Y-66230929D01*
X178562000Y-65849071D01*
X178859834Y-65650065D01*
X179129629Y-65246288D01*
X179224369Y-64770000D01*
X179129629Y-64293712D01*
X178859834Y-63889935D01*
X178562000Y-63690929D01*
X178562000Y-63482064D01*
X178816000Y-63482064D01*
X178957190Y-63455497D01*
X179086865Y-63372054D01*
X179173859Y-63244734D01*
X179204464Y-63093600D01*
X179204464Y-61366400D01*
X179177897Y-61225210D01*
X179094454Y-61095535D01*
X178967134Y-61008541D01*
X178816000Y-60977936D01*
X178562000Y-60977936D01*
X178562000Y-59182000D01*
X182118000Y-59182000D01*
X182118000Y-60977936D01*
M02*
