G04 #@! TF.FileFunction,Legend,Bot*
%FSLAX46Y46*%
G04 Gerber Fmt 4.6, Leading zero omitted, Abs format (unit mm)*
G04 Created by KiCad (PCBNEW (2015-10-14 BZR 6269)-product) date Thursday, October 22, 2015 'PMt' 03:29:46 PM*
%MOMM*%
G01*
G04 APERTURE LIST*
%ADD10C,0.100000*%
%ADD11C,0.300000*%
%ADD12C,1.501140*%
%ADD13R,2.032000X1.727200*%
%ADD14O,2.032000X1.727200*%
%ADD15R,2.540000X2.540000*%
%ADD16C,2.540000*%
%ADD17O,2.300000X1.600000*%
G04 APERTURE END LIST*
D10*
D11*
X167453571Y-80211431D02*
X167453571Y-81140002D01*
X168025000Y-80640002D01*
X168025000Y-80854288D01*
X168096429Y-80997145D01*
X168167857Y-81068574D01*
X168310714Y-81140002D01*
X168667857Y-81140002D01*
X168810714Y-81068574D01*
X168882143Y-80997145D01*
X168953571Y-80854288D01*
X168953571Y-80425716D01*
X168882143Y-80282859D01*
X168810714Y-80211431D01*
X167596429Y-81711430D02*
X167525000Y-81782859D01*
X167453571Y-81925716D01*
X167453571Y-82282859D01*
X167525000Y-82425716D01*
X167596429Y-82497145D01*
X167739286Y-82568573D01*
X167882143Y-82568573D01*
X168096429Y-82497145D01*
X168953571Y-81640002D01*
X168953571Y-82568573D01*
X168953571Y-85211430D02*
X168239286Y-84711430D01*
X168953571Y-84354287D02*
X167453571Y-84354287D01*
X167453571Y-84925715D01*
X167525000Y-85068573D01*
X167596429Y-85140001D01*
X167739286Y-85211430D01*
X167953571Y-85211430D01*
X168096429Y-85140001D01*
X168167857Y-85068573D01*
X168239286Y-84925715D01*
X168239286Y-84354287D01*
X167382143Y-86925715D02*
X169310714Y-85640001D01*
X168810714Y-88282859D02*
X168882143Y-88211430D01*
X168953571Y-87997144D01*
X168953571Y-87854287D01*
X168882143Y-87640002D01*
X168739286Y-87497144D01*
X168596429Y-87425716D01*
X168310714Y-87354287D01*
X168096429Y-87354287D01*
X167810714Y-87425716D01*
X167667857Y-87497144D01*
X167525000Y-87640002D01*
X167453571Y-87854287D01*
X167453571Y-87997144D01*
X167525000Y-88211430D01*
X167596429Y-88282859D01*
X168882143Y-89997144D02*
X168953571Y-90211430D01*
X168953571Y-90568573D01*
X168882143Y-90711430D01*
X168810714Y-90782859D01*
X168667857Y-90854287D01*
X168525000Y-90854287D01*
X168382143Y-90782859D01*
X168310714Y-90711430D01*
X168239286Y-90568573D01*
X168167857Y-90282859D01*
X168096429Y-90140001D01*
X168025000Y-90068573D01*
X167882143Y-89997144D01*
X167739286Y-89997144D01*
X167596429Y-90068573D01*
X167525000Y-90140001D01*
X167453571Y-90282859D01*
X167453571Y-90640001D01*
X167525000Y-90854287D01*
X168882143Y-92068572D02*
X168953571Y-91925715D01*
X168953571Y-91640001D01*
X168882143Y-91497144D01*
X168739286Y-91425715D01*
X168167857Y-91425715D01*
X168025000Y-91497144D01*
X167953571Y-91640001D01*
X167953571Y-91925715D01*
X168025000Y-92068572D01*
X168167857Y-92140001D01*
X168310714Y-92140001D01*
X168453571Y-91425715D01*
X168953571Y-92782858D02*
X167953571Y-92782858D01*
X168239286Y-92782858D02*
X168096429Y-92854286D01*
X168025000Y-92925715D01*
X167953571Y-93068572D01*
X167953571Y-93211429D01*
X167953571Y-93568572D02*
X168953571Y-93925715D01*
X167953571Y-94282857D01*
X168953571Y-95068572D02*
X168882143Y-94925714D01*
X168810714Y-94854286D01*
X168667857Y-94782857D01*
X168239286Y-94782857D01*
X168096429Y-94854286D01*
X168025000Y-94925714D01*
X167953571Y-95068572D01*
X167953571Y-95282857D01*
X168025000Y-95425714D01*
X168096429Y-95497143D01*
X168239286Y-95568572D01*
X168667857Y-95568572D01*
X168810714Y-95497143D01*
X168882143Y-95425714D01*
X168953571Y-95282857D01*
X168953571Y-95068572D01*
X168810714Y-98211429D02*
X168882143Y-98140000D01*
X168953571Y-97925714D01*
X168953571Y-97782857D01*
X168882143Y-97568572D01*
X168739286Y-97425714D01*
X168596429Y-97354286D01*
X168310714Y-97282857D01*
X168096429Y-97282857D01*
X167810714Y-97354286D01*
X167667857Y-97425714D01*
X167525000Y-97568572D01*
X167453571Y-97782857D01*
X167453571Y-97925714D01*
X167525000Y-98140000D01*
X167596429Y-98211429D01*
X168953571Y-99068572D02*
X168882143Y-98925714D01*
X168810714Y-98854286D01*
X168667857Y-98782857D01*
X168239286Y-98782857D01*
X168096429Y-98854286D01*
X168025000Y-98925714D01*
X167953571Y-99068572D01*
X167953571Y-99282857D01*
X168025000Y-99425714D01*
X168096429Y-99497143D01*
X168239286Y-99568572D01*
X168667857Y-99568572D01*
X168810714Y-99497143D01*
X168882143Y-99425714D01*
X168953571Y-99282857D01*
X168953571Y-99068572D01*
X167953571Y-100211429D02*
X168953571Y-100211429D01*
X168096429Y-100211429D02*
X168025000Y-100282857D01*
X167953571Y-100425715D01*
X167953571Y-100640000D01*
X168025000Y-100782857D01*
X168167857Y-100854286D01*
X168953571Y-100854286D01*
X167953571Y-101354286D02*
X167953571Y-101925715D01*
X167453571Y-101568572D02*
X168739286Y-101568572D01*
X168882143Y-101640000D01*
X168953571Y-101782858D01*
X168953571Y-101925715D01*
X168953571Y-102425715D02*
X167953571Y-102425715D01*
X168239286Y-102425715D02*
X168096429Y-102497143D01*
X168025000Y-102568572D01*
X167953571Y-102711429D01*
X167953571Y-102854286D01*
X168953571Y-103568572D02*
X168882143Y-103425714D01*
X168810714Y-103354286D01*
X168667857Y-103282857D01*
X168239286Y-103282857D01*
X168096429Y-103354286D01*
X168025000Y-103425714D01*
X167953571Y-103568572D01*
X167953571Y-103782857D01*
X168025000Y-103925714D01*
X168096429Y-103997143D01*
X168239286Y-104068572D01*
X168667857Y-104068572D01*
X168810714Y-103997143D01*
X168882143Y-103925714D01*
X168953571Y-103782857D01*
X168953571Y-103568572D01*
X168953571Y-104925715D02*
X168882143Y-104782857D01*
X168739286Y-104711429D01*
X167453571Y-104711429D01*
X168953571Y-105711429D02*
X168882143Y-105568571D01*
X168739286Y-105497143D01*
X167453571Y-105497143D01*
X168882143Y-106854285D02*
X168953571Y-106711428D01*
X168953571Y-106425714D01*
X168882143Y-106282857D01*
X168739286Y-106211428D01*
X168167857Y-106211428D01*
X168025000Y-106282857D01*
X167953571Y-106425714D01*
X167953571Y-106711428D01*
X168025000Y-106854285D01*
X168167857Y-106925714D01*
X168310714Y-106925714D01*
X168453571Y-106211428D01*
X168953571Y-107568571D02*
X167953571Y-107568571D01*
X168239286Y-107568571D02*
X168096429Y-107639999D01*
X168025000Y-107711428D01*
X167953571Y-107854285D01*
X167953571Y-107997142D01*
X167953571Y-109497142D02*
X168953571Y-109782856D01*
X168239286Y-110068570D01*
X168953571Y-110354285D01*
X167953571Y-110639999D01*
X167382143Y-112282856D02*
X169310714Y-110997142D01*
X168953571Y-113925714D02*
X167453571Y-113925714D01*
X167596429Y-114568571D02*
X167525000Y-114640000D01*
X167453571Y-114782857D01*
X167453571Y-115140000D01*
X167525000Y-115282857D01*
X167596429Y-115354286D01*
X167739286Y-115425714D01*
X167882143Y-115425714D01*
X168096429Y-115354286D01*
X168953571Y-114497143D01*
X168953571Y-115425714D01*
X168810714Y-116925714D02*
X168882143Y-116854285D01*
X168953571Y-116639999D01*
X168953571Y-116497142D01*
X168882143Y-116282857D01*
X168739286Y-116139999D01*
X168596429Y-116068571D01*
X168310714Y-115997142D01*
X168096429Y-115997142D01*
X167810714Y-116068571D01*
X167667857Y-116139999D01*
X167525000Y-116282857D01*
X167453571Y-116497142D01*
X167453571Y-116639999D01*
X167525000Y-116854285D01*
X167596429Y-116925714D01*
X168953571Y-118711428D02*
X167453571Y-118711428D01*
X167953571Y-119425714D02*
X168953571Y-119425714D01*
X168096429Y-119425714D02*
X168025000Y-119497142D01*
X167953571Y-119640000D01*
X167953571Y-119854285D01*
X168025000Y-119997142D01*
X168167857Y-120068571D01*
X168953571Y-120068571D01*
X167953571Y-120568571D02*
X167953571Y-121140000D01*
X167453571Y-120782857D02*
X168739286Y-120782857D01*
X168882143Y-120854285D01*
X168953571Y-120997143D01*
X168953571Y-121140000D01*
X168882143Y-122211428D02*
X168953571Y-122068571D01*
X168953571Y-121782857D01*
X168882143Y-121640000D01*
X168739286Y-121568571D01*
X168167857Y-121568571D01*
X168025000Y-121640000D01*
X167953571Y-121782857D01*
X167953571Y-122068571D01*
X168025000Y-122211428D01*
X168167857Y-122282857D01*
X168310714Y-122282857D01*
X168453571Y-121568571D01*
X168953571Y-122925714D02*
X167953571Y-122925714D01*
X168239286Y-122925714D02*
X168096429Y-122997142D01*
X168025000Y-123068571D01*
X167953571Y-123211428D01*
X167953571Y-123354285D01*
X167953571Y-123639999D02*
X167953571Y-124211428D01*
X168953571Y-123854285D02*
X167667857Y-123854285D01*
X167525000Y-123925713D01*
X167453571Y-124068571D01*
X167453571Y-124211428D01*
X168953571Y-125354285D02*
X168167857Y-125354285D01*
X168025000Y-125282856D01*
X167953571Y-125139999D01*
X167953571Y-124854285D01*
X168025000Y-124711428D01*
X168882143Y-125354285D02*
X168953571Y-125211428D01*
X168953571Y-124854285D01*
X168882143Y-124711428D01*
X168739286Y-124639999D01*
X168596429Y-124639999D01*
X168453571Y-124711428D01*
X168382143Y-124854285D01*
X168382143Y-125211428D01*
X168310714Y-125354285D01*
X168882143Y-126711428D02*
X168953571Y-126568571D01*
X168953571Y-126282857D01*
X168882143Y-126139999D01*
X168810714Y-126068571D01*
X168667857Y-125997142D01*
X168239286Y-125997142D01*
X168096429Y-126068571D01*
X168025000Y-126139999D01*
X167953571Y-126282857D01*
X167953571Y-126568571D01*
X168025000Y-126711428D01*
X168882143Y-127925713D02*
X168953571Y-127782856D01*
X168953571Y-127497142D01*
X168882143Y-127354285D01*
X168739286Y-127282856D01*
X168167857Y-127282856D01*
X168025000Y-127354285D01*
X167953571Y-127497142D01*
X167953571Y-127782856D01*
X168025000Y-127925713D01*
X168167857Y-127997142D01*
X168310714Y-127997142D01*
X168453571Y-127282856D01*
X141109095Y-131033081D02*
X140558762Y-132684081D01*
X140008428Y-131033081D01*
X139458095Y-131583414D02*
X139458095Y-133234414D01*
X139458095Y-131662033D02*
X139300857Y-131583414D01*
X138986380Y-131583414D01*
X138829142Y-131662033D01*
X138750523Y-131740652D01*
X138671904Y-131897890D01*
X138671904Y-132369605D01*
X138750523Y-132526843D01*
X138829142Y-132605462D01*
X138986380Y-132684081D01*
X139300857Y-132684081D01*
X139458095Y-132605462D01*
X137964333Y-131583414D02*
X137964333Y-133234414D01*
X137964333Y-131662033D02*
X137807095Y-131583414D01*
X137492618Y-131583414D01*
X137335380Y-131662033D01*
X137256761Y-131740652D01*
X137178142Y-131897890D01*
X137178142Y-132369605D01*
X137256761Y-132526843D01*
X137335380Y-132605462D01*
X137492618Y-132684081D01*
X137807095Y-132684081D01*
X137964333Y-132605462D01*
X141109095Y-133644481D02*
X140558762Y-135295481D01*
X140008428Y-133644481D01*
X138750523Y-135295481D02*
X138750523Y-133644481D01*
X138750523Y-135216862D02*
X138907761Y-135295481D01*
X139222238Y-135295481D01*
X139379476Y-135216862D01*
X139458095Y-135138243D01*
X139536714Y-134981005D01*
X139536714Y-134509290D01*
X139458095Y-134352052D01*
X139379476Y-134273433D01*
X139222238Y-134194814D01*
X138907761Y-134194814D01*
X138750523Y-134273433D01*
X137256761Y-135295481D02*
X137256761Y-133644481D01*
X137256761Y-135216862D02*
X137413999Y-135295481D01*
X137728476Y-135295481D01*
X137885714Y-135216862D01*
X137964333Y-135138243D01*
X138042952Y-134981005D01*
X138042952Y-134509290D01*
X137964333Y-134352052D01*
X137885714Y-134273433D01*
X137728476Y-134194814D01*
X137413999Y-134194814D01*
X137256761Y-134273433D01*
X140951857Y-136255881D02*
X140401524Y-137906881D01*
X139851190Y-136255881D01*
X139379476Y-137828262D02*
X139222238Y-137906881D01*
X138907762Y-137906881D01*
X138750523Y-137828262D01*
X138671904Y-137671024D01*
X138671904Y-137592405D01*
X138750523Y-137435167D01*
X138907762Y-137356548D01*
X139143619Y-137356548D01*
X139300857Y-137277929D01*
X139379476Y-137120690D01*
X139379476Y-137042071D01*
X139300857Y-136884833D01*
X139143619Y-136806214D01*
X138907762Y-136806214D01*
X138750523Y-136884833D01*
X138042952Y-137828262D02*
X137885714Y-137906881D01*
X137571238Y-137906881D01*
X137413999Y-137828262D01*
X137335380Y-137671024D01*
X137335380Y-137592405D01*
X137413999Y-137435167D01*
X137571238Y-137356548D01*
X137807095Y-137356548D01*
X137964333Y-137277929D01*
X138042952Y-137120690D01*
X138042952Y-137042071D01*
X137964333Y-136884833D01*
X137807095Y-136806214D01*
X137571238Y-136806214D01*
X137413999Y-136884833D01*
X141148405Y-140518281D02*
X141148405Y-138867281D01*
X140519452Y-138867281D01*
X140362214Y-138945900D01*
X140283595Y-139024519D01*
X140204976Y-139181757D01*
X140204976Y-139417614D01*
X140283595Y-139574852D01*
X140362214Y-139653471D01*
X140519452Y-139732090D01*
X141148405Y-139732090D01*
X138632595Y-138945900D02*
X138789833Y-138867281D01*
X139025690Y-138867281D01*
X139261548Y-138945900D01*
X139418786Y-139103138D01*
X139497405Y-139260376D01*
X139576024Y-139574852D01*
X139576024Y-139810710D01*
X139497405Y-140125186D01*
X139418786Y-140282424D01*
X139261548Y-140439662D01*
X139025690Y-140518281D01*
X138868452Y-140518281D01*
X138632595Y-140439662D01*
X138553976Y-140361043D01*
X138553976Y-139810710D01*
X138868452Y-139810710D01*
X137846405Y-140518281D02*
X137846405Y-138867281D01*
X137453310Y-138867281D01*
X137217452Y-138945900D01*
X137060214Y-139103138D01*
X136981595Y-139260376D01*
X136902976Y-139574852D01*
X136902976Y-139810710D01*
X136981595Y-140125186D01*
X137060214Y-140282424D01*
X137217452Y-140439662D01*
X137453310Y-140518281D01*
X137846405Y-140518281D01*
X141148405Y-143129681D02*
X141148405Y-141478681D01*
X140519452Y-141478681D01*
X140362214Y-141557300D01*
X140283595Y-141635919D01*
X140204976Y-141793157D01*
X140204976Y-142029014D01*
X140283595Y-142186252D01*
X140362214Y-142264871D01*
X140519452Y-142343490D01*
X141148405Y-142343490D01*
X138632595Y-141557300D02*
X138789833Y-141478681D01*
X139025690Y-141478681D01*
X139261548Y-141557300D01*
X139418786Y-141714538D01*
X139497405Y-141871776D01*
X139576024Y-142186252D01*
X139576024Y-142422110D01*
X139497405Y-142736586D01*
X139418786Y-142893824D01*
X139261548Y-143051062D01*
X139025690Y-143129681D01*
X138868452Y-143129681D01*
X138632595Y-143051062D01*
X138553976Y-142972443D01*
X138553976Y-142422110D01*
X138868452Y-142422110D01*
X136902976Y-142972443D02*
X136981595Y-143051062D01*
X137217452Y-143129681D01*
X137374690Y-143129681D01*
X137610548Y-143051062D01*
X137767786Y-142893824D01*
X137846405Y-142736586D01*
X137925024Y-142422110D01*
X137925024Y-142186252D01*
X137846405Y-141871776D01*
X137767786Y-141714538D01*
X137610548Y-141557300D01*
X137374690Y-141478681D01*
X137217452Y-141478681D01*
X136981595Y-141557300D01*
X136902976Y-141635919D01*
X149097857Y-91960000D02*
X149240714Y-91888571D01*
X149455000Y-91888571D01*
X149669285Y-91960000D01*
X149812143Y-92102857D01*
X149883571Y-92245714D01*
X149955000Y-92531429D01*
X149955000Y-92745714D01*
X149883571Y-93031429D01*
X149812143Y-93174286D01*
X149669285Y-93317143D01*
X149455000Y-93388571D01*
X149312143Y-93388571D01*
X149097857Y-93317143D01*
X149026428Y-93245714D01*
X149026428Y-92745714D01*
X149312143Y-92745714D01*
X148383571Y-93388571D02*
X148383571Y-91888571D01*
X147526428Y-93388571D01*
X147526428Y-91888571D01*
X146812142Y-93388571D02*
X146812142Y-91888571D01*
X146454999Y-91888571D01*
X146240714Y-91960000D01*
X146097856Y-92102857D01*
X146026428Y-92245714D01*
X145954999Y-92531429D01*
X145954999Y-92745714D01*
X146026428Y-93031429D01*
X146097856Y-93174286D01*
X146240714Y-93317143D01*
X146454999Y-93388571D01*
X146812142Y-93388571D01*
X149740714Y-87602143D02*
X149526428Y-87673571D01*
X149169285Y-87673571D01*
X149026428Y-87602143D01*
X148954999Y-87530714D01*
X148883571Y-87387857D01*
X148883571Y-87245000D01*
X148954999Y-87102143D01*
X149026428Y-87030714D01*
X149169285Y-86959286D01*
X149454999Y-86887857D01*
X149597857Y-86816429D01*
X149669285Y-86745000D01*
X149740714Y-86602143D01*
X149740714Y-86459286D01*
X149669285Y-86316429D01*
X149597857Y-86245000D01*
X149454999Y-86173571D01*
X149097857Y-86173571D01*
X148883571Y-86245000D01*
X147383571Y-87530714D02*
X147455000Y-87602143D01*
X147669286Y-87673571D01*
X147812143Y-87673571D01*
X148026428Y-87602143D01*
X148169286Y-87459286D01*
X148240714Y-87316429D01*
X148312143Y-87030714D01*
X148312143Y-86816429D01*
X148240714Y-86530714D01*
X148169286Y-86387857D01*
X148026428Y-86245000D01*
X147812143Y-86173571D01*
X147669286Y-86173571D01*
X147455000Y-86245000D01*
X147383571Y-86316429D01*
X146026428Y-87673571D02*
X146740714Y-87673571D01*
X146740714Y-86173571D01*
X149776428Y-83157143D02*
X149562142Y-83228571D01*
X149204999Y-83228571D01*
X149062142Y-83157143D01*
X148990713Y-83085714D01*
X148919285Y-82942857D01*
X148919285Y-82800000D01*
X148990713Y-82657143D01*
X149062142Y-82585714D01*
X149204999Y-82514286D01*
X149490713Y-82442857D01*
X149633571Y-82371429D01*
X149704999Y-82300000D01*
X149776428Y-82157143D01*
X149776428Y-82014286D01*
X149704999Y-81871429D01*
X149633571Y-81800000D01*
X149490713Y-81728571D01*
X149133571Y-81728571D01*
X148919285Y-81800000D01*
X148276428Y-83228571D02*
X148276428Y-81728571D01*
X147919285Y-81728571D01*
X147705000Y-81800000D01*
X147562142Y-81942857D01*
X147490714Y-82085714D01*
X147419285Y-82371429D01*
X147419285Y-82585714D01*
X147490714Y-82871429D01*
X147562142Y-83014286D01*
X147705000Y-83157143D01*
X147919285Y-83228571D01*
X148276428Y-83228571D01*
X146847857Y-82800000D02*
X146133571Y-82800000D01*
X146990714Y-83228571D02*
X146490714Y-81728571D01*
X145990714Y-83228571D01*
X171492143Y-96902144D02*
X171563571Y-97116430D01*
X171563571Y-97473573D01*
X171492143Y-97616430D01*
X171420714Y-97687859D01*
X171277857Y-97759287D01*
X171135000Y-97759287D01*
X170992143Y-97687859D01*
X170920714Y-97616430D01*
X170849286Y-97473573D01*
X170777857Y-97187859D01*
X170706429Y-97045001D01*
X170635000Y-96973573D01*
X170492143Y-96902144D01*
X170349286Y-96902144D01*
X170206429Y-96973573D01*
X170135000Y-97045001D01*
X170063571Y-97187859D01*
X170063571Y-97545001D01*
X170135000Y-97759287D01*
X171563571Y-98402144D02*
X170563571Y-98402144D01*
X170063571Y-98402144D02*
X170135000Y-98330715D01*
X170206429Y-98402144D01*
X170135000Y-98473572D01*
X170063571Y-98402144D01*
X170206429Y-98402144D01*
X171563571Y-99116430D02*
X170563571Y-99116430D01*
X170706429Y-99116430D02*
X170635000Y-99187858D01*
X170563571Y-99330716D01*
X170563571Y-99545001D01*
X170635000Y-99687858D01*
X170777857Y-99759287D01*
X171563571Y-99759287D01*
X170777857Y-99759287D02*
X170635000Y-99830716D01*
X170563571Y-99973573D01*
X170563571Y-100187858D01*
X170635000Y-100330716D01*
X170777857Y-100402144D01*
X171563571Y-100402144D01*
X170563571Y-101116430D02*
X172063571Y-101116430D01*
X170635000Y-101116430D02*
X170563571Y-101259287D01*
X170563571Y-101545001D01*
X170635000Y-101687858D01*
X170706429Y-101759287D01*
X170849286Y-101830716D01*
X171277857Y-101830716D01*
X171420714Y-101759287D01*
X171492143Y-101687858D01*
X171563571Y-101545001D01*
X171563571Y-101259287D01*
X171492143Y-101116430D01*
X171563571Y-102687859D02*
X171492143Y-102545001D01*
X171349286Y-102473573D01*
X170063571Y-102473573D01*
X171492143Y-103830715D02*
X171563571Y-103687858D01*
X171563571Y-103402144D01*
X171492143Y-103259287D01*
X171349286Y-103187858D01*
X170777857Y-103187858D01*
X170635000Y-103259287D01*
X170563571Y-103402144D01*
X170563571Y-103687858D01*
X170635000Y-103830715D01*
X170777857Y-103902144D01*
X170920714Y-103902144D01*
X171063571Y-103187858D01*
X171492143Y-105616429D02*
X171563571Y-105830715D01*
X171563571Y-106187858D01*
X171492143Y-106330715D01*
X171420714Y-106402144D01*
X171277857Y-106473572D01*
X171135000Y-106473572D01*
X170992143Y-106402144D01*
X170920714Y-106330715D01*
X170849286Y-106187858D01*
X170777857Y-105902144D01*
X170706429Y-105759286D01*
X170635000Y-105687858D01*
X170492143Y-105616429D01*
X170349286Y-105616429D01*
X170206429Y-105687858D01*
X170135000Y-105759286D01*
X170063571Y-105902144D01*
X170063571Y-106259286D01*
X170135000Y-106473572D01*
X171492143Y-107687857D02*
X171563571Y-107545000D01*
X171563571Y-107259286D01*
X171492143Y-107116429D01*
X171349286Y-107045000D01*
X170777857Y-107045000D01*
X170635000Y-107116429D01*
X170563571Y-107259286D01*
X170563571Y-107545000D01*
X170635000Y-107687857D01*
X170777857Y-107759286D01*
X170920714Y-107759286D01*
X171063571Y-107045000D01*
X171563571Y-108402143D02*
X170563571Y-108402143D01*
X170849286Y-108402143D02*
X170706429Y-108473571D01*
X170635000Y-108545000D01*
X170563571Y-108687857D01*
X170563571Y-108830714D01*
X170563571Y-109187857D02*
X171563571Y-109545000D01*
X170563571Y-109902142D01*
X171563571Y-110687857D02*
X171492143Y-110544999D01*
X171420714Y-110473571D01*
X171277857Y-110402142D01*
X170849286Y-110402142D01*
X170706429Y-110473571D01*
X170635000Y-110544999D01*
X170563571Y-110687857D01*
X170563571Y-110902142D01*
X170635000Y-111044999D01*
X170706429Y-111116428D01*
X170849286Y-111187857D01*
X171277857Y-111187857D01*
X171420714Y-111116428D01*
X171492143Y-111044999D01*
X171563571Y-110902142D01*
X171563571Y-110687857D01*
X170063571Y-112830714D02*
X170063571Y-113759285D01*
X170635000Y-113259285D01*
X170635000Y-113473571D01*
X170706429Y-113616428D01*
X170777857Y-113687857D01*
X170920714Y-113759285D01*
X171277857Y-113759285D01*
X171420714Y-113687857D01*
X171492143Y-113616428D01*
X171563571Y-113473571D01*
X171563571Y-113044999D01*
X171492143Y-112902142D01*
X171420714Y-112830714D01*
X170206429Y-114330713D02*
X170135000Y-114402142D01*
X170063571Y-114544999D01*
X170063571Y-114902142D01*
X170135000Y-115044999D01*
X170206429Y-115116428D01*
X170349286Y-115187856D01*
X170492143Y-115187856D01*
X170706429Y-115116428D01*
X171563571Y-114259285D01*
X171563571Y-115187856D01*
X173963571Y-100045001D02*
X172463571Y-100045001D01*
X172463571Y-100402144D01*
X172535000Y-100616429D01*
X172677857Y-100759287D01*
X172820714Y-100830715D01*
X173106429Y-100902144D01*
X173320714Y-100902144D01*
X173606429Y-100830715D01*
X173749286Y-100759287D01*
X173892143Y-100616429D01*
X173963571Y-100402144D01*
X173963571Y-100045001D01*
X173963571Y-101545001D02*
X172463571Y-101545001D01*
X173535000Y-102045001D01*
X172463571Y-102545001D01*
X173963571Y-102545001D01*
X173177857Y-103759287D02*
X173177857Y-103259287D01*
X173963571Y-103259287D02*
X172463571Y-103259287D01*
X172463571Y-103973573D01*
X173177857Y-104545001D02*
X173177857Y-105045001D01*
X173963571Y-105259287D02*
X173963571Y-104545001D01*
X172463571Y-104545001D01*
X172463571Y-105259287D01*
X172606429Y-106973572D02*
X172535000Y-107045001D01*
X172463571Y-107187858D01*
X172463571Y-107545001D01*
X172535000Y-107687858D01*
X172606429Y-107759287D01*
X172749286Y-107830715D01*
X172892143Y-107830715D01*
X173106429Y-107759287D01*
X173963571Y-106902144D01*
X173963571Y-107830715D01*
X172463571Y-108759286D02*
X172463571Y-108902143D01*
X172535000Y-109045000D01*
X172606429Y-109116429D01*
X172749286Y-109187858D01*
X173035000Y-109259286D01*
X173392143Y-109259286D01*
X173677857Y-109187858D01*
X173820714Y-109116429D01*
X173892143Y-109045000D01*
X173963571Y-108902143D01*
X173963571Y-108759286D01*
X173892143Y-108616429D01*
X173820714Y-108545000D01*
X173677857Y-108473572D01*
X173392143Y-108402143D01*
X173035000Y-108402143D01*
X172749286Y-108473572D01*
X172606429Y-108545000D01*
X172535000Y-108616429D01*
X172463571Y-108759286D01*
X173963571Y-110687857D02*
X173963571Y-109830714D01*
X173963571Y-110259286D02*
X172463571Y-110259286D01*
X172677857Y-110116429D01*
X172820714Y-109973571D01*
X172892143Y-109830714D01*
X172463571Y-112045000D02*
X172463571Y-111330714D01*
X173177857Y-111259285D01*
X173106429Y-111330714D01*
X173035000Y-111473571D01*
X173035000Y-111830714D01*
X173106429Y-111973571D01*
X173177857Y-112045000D01*
X173320714Y-112116428D01*
X173677857Y-112116428D01*
X173820714Y-112045000D01*
X173892143Y-111973571D01*
X173963571Y-111830714D01*
X173963571Y-111473571D01*
X173892143Y-111330714D01*
X173820714Y-111259285D01*
%LPC*%
D12*
X152400000Y-67945000D03*
X152400000Y-62865000D03*
X149225000Y-98425000D03*
X146685000Y-98425000D03*
D13*
X177800000Y-62230000D03*
D14*
X177800000Y-64770000D03*
X177800000Y-67310000D03*
X177800000Y-69850000D03*
X177800000Y-72390000D03*
X177800000Y-74930000D03*
X177800000Y-77470000D03*
X177800000Y-80010000D03*
D13*
X180340000Y-62230000D03*
D14*
X180340000Y-64770000D03*
X180340000Y-67310000D03*
X180340000Y-69850000D03*
X180340000Y-72390000D03*
X180340000Y-74930000D03*
X180340000Y-77470000D03*
X180340000Y-80010000D03*
D13*
X182880000Y-62230000D03*
D14*
X182880000Y-64770000D03*
X182880000Y-67310000D03*
X182880000Y-69850000D03*
X182880000Y-72390000D03*
X182880000Y-74930000D03*
X182880000Y-77470000D03*
X182880000Y-80010000D03*
D13*
X177800000Y-86360000D03*
D14*
X177800000Y-88900000D03*
X177800000Y-91440000D03*
X177800000Y-93980000D03*
X177800000Y-96520000D03*
X177800000Y-99060000D03*
X177800000Y-101600000D03*
X177800000Y-104140000D03*
D13*
X180340000Y-86360000D03*
D14*
X180340000Y-88900000D03*
X180340000Y-91440000D03*
X180340000Y-93980000D03*
X180340000Y-96520000D03*
X180340000Y-99060000D03*
X180340000Y-101600000D03*
X180340000Y-104140000D03*
D13*
X182880000Y-86360000D03*
D14*
X182880000Y-88900000D03*
X182880000Y-91440000D03*
X182880000Y-93980000D03*
X182880000Y-96520000D03*
X182880000Y-99060000D03*
X182880000Y-101600000D03*
X182880000Y-104140000D03*
D13*
X177800000Y-110490000D03*
D14*
X177800000Y-113030000D03*
X177800000Y-115570000D03*
X177800000Y-118110000D03*
X177800000Y-120650000D03*
X177800000Y-123190000D03*
X177800000Y-125730000D03*
X177800000Y-128270000D03*
D13*
X180340000Y-110490000D03*
D14*
X180340000Y-113030000D03*
X180340000Y-115570000D03*
X180340000Y-118110000D03*
X180340000Y-120650000D03*
X180340000Y-123190000D03*
X180340000Y-125730000D03*
X180340000Y-128270000D03*
D13*
X182880000Y-110490000D03*
D14*
X182880000Y-113030000D03*
X182880000Y-115570000D03*
X182880000Y-118110000D03*
X182880000Y-120650000D03*
X182880000Y-123190000D03*
X182880000Y-125730000D03*
X182880000Y-128270000D03*
D13*
X177800000Y-134620000D03*
D14*
X177800000Y-137160000D03*
X177800000Y-139700000D03*
X177800000Y-142240000D03*
X177800000Y-144780000D03*
X177800000Y-147320000D03*
X177800000Y-149860000D03*
X177800000Y-152400000D03*
D13*
X180340000Y-134620000D03*
D14*
X180340000Y-137160000D03*
X180340000Y-139700000D03*
X180340000Y-142240000D03*
X180340000Y-144780000D03*
X180340000Y-147320000D03*
X180340000Y-149860000D03*
X180340000Y-152400000D03*
D13*
X182880000Y-134620000D03*
D14*
X182880000Y-137160000D03*
X182880000Y-139700000D03*
X182880000Y-142240000D03*
X182880000Y-144780000D03*
X182880000Y-147320000D03*
X182880000Y-149860000D03*
X182880000Y-152400000D03*
D15*
X140970000Y-70485000D03*
D16*
X140970000Y-75565000D03*
D15*
X140970000Y-82550000D03*
D16*
X140970000Y-87630000D03*
X140970000Y-92710000D03*
D13*
X143510000Y-132080000D03*
D14*
X143510000Y-134620000D03*
X143510000Y-137160000D03*
X143510000Y-139700000D03*
X143510000Y-142240000D03*
D17*
X147955000Y-128905000D03*
X147955000Y-131445000D03*
X147955000Y-133985000D03*
X147955000Y-136525000D03*
X147955000Y-139065000D03*
X147955000Y-141605000D03*
X147955000Y-144145000D03*
X147955000Y-146685000D03*
X147955000Y-149225000D03*
X155575000Y-149225000D03*
X155575000Y-146685000D03*
X155575000Y-144145000D03*
X155575000Y-141605000D03*
X155575000Y-139065000D03*
X155575000Y-136525000D03*
X155575000Y-133985000D03*
X155575000Y-131445000D03*
X155575000Y-128905000D03*
M02*
